<svg id="Layer_1" data-name="Layer 1" xmlns="http://www.w3.org/2000/svg" viewBox="0 0 433.01 67.97"><defs><style>.cls-1{fill-rule:evenodd;}</style></defs><title>minitomic_engraving</title><path id="Minitomic_prototype_made_in_belgium" data-name="Minitomic prototype made in belgium" class="cls-1" d="M87.32,165.79h15.06l8.36-39,6.43,28.38h8.08l18.65-28.38-8.36,39H150.7l13.86-65.2H148.21l-22.59,34.06-8.08-34.07H101.19Zm75.4,0h14.7l10.28-48.22H173Zm11.39-53.73H188.8l2.85-13.32H177Zm14.14,53.73H203l5.87-27.65a17.93,17.93,0,0,1,5.33-6.15,10.59,10.59,0,0,1,6-2.39,4.19,4.19,0,0,1,3.22,1.29,6,6,0,0,1,1.19,4.13,18.88,18.88,0,0,1-.37,3.67l-5.78,27.1h14.69l6.52-30.86c.25-1.16.44-2.34.6-3.54a29.24,29.24,0,0,0,.23-3.63,17.15,17.15,0,0,0-.5-4.22,9.1,9.1,0,0,0-1.74-3.54,8.85,8.85,0,0,0-3.31-2.43,13.08,13.08,0,0,0-5.28-.92A26.24,26.24,0,0,0,218.48,119a22.82,22.82,0,0,0-8.45,6.66l1.74-8.08H198.54Zm55.2,0h14.69l10.29-48.22h-14.7Zm11.38-53.73h14.7l2.85-13.32h-14.7Zm37.84,53.64a45.37,45.37,0,0,0,7.26-2.48V151.55a34.45,34.45,0,0,1-3.4,1.19,11.66,11.66,0,0,1-3.31.56,3.55,3.55,0,0,1-2.25-.69,2.7,2.7,0,0,1-.87-2.25,6.12,6.12,0,0,1,0-.74c0-.24.08-.52.14-.82l4.23-20.12h9.27l2.39-11.11H296.9l3.31-15.34h-14.7l-3.31,15.34h-5.69L274,128.68h5.78l-5.32,25.17a19,19,0,0,0-.37,3.76q0,5,3,7a13.38,13.38,0,0,0,7.71,2.07A31.63,31.63,0,0,0,292.67,165.7Zm46.52-1.56a31.42,31.42,0,0,0,9.69-6.75,30.12,30.12,0,0,0,6.24-9.55,28.81,28.81,0,0,0,2.2-11.07,23.79,23.79,0,0,0-1.24-7.76A17.55,17.55,0,0,0,346,118.27a21.93,21.93,0,0,0-8.73-1.61,30.3,30.3,0,0,0-28.47,18.87,29,29,0,0,0-2.2,11.07,23.83,23.83,0,0,0,1.24,7.76,18.22,18.22,0,0,0,3.72,6.38,17.36,17.36,0,0,0,6.25,4.36,22.18,22.18,0,0,0,8.81,1.61,29.73,29.73,0,0,0,12.54-2.58ZM324,151.74a11,11,0,0,1-2-6.89,17.68,17.68,0,0,1,3.86-11.16,12.7,12.7,0,0,1,4-3.35,10.19,10.19,0,0,1,4.77-1.19,6.4,6.4,0,0,1,5.38,2.57,11,11,0,0,1,2,6.88,17.64,17.64,0,0,1-3.86,11.16,12.73,12.73,0,0,1-4,3.36,10.19,10.19,0,0,1-4.77,1.19,6.4,6.4,0,0,1-5.37-2.57Zm35.95,14h14.7l5.87-27.65a19.13,19.13,0,0,1,5-6.1,9.34,9.34,0,0,1,5.7-2.44,3.81,3.81,0,0,1,3,1.29,5.81,5.81,0,0,1,1.15,4,12,12,0,0,1-.14,1.79c-.09.64-.2,1.33-.32,2.06L389,165.79h14.7l5.78-27.65a17.14,17.14,0,0,1,2.25-3.4A22.08,22.08,0,0,1,414.5,132a13,13,0,0,1,2.89-1.79,7.05,7.05,0,0,1,2.85-.64,3.69,3.69,0,0,1,2.94,1.29,6,6,0,0,1,1.1,3.94,13.36,13.36,0,0,1-.14,1.79c-.09.65-.2,1.34-.32,2.07L418,165.78h14.7l6.61-30.85a40.23,40.23,0,0,0,.73-4.37,27.53,27.53,0,0,0,.19-2.89,16.84,16.84,0,0,0-.5-4.18A9,9,0,0,0,438,120a8.62,8.62,0,0,0-3.35-2.43,13.19,13.19,0,0,0-5.23-.92,21.75,21.75,0,0,0-10,2.43,25.26,25.26,0,0,0-8.36,6.94,15.69,15.69,0,0,0-.78-3.72,7.49,7.49,0,0,0-1.88-2.94,9.4,9.4,0,0,0-3.31-2,14.92,14.92,0,0,0-5-.73,23.73,23.73,0,0,0-10.2,2.34,22.3,22.3,0,0,0-8.26,6.66l1.74-8.08H370.18Zm83.3,0h14.69l10.29-48.22h-14.7Zm11.39-53.73h14.69l2.85-13.32h-14.7Zm50.51,51.06a30.32,30.32,0,0,0,10.1-9.18l-13.41-4.41A11.42,11.42,0,0,1,498,153a9.39,9.39,0,0,1-4.73,1.34,6.42,6.42,0,0,1-5.33-2.62,11.07,11.07,0,0,1-2-6.94,18,18,0,0,1,1.06-6.24,15.68,15.68,0,0,1,2.84-4.91,13.77,13.77,0,0,1,4.09-3.26,10.07,10.07,0,0,1,4.68-1.19,6.51,6.51,0,0,1,6.61,4.59l15.16-4.32a16.87,16.87,0,0,0-6.25-9.23q-4.68-3.52-12.76-3.53a30.12,30.12,0,0,0-12.45,2.52,30.52,30.52,0,0,0-16,16.26,28.14,28.14,0,0,0-2.25,11,24.13,24.13,0,0,0,1.24,7.81,18.33,18.33,0,0,0,3.77,6.47A17.46,17.46,0,0,0,482,165.1a22.35,22.35,0,0,0,8.81,1.61,28.26,28.26,0,0,0,14.33-3.59Z" transform="translate(-87.32 -98.74)"/></svg>