  0
SECTION
  2
HEADER
  9
$ACADVER
  1
AC1009
  9
$INSBASE
 10
0.0
 20
0.0
 30
0.0
  9
$EXTMIN
 10
0.0
 20
0.0
 30
0.0
  9
$EXTMAX
 10
0.0
 20
0.0
 30
0.0
  0
ENDSEC
  0
SECTION
  2
TABLES
  0
TABLE
  2
VPORT
 70
0
  0
ENDTAB
  0
TABLE
  2
LTYPE
 70
1
  0
LTYPE
  2
CONTINUOUS
 70
0
  3
Solid line
 72
65
 73
0
 40
0.0
  0
ENDTAB
  0
TABLE
  2
LAYER
 70
1
  0
LAYER
  2
0
 70
64
 62
7
  6
continuous
  0
ENDTAB
  0
TABLE
  2
STYLE
 70
1
  0
STYLE
  2
STANDARD
 70
0
 40
0
 41
1.0
 50
0.0
 71
0
 42
1
 3
ARIAL.TTF
 4

  0
ENDTAB
  0
TABLE
  2
VIEW
 70
0
  0
ENDTAB
  0
ENDSEC
  0
SECTION
  2
BLOCKS
  0
ENDSEC
  0
SECTION
  2
ENTITIES
  0
ARC
  8
Group
 62
0
 10
2.8
 20
-2.799999999999997
 30
0.0
 40
0.3
 50
90.0
 51
-180.0
  0
ARC
  8
Group
 62
0
 10
16.2
 20
-2.799999999999997
 30
0.0
 40
0.3
 50
-0.0
 51
90.0
  0
ARC
  8
Group
 62
0
 10
16.199999999999996
 20
-16.200000000000003
 30
0.0
 40
0.3
 50
-90.0
 51
-0.0
  0
ARC
  8
Group
 62
0
 10
2.799999999999994
 20
-16.199999999999996
 30
0.0
 40
0.3
 50
-180.0
 51
-90.0
  0
POLYLINE
  8
Group
 62
0
 70
0
 66
1
 10
0.0
 20
0.0
 30
0.0
  0
VERTEX
  8
Group
 10
2.8
 20
-2.5
 30
0.0
  0
VERTEX
  8
Group
 10
16.2
 20
-2.5
 30
0.0
  0
SEQEND
  8
Group
  0
POLYLINE
  8
Group
 62
0
 70
0
 66
1
 10
0.0
 20
0.0
 30
0.0
  0
VERTEX
  8
Group
 10
16.5
 20
-2.799999999999997
 30
0.0
  0
VERTEX
  8
Group
 10
16.5
 20
-16.200000000000003
 30
0.0
  0
SEQEND
  8
Group
  0
POLYLINE
  8
Group
 62
0
 70
0
 66
1
 10
0.0
 20
0.0
 30
0.0
  0
VERTEX
  8
Group
 10
16.2
 20
-16.5
 30
0.0
  0
VERTEX
  8
Group
 10
2.800000000000001
 20
-16.5
 30
0.0
  0
SEQEND
  8
Group
  0
POLYLINE
  8
Group
 62
0
 70
0
 66
1
 10
0.0
 20
0.0
 30
0.0
  0
VERTEX
  8
Group
 10
2.5
 20
-16.200000000000003
 30
0.0
  0
VERTEX
  8
Group
 10
2.5
 20
-2.799999999999997
 30
0.0
  0
SEQEND
  8
Group
  0
ARC
  8
Group001
 62
0
 10
21.8
 20
-2.799999999999997
 30
0.0
 40
0.3
 50
90.0
 51
-180.0
  0
POLYLINE
  8
Group001
 62
0
 70
0
 66
1
 10
0.0
 20
0.0
 30
0.0
  0
VERTEX
  8
Group001
 10
35.2
 20
-16.5
 30
0.0
  0
VERTEX
  8
Group001
 10
21.8
 20
-16.5
 30
0.0
  0
SEQEND
  8
Group001
  0
ARC
  8
Group001
 62
0
 10
35.199999999999996
 20
-16.200000000000003
 30
0.0
 40
0.3
 50
-90.0
 51
-0.0
  0
POLYLINE
  8
Group001
 62
0
 70
0
 66
1
 10
0.0
 20
0.0
 30
0.0
  0
VERTEX
  8
Group001
 10
21.5
 20
-16.200000000000003
 30
0.0
  0
VERTEX
  8
Group001
 10
21.5
 20
-2.799999999999997
 30
0.0
  0
SEQEND
  8
Group001
  0
ARC
  8
Group001
 62
0
 10
21.799999999999994
 20
-16.199999999999996
 30
0.0
 40
0.3
 50
-180.0
 51
-90.0
  0
POLYLINE
  8
Group001
 62
0
 70
0
 66
1
 10
0.0
 20
0.0
 30
0.0
  0
VERTEX
  8
Group001
 10
21.8
 20
-2.5
 30
0.0
  0
VERTEX
  8
Group001
 10
35.2
 20
-2.5
 30
0.0
  0
SEQEND
  8
Group001
  0
ARC
  8
Group001
 62
0
 10
35.2
 20
-2.799999999999997
 30
0.0
 40
0.3
 50
-0.0
 51
90.0
  0
ARC
  8
Group002
 62
0
 10
40.8
 20
-2.799999999999997
 30
0.0
 40
0.3
 50
90.0
 51
-180.0
  0
POLYLINE
  8
Group002
 62
0
 70
0
 66
1
 10
0.0
 20
0.0
 30
0.0
  0
VERTEX
  8
Group002
 10
54.2
 20
-16.5
 30
0.0
  0
VERTEX
  8
Group002
 10
40.8
 20
-16.5
 30
0.0
  0
SEQEND
  8
Group002
  0
POLYLINE
  8
Group002
 62
0
 70
0
 66
1
 10
0.0
 20
0.0
 30
0.0
  0
VERTEX
  8
Group002
 10
54.5
 20
-2.799999999999997
 30
0.0
  0
VERTEX
  8
Group002
 10
54.5
 20
-16.200000000000003
 30
0.0
  0
SEQEND
  8
Group002
  0
ARC
  8
Group002
 62
0
 10
54.199999999999996
 20
-16.200000000000003
 30
0.0
 40
0.3
 50
-90.0
 51
-0.0
  0
ARC
  8
Group002
 62
0
 10
40.8
 20
-16.199999999999996
 30
0.0
 40
0.3
 50
180.0
 51
-89.99999999999865
  0
POLYLINE
  8
Group002
 62
0
 70
0
 66
1
 10
0.0
 20
0.0
 30
0.0
  0
VERTEX
  8
Group002
 10
40.8
 20
-2.5
 30
0.0
  0
VERTEX
  8
Group002
 10
54.2
 20
-2.5
 30
0.0
  0
SEQEND
  8
Group002
  0
ARC
  8
Group002
 62
0
 10
54.2
 20
-2.799999999999997
 30
0.0
 40
0.3
 50
-0.0
 51
90.0
  0
ARC
  8
Group003
 62
0
 10
59.8
 20
-2.799999999999997
 30
0.0
 40
0.3
 50
90.0
 51
-180.0
  0
POLYLINE
  8
Group003
 62
0
 70
0
 66
1
 10
0.0
 20
0.0
 30
0.0
  0
VERTEX
  8
Group003
 10
73.2
 20
-16.5
 30
0.0
  0
VERTEX
  8
Group003
 10
59.8
 20
-16.5
 30
0.0
  0
SEQEND
  8
Group003
  0
POLYLINE
  8
Group003
 62
0
 70
0
 66
1
 10
0.0
 20
0.0
 30
0.0
  0
VERTEX
  8
Group003
 10
73.5
 20
-2.799999999999997
 30
0.0
  0
VERTEX
  8
Group003
 10
73.5
 20
-16.200000000000003
 30
0.0
  0
SEQEND
  8
Group003
  0
ARC
  8
Group003
 62
0
 10
73.19999999999999
 20
-16.200000000000003
 30
0.0
 40
0.3
 50
-90.0
 51
-0.0
  0
POLYLINE
  8
Group003
 62
0
 70
0
 66
1
 10
0.0
 20
0.0
 30
0.0
  0
VERTEX
  8
Group003
 10
59.5
 20
-16.200000000000003
 30
0.0
  0
VERTEX
  8
Group003
 10
59.5
 20
-2.799999999999997
 30
0.0
  0
SEQEND
  8
Group003
  0
ARC
  8
Group003
 62
0
 10
59.8
 20
-16.199999999999996
 30
0.0
 40
0.3
 50
-180.0
 51
-89.99999999999865
  0
POLYLINE
  8
Group003
 62
0
 70
0
 66
1
 10
0.0
 20
0.0
 30
0.0
  0
VERTEX
  8
Group003
 10
59.8
 20
-2.5
 30
0.0
  0
VERTEX
  8
Group003
 10
73.2
 20
-2.5
 30
0.0
  0
SEQEND
  8
Group003
  0
ARC
  8
Group003
 62
0
 10
73.2
 20
-2.799999999999997
 30
0.0
 40
0.3
 50
-0.0
 51
90.0
  0
ARC
  8
Group004
 62
0
 10
78.8
 20
-2.799999999999997
 30
0.0
 40
0.3
 50
90.0
 51
-180.0
  0
POLYLINE
  8
Group004
 62
0
 70
0
 66
1
 10
0.0
 20
0.0
 30
0.0
  0
VERTEX
  8
Group004
 10
92.2
 20
-16.5
 30
0.0
  0
VERTEX
  8
Group004
 10
78.8
 20
-16.5
 30
0.0
  0
SEQEND
  8
Group004
  0
POLYLINE
  8
Group004
 62
0
 70
0
 66
1
 10
0.0
 20
0.0
 30
0.0
  0
VERTEX
  8
Group004
 10
92.5
 20
-2.799999999999997
 30
0.0
  0
VERTEX
  8
Group004
 10
92.5
 20
-16.200000000000003
 30
0.0
  0
SEQEND
  8
Group004
  0
ARC
  8
Group004
 62
0
 10
92.19999999999999
 20
-16.200000000000003
 30
0.0
 40
0.3
 50
-90.0
 51
-0.0
  0
POLYLINE
  8
Group004
 62
0
 70
0
 66
1
 10
0.0
 20
0.0
 30
0.0
  0
VERTEX
  8
Group004
 10
78.5
 20
-16.200000000000003
 30
0.0
  0
VERTEX
  8
Group004
 10
78.5
 20
-2.799999999999997
 30
0.0
  0
SEQEND
  8
Group004
  0
ARC
  8
Group004
 62
0
 10
78.8
 20
-16.199999999999996
 30
0.0
 40
0.3
 50
-180.0
 51
-90.0
  0
POLYLINE
  8
Group004
 62
0
 70
0
 66
1
 10
0.0
 20
0.0
 30
0.0
  0
VERTEX
  8
Group004
 10
78.8
 20
-2.5
 30
0.0
  0
VERTEX
  8
Group004
 10
92.2
 20
-2.5
 30
0.0
  0
SEQEND
  8
Group004
  0
ARC
  8
Group004
 62
0
 10
92.2
 20
-2.799999999999997
 30
0.0
 40
0.3
 50
-0.0
 51
90.0
  0
ARC
  8
Group005
 62
0
 10
97.8
 20
-2.799999999999997
 30
0.0
 40
0.3
 50
90.0
 51
-180.0
  0
POLYLINE
  8
Group005
 62
0
 70
0
 66
1
 10
0.0
 20
0.0
 30
0.0
  0
VERTEX
  8
Group005
 10
111.2
 20
-16.5
 30
0.0
  0
VERTEX
  8
Group005
 10
97.8
 20
-16.5
 30
0.0
  0
SEQEND
  8
Group005
  0
ARC
  8
Group005
 62
0
 10
111.19999999999999
 20
-16.200000000000003
 30
0.0
 40
0.3
 50
-90.0
 51
-0.0
  0
POLYLINE
  8
Group005
 62
0
 70
0
 66
1
 10
0.0
 20
0.0
 30
0.0
  0
VERTEX
  8
Group005
 10
97.5
 20
-16.200000000000003
 30
0.0
  0
VERTEX
  8
Group005
 10
97.5
 20
-2.799999999999997
 30
0.0
  0
SEQEND
  8
Group005
  0
ARC
  8
Group005
 62
0
 10
97.8
 20
-16.199999999999996
 30
0.0
 40
0.3
 50
-180.0
 51
-90.0
  0
POLYLINE
  8
Group005
 62
0
 70
0
 66
1
 10
0.0
 20
0.0
 30
0.0
  0
VERTEX
  8
Group005
 10
97.8
 20
-2.5
 30
0.0
  0
VERTEX
  8
Group005
 10
111.2
 20
-2.5
 30
0.0
  0
SEQEND
  8
Group005
  0
ARC
  8
Group005
 62
0
 10
111.2
 20
-2.799999999999997
 30
0.0
 40
0.3
 50
-0.0
 51
90.0
  0
ARC
  8
Group006
 62
0
 10
116.8
 20
-2.799999999999997
 30
0.0
 40
0.3
 50
90.0
 51
-180.0
  0
POLYLINE
  8
Group006
 62
0
 70
0
 66
1
 10
0.0
 20
0.0
 30
0.0
  0
VERTEX
  8
Group006
 10
130.2
 20
-16.5
 30
0.0
  0
VERTEX
  8
Group006
 10
116.8
 20
-16.5
 30
0.0
  0
SEQEND
  8
Group006
  0
POLYLINE
  8
Group006
 62
0
 70
0
 66
1
 10
0.0
 20
0.0
 30
0.0
  0
VERTEX
  8
Group006
 10
130.5
 20
-2.799999999999997
 30
0.0
  0
VERTEX
  8
Group006
 10
130.5
 20
-16.200000000000003
 30
0.0
  0
SEQEND
  8
Group006
  0
ARC
  8
Group006
 62
0
 10
130.2
 20
-16.200000000000003
 30
0.0
 40
0.3
 50
-90.0
 51
-0.0
  0
ARC
  8
Group006
 62
0
 10
116.8
 20
-16.199999999999996
 30
0.0
 40
0.3
 50
-180.0
 51
-90.0
  0
POLYLINE
  8
Group006
 62
0
 70
0
 66
1
 10
0.0
 20
0.0
 30
0.0
  0
VERTEX
  8
Group006
 10
116.8
 20
-2.5
 30
0.0
  0
VERTEX
  8
Group006
 10
130.2
 20
-2.5
 30
0.0
  0
SEQEND
  8
Group006
  0
ARC
  8
Group006
 62
0
 10
130.2
 20
-2.799999999999997
 30
0.0
 40
0.3
 50
-0.0
 51
90.0
  0
ARC
  8
Group007
 62
0
 10
135.8
 20
-2.799999999999997
 30
0.0
 40
0.3
 50
90.0
 51
-180.0
  0
POLYLINE
  8
Group007
 62
0
 70
0
 66
1
 10
0.0
 20
0.0
 30
0.0
  0
VERTEX
  8
Group007
 10
149.2
 20
-16.5
 30
0.0
  0
VERTEX
  8
Group007
 10
135.8
 20
-16.5
 30
0.0
  0
SEQEND
  8
Group007
  0
POLYLINE
  8
Group007
 62
0
 70
0
 66
1
 10
0.0
 20
0.0
 30
0.0
  0
VERTEX
  8
Group007
 10
149.5
 20
-2.799999999999997
 30
0.0
  0
VERTEX
  8
Group007
 10
149.5
 20
-16.200000000000003
 30
0.0
  0
SEQEND
  8
Group007
  0
ARC
  8
Group007
 62
0
 10
149.2
 20
-16.200000000000003
 30
0.0
 40
0.3
 50
-90.0
 51
-0.0
  0
POLYLINE
  8
Group007
 62
0
 70
0
 66
1
 10
0.0
 20
0.0
 30
0.0
  0
VERTEX
  8
Group007
 10
135.5
 20
-16.200000000000003
 30
0.0
  0
VERTEX
  8
Group007
 10
135.5
 20
-2.799999999999997
 30
0.0
  0
SEQEND
  8
Group007
  0
ARC
  8
Group007
 62
0
 10
135.79999999999998
 20
-16.199999999999996
 30
0.0
 40
0.3
 50
-180.0
 51
-90.00000000000543
  0
POLYLINE
  8
Group007
 62
0
 70
0
 66
1
 10
0.0
 20
0.0
 30
0.0
  0
VERTEX
  8
Group007
 10
135.8
 20
-2.5
 30
0.0
  0
VERTEX
  8
Group007
 10
149.2
 20
-2.5
 30
0.0
  0
SEQEND
  8
Group007
  0
ARC
  8
Group007
 62
0
 10
149.2
 20
-2.799999999999997
 30
0.0
 40
0.3
 50
-0.0
 51
90.0
  0
ARC
  8
Group009
 62
0
 10
154.8
 20
-2.799999999999997
 30
0.0
 40
0.3
 50
90.0
 51
-180.0
  0
POLYLINE
  8
Group009
 62
0
 70
0
 66
1
 10
0.0
 20
0.0
 30
0.0
  0
VERTEX
  8
Group009
 10
168.2
 20
-16.5
 30
0.0
  0
VERTEX
  8
Group009
 10
154.8
 20
-16.5
 30
0.0
  0
SEQEND
  8
Group009
  0
POLYLINE
  8
Group009
 62
0
 70
0
 66
1
 10
0.0
 20
0.0
 30
0.0
  0
VERTEX
  8
Group009
 10
168.5
 20
-2.799999999999997
 30
0.0
  0
VERTEX
  8
Group009
 10
168.5
 20
-16.200000000000003
 30
0.0
  0
SEQEND
  8
Group009
  0
ARC
  8
Group009
 62
0
 10
168.2
 20
-16.200000000000003
 30
0.0
 40
0.3
 50
-90.0
 51
-0.0
  0
POLYLINE
  8
Group009
 62
0
 70
0
 66
1
 10
0.0
 20
0.0
 30
0.0
  0
VERTEX
  8
Group009
 10
154.5
 20
-16.200000000000003
 30
0.0
  0
VERTEX
  8
Group009
 10
154.5
 20
-2.799999999999997
 30
0.0
  0
SEQEND
  8
Group009
  0
ARC
  8
Group009
 62
0
 10
154.79999999999998
 20
-16.199999999999996
 30
0.0
 40
0.3
 50
-180.0
 51
-90.00000000000543
  0
POLYLINE
  8
Group009
 62
0
 70
0
 66
1
 10
0.0
 20
0.0
 30
0.0
  0
VERTEX
  8
Group009
 10
154.8
 20
-2.5
 30
0.0
  0
VERTEX
  8
Group009
 10
168.2
 20
-2.5
 30
0.0
  0
SEQEND
  8
Group009
  0
ARC
  8
Group009
 62
0
 10
168.2
 20
-2.799999999999997
 30
0.0
 40
0.3
 50
-0.0
 51
90.0
  0
ARC
  8
Group010
 62
0
 10
173.8
 20
-2.799999999999997
 30
0.0
 40
0.3
 50
90.0
 51
-180.0
  0
POLYLINE
  8
Group010
 62
0
 70
0
 66
1
 10
0.0
 20
0.0
 30
0.0
  0
VERTEX
  8
Group010
 10
187.2
 20
-16.5
 30
0.0
  0
VERTEX
  8
Group010
 10
173.8
 20
-16.5
 30
0.0
  0
SEQEND
  8
Group010
  0
POLYLINE
  8
Group010
 62
0
 70
0
 66
1
 10
0.0
 20
0.0
 30
0.0
  0
VERTEX
  8
Group010
 10
187.5
 20
-2.799999999999997
 30
0.0
  0
VERTEX
  8
Group010
 10
187.5
 20
-16.200000000000003
 30
0.0
  0
SEQEND
  8
Group010
  0
ARC
  8
Group010
 62
0
 10
187.2
 20
-16.200000000000003
 30
0.0
 40
0.3
 50
-90.0
 51
-0.0
  0
POLYLINE
  8
Group010
 62
0
 70
0
 66
1
 10
0.0
 20
0.0
 30
0.0
  0
VERTEX
  8
Group010
 10
173.5
 20
-16.200000000000003
 30
0.0
  0
VERTEX
  8
Group010
 10
173.5
 20
-2.799999999999997
 30
0.0
  0
SEQEND
  8
Group010
  0
ARC
  8
Group010
 62
0
 10
173.79999999999998
 20
-16.199999999999996
 30
0.0
 40
0.3
 50
-180.0
 51
-90.00000000000543
  0
POLYLINE
  8
Group010
 62
0
 70
0
 66
1
 10
0.0
 20
0.0
 30
0.0
  0
VERTEX
  8
Group010
 10
173.8
 20
-2.5
 30
0.0
  0
VERTEX
  8
Group010
 10
187.2
 20
-2.5
 30
0.0
  0
SEQEND
  8
Group010
  0
ARC
  8
Group010
 62
0
 10
187.2
 20
-2.799999999999997
 30
0.0
 40
0.3
 50
-0.0
 51
90.0
  0
ARC
  8
Group011
 62
0
 10
192.8
 20
-2.799999999999997
 30
0.0
 40
0.3
 50
90.0
 51
-180.0
  0
POLYLINE
  8
Group011
 62
0
 70
0
 66
1
 10
0.0
 20
0.0
 30
0.0
  0
VERTEX
  8
Group011
 10
206.2
 20
-16.5
 30
0.0
  0
VERTEX
  8
Group011
 10
192.8
 20
-16.5
 30
0.0
  0
SEQEND
  8
Group011
  0
ARC
  8
Group011
 62
0
 10
206.2
 20
-16.200000000000003
 30
0.0
 40
0.3
 50
-90.0
 51
-0.0
  0
POLYLINE
  8
Group011
 62
0
 70
0
 66
1
 10
0.0
 20
0.0
 30
0.0
  0
VERTEX
  8
Group011
 10
192.5
 20
-16.200000000000003
 30
0.0
  0
VERTEX
  8
Group011
 10
192.5
 20
-2.799999999999997
 30
0.0
  0
SEQEND
  8
Group011
  0
ARC
  8
Group011
 62
0
 10
192.79999999999998
 20
-16.199999999999996
 30
0.0
 40
0.3
 50
-180.0
 51
-90.00000000000543
  0
POLYLINE
  8
Group011
 62
0
 70
0
 66
1
 10
0.0
 20
0.0
 30
0.0
  0
VERTEX
  8
Group011
 10
192.8
 20
-2.5
 30
0.0
  0
VERTEX
  8
Group011
 10
206.2
 20
-2.5
 30
0.0
  0
SEQEND
  8
Group011
  0
ARC
  8
Group011
 62
0
 10
206.2
 20
-2.799999999999997
 30
0.0
 40
0.3
 50
-0.0
 51
90.0
  0
ARC
  8
Group055
 62
0
 10
211.8
 20
-2.799999999999997
 30
0.0
 40
0.3
 50
90.0
 51
-180.0
  0
ARC
  8
Group055
 62
0
 10
211.79999999999998
 20
-16.199999999999996
 30
0.0
 40
0.3
 50
-180.0
 51
-90.00000000000543
  0
POLYLINE
  8
Group055
 62
0
 70
0
 66
1
 10
0.0
 20
0.0
 30
0.0
  0
VERTEX
  8
Group055
 10
244.5
 20
-2.799999999999997
 30
0.0
  0
VERTEX
  8
Group055
 10
244.5
 20
-16.200000000000003
 30
0.0
  0
SEQEND
  8
Group055
  0
ARC
  8
Group055
 62
0
 10
244.2
 20
-16.200000000000003
 30
0.0
 40
0.3
 50
-90.0
 51
-0.0
  0
ARC
  8
Group055
 62
0
 10
244.2
 20
-2.799999999999997
 30
0.0
 40
0.3
 50
-0.0
 51
90.0
  0
POLYLINE
  8
Group055
 62
0
 70
0
 66
1
 10
0.0
 20
0.0
 30
0.0
  0
VERTEX
  8
Group055
 10
211.8
 20
-2.5
 30
0.0
  0
VERTEX
  8
Group055
 10
244.2
 20
-2.5
 30
0.0
  0
SEQEND
  8
Group055
  0
POLYLINE
  8
Group055
 62
0
 70
0
 66
1
 10
0.0
 20
0.0
 30
0.0
  0
VERTEX
  8
Group055
 10
211.8
 20
-16.5
 30
0.0
  0
VERTEX
  8
Group055
 10
212.6
 20
-16.5
 30
0.0
  0
SEQEND
  8
Group055
  0
POLYLINE
  8
Group055
 62
0
 70
0
 66
1
 10
0.0
 20
0.0
 30
0.0
  0
VERTEX
  8
Group055
 10
219.6
 20
-16.5
 30
0.0
  0
VERTEX
  8
Group055
 10
236.4
 20
-16.5
 30
0.0
  0
SEQEND
  8
Group055
  0
POLYLINE
  8
Group055
 62
0
 70
0
 66
1
 10
0.0
 20
0.0
 30
0.0
  0
VERTEX
  8
Group055
 10
243.4
 20
-16.5
 30
0.0
  0
VERTEX
  8
Group055
 10
244.2
 20
-16.5
 30
0.0
  0
SEQEND
  8
Group055
  0
POLYLINE
  8
Group069
 62
0
 70
0
 66
1
 10
0.0
 20
0.0
 30
0.0
  0
VERTEX
  8
Group069
 10
237.4
 20
-18.0
 30
0.0
  0
VERTEX
  8
Group069
 10
242.4
 20
-18.0
 30
0.0
  0
SEQEND
  8
Group069
  0
ARC
  8
Group069
 62
0
 10
237.4
 20
-17.0
 30
0.0
 40
1.0
 50
-180.0
 51
-90.0
  0
ARC
  8
Group069
 62
0
 10
242.4
 20
-17.0
 30
0.0
 40
1.0
 50
-90.0
 51
-0.0
  0
POLYLINE
  8
Group069
 62
0
 70
0
 66
1
 10
0.0
 20
0.0
 30
0.0
  0
VERTEX
  8
Group069
 10
236.4
 20
-16.5
 30
0.0
  0
VERTEX
  8
Group069
 10
236.4
 20
-17.0
 30
0.0
  0
SEQEND
  8
Group069
  0
POLYLINE
  8
Group069
 62
0
 70
0
 66
1
 10
0.0
 20
0.0
 30
0.0
  0
VERTEX
  8
Group069
 10
243.4
 20
-17.0
 30
0.0
  0
VERTEX
  8
Group069
 10
243.4
 20
-16.5
 30
0.0
  0
SEQEND
  8
Group069
  0
POLYLINE
  8
Group070
 62
0
 70
0
 66
1
 10
0.0
 20
0.0
 30
0.0
  0
VERTEX
  8
Group070
 10
212.6
 20
-17.0
 30
0.0
  0
VERTEX
  8
Group070
 10
212.6
 20
-16.5
 30
0.0
  0
SEQEND
  8
Group070
  0
ARC
  8
Group070
 62
0
 10
213.6
 20
-17.0
 30
0.0
 40
1.0
 50
-180.0
 51
-90.0
  0
POLYLINE
  8
Group070
 62
0
 70
0
 66
1
 10
0.0
 20
0.0
 30
0.0
  0
VERTEX
  8
Group070
 10
213.6
 20
-18.0
 30
0.0
  0
VERTEX
  8
Group070
 10
218.6
 20
-18.0
 30
0.0
  0
SEQEND
  8
Group070
  0
ARC
  8
Group070
 62
0
 10
218.6
 20
-17.0
 30
0.0
 40
1.0
 50
-90.0
 51
-0.0
  0
POLYLINE
  8
Group070
 62
0
 70
0
 66
1
 10
0.0
 20
0.0
 30
0.0
  0
VERTEX
  8
Group070
 10
219.6
 20
-17.0
 30
0.0
  0
VERTEX
  8
Group070
 10
219.6
 20
-16.5
 30
0.0
  0
SEQEND
  8
Group070
  0
ARC
  8
Border
 62
0
 10
2.5
 20
-2.5
 30
0.0
 40
2.0
 50
90.0
 51
-180.0
  0
ARC
  8
Border
 62
0
 10
244.5
 20
-73.50000000000001
 30
0.0
 40
2.0
 50
-90.0
 51
-0.0
  0
ARC
  8
Border
 62
0
 10
244.5
 20
-2.5
 30
0.0
 40
2.0
 50
0.0
 51
90.0
  0
ARC
  8
Border
 62
0
 10
2.499999999999993
 20
-73.5
 30
0.0
 40
2.0
 50
-180.0
 51
-90.00000000000004
  0
ARC
  8
Group016
 62
0
 10
5.175
 20
-21.799999999999997
 30
0.0
 40
0.3
 50
90.0
 51
-180.0
  0
ARC
  8
Group016
 62
0
 10
18.575
 20
-21.799999999999997
 30
0.0
 40
0.3
 50
-0.0
 51
90.0
  0
ARC
  8
Group016
 62
0
 10
18.574999999999996
 20
-35.2
 30
0.0
 40
0.3
 50
-90.0
 51
-0.0
  0
ARC
  8
Group016
 62
0
 10
5.174999999999994
 20
-35.199999999999996
 30
0.0
 40
0.3
 50
-180.0
 51
-90.0
  0
POLYLINE
  8
Group016
 62
0
 70
0
 66
1
 10
0.0
 20
0.0
 30
0.0
  0
VERTEX
  8
Group016
 10
5.175
 20
-21.5
 30
0.0
  0
VERTEX
  8
Group016
 10
18.575
 20
-21.5
 30
0.0
  0
SEQEND
  8
Group016
  0
POLYLINE
  8
Group016
 62
0
 70
0
 66
1
 10
0.0
 20
0.0
 30
0.0
  0
VERTEX
  8
Group016
 10
18.875
 20
-21.799999999999997
 30
0.0
  0
VERTEX
  8
Group016
 10
18.875
 20
-35.2
 30
0.0
  0
SEQEND
  8
Group016
  0
POLYLINE
  8
Group016
 62
0
 70
0
 66
1
 10
0.0
 20
0.0
 30
0.0
  0
VERTEX
  8
Group016
 10
18.575
 20
-35.5
 30
0.0
  0
VERTEX
  8
Group016
 10
5.175000000000001
 20
-35.5
 30
0.0
  0
SEQEND
  8
Group016
  0
POLYLINE
  8
Group016
 62
0
 70
0
 66
1
 10
0.0
 20
0.0
 30
0.0
  0
VERTEX
  8
Group016
 10
4.875
 20
-35.2
 30
0.0
  0
VERTEX
  8
Group016
 10
4.875
 20
-21.799999999999997
 30
0.0
  0
SEQEND
  8
Group016
  0
ARC
  8
Group022
 62
0
 10
178.55
 20
-21.799999999999997
 30
0.0
 40
0.3
 50
90.0
 51
-180.0
  0
ARC
  8
Group022
 62
0
 10
191.95
 20
-21.799999999999997
 30
0.0
 40
0.3
 50
-0.0
 51
90.0
  0
ARC
  8
Group022
 62
0
 10
191.95
 20
-35.2
 30
0.0
 40
0.3
 50
-90.0
 51
-0.0
  0
ARC
  8
Group022
 62
0
 10
178.54999999999998
 20
-35.199999999999996
 30
0.0
 40
0.3
 50
180.0
 51
-90.0
  0
POLYLINE
  8
Group022
 62
0
 70
0
 66
1
 10
0.0
 20
0.0
 30
0.0
  0
VERTEX
  8
Group022
 10
178.55
 20
-21.5
 30
0.0
  0
VERTEX
  8
Group022
 10
191.95
 20
-21.5
 30
0.0
  0
SEQEND
  8
Group022
  0
POLYLINE
  8
Group022
 62
0
 70
0
 66
1
 10
0.0
 20
0.0
 30
0.0
  0
VERTEX
  8
Group022
 10
192.25
 20
-21.799999999999997
 30
0.0
  0
VERTEX
  8
Group022
 10
192.25
 20
-35.2
 30
0.0
  0
SEQEND
  8
Group022
  0
POLYLINE
  8
Group022
 62
0
 70
0
 66
1
 10
0.0
 20
0.0
 30
0.0
  0
VERTEX
  8
Group022
 10
191.95
 20
-35.5
 30
0.0
  0
VERTEX
  8
Group022
 10
178.55
 20
-35.5
 30
0.0
  0
SEQEND
  8
Group022
  0
POLYLINE
  8
Group022
 62
0
 70
0
 66
1
 10
0.0
 20
0.0
 30
0.0
  0
VERTEX
  8
Group022
 10
178.25
 20
-35.2
 30
0.0
  0
VERTEX
  8
Group022
 10
178.25
 20
-21.799999999999997
 30
0.0
  0
SEQEND
  8
Group022
  0
ARC
  8
Group023
 62
0
 10
197.55
 20
-21.799999999999997
 30
0.0
 40
0.3
 50
90.0
 51
-180.0
  0
ARC
  8
Group023
 62
0
 10
210.95
 20
-21.799999999999997
 30
0.0
 40
0.3
 50
-0.0
 51
90.0
  0
ARC
  8
Group023
 62
0
 10
210.95
 20
-35.2
 30
0.0
 40
0.3
 50
-90.0
 51
-0.0
  0
ARC
  8
Group023
 62
0
 10
197.54999999999998
 20
-35.199999999999996
 30
0.0
 40
0.3
 50
-180.0
 51
-90.0
  0
POLYLINE
  8
Group023
 62
0
 70
0
 66
1
 10
0.0
 20
0.0
 30
0.0
  0
VERTEX
  8
Group023
 10
197.55
 20
-21.5
 30
0.0
  0
VERTEX
  8
Group023
 10
210.95
 20
-21.5
 30
0.0
  0
SEQEND
  8
Group023
  0
POLYLINE
  8
Group023
 62
0
 70
0
 66
1
 10
0.0
 20
0.0
 30
0.0
  0
VERTEX
  8
Group023
 10
211.25
 20
-21.799999999999997
 30
0.0
  0
VERTEX
  8
Group023
 10
211.25
 20
-35.2
 30
0.0
  0
SEQEND
  8
Group023
  0
POLYLINE
  8
Group023
 62
0
 70
0
 66
1
 10
0.0
 20
0.0
 30
0.0
  0
VERTEX
  8
Group023
 10
210.95
 20
-35.5
 30
0.0
  0
VERTEX
  8
Group023
 10
197.55
 20
-35.5
 30
0.0
  0
SEQEND
  8
Group023
  0
POLYLINE
  8
Group023
 62
0
 70
0
 66
1
 10
0.0
 20
0.0
 30
0.0
  0
VERTEX
  8
Group023
 10
197.25
 20
-35.2
 30
0.0
  0
VERTEX
  8
Group023
 10
197.25
 20
-21.799999999999997
 30
0.0
  0
SEQEND
  8
Group023
  0
ARC
  8
Group021
 62
0
 10
45.55
 20
-21.799999999999997
 30
0.0
 40
0.3
 50
90.0
 51
-180.0
  0
ARC
  8
Group021
 62
0
 10
58.95
 20
-21.799999999999997
 30
0.0
 40
0.3
 50
-0.0
 51
90.0
  0
ARC
  8
Group021
 62
0
 10
58.949999999999996
 20
-35.2
 30
0.0
 40
0.3
 50
-90.0
 51
-0.0
  0
ARC
  8
Group021
 62
0
 10
45.55
 20
-35.199999999999996
 30
0.0
 40
0.3
 50
-180.0
 51
-90.0
  0
POLYLINE
  8
Group021
 62
0
 70
0
 66
1
 10
0.0
 20
0.0
 30
0.0
  0
VERTEX
  8
Group021
 10
45.55
 20
-21.5
 30
0.0
  0
VERTEX
  8
Group021
 10
58.95
 20
-21.5
 30
0.0
  0
SEQEND
  8
Group021
  0
POLYLINE
  8
Group021
 62
0
 70
0
 66
1
 10
0.0
 20
0.0
 30
0.0
  0
VERTEX
  8
Group021
 10
59.25
 20
-21.799999999999997
 30
0.0
  0
VERTEX
  8
Group021
 10
59.25
 20
-35.2
 30
0.0
  0
SEQEND
  8
Group021
  0
POLYLINE
  8
Group021
 62
0
 70
0
 66
1
 10
0.0
 20
0.0
 30
0.0
  0
VERTEX
  8
Group021
 10
58.95
 20
-35.5
 30
0.0
  0
VERTEX
  8
Group021
 10
45.55
 20
-35.5
 30
0.0
  0
SEQEND
  8
Group021
  0
POLYLINE
  8
Group021
 62
0
 70
0
 66
1
 10
0.0
 20
0.0
 30
0.0
  0
VERTEX
  8
Group021
 10
45.25
 20
-35.2
 30
0.0
  0
VERTEX
  8
Group021
 10
45.25
 20
-21.799999999999997
 30
0.0
  0
SEQEND
  8
Group021
  0
ARC
  8
Group017
 62
0
 10
83.55
 20
-21.799999999999997
 30
0.0
 40
0.3
 50
90.0
 51
-180.0
  0
ARC
  8
Group017
 62
0
 10
96.95
 20
-21.799999999999997
 30
0.0
 40
0.3
 50
-0.0
 51
90.0
  0
ARC
  8
Group017
 62
0
 10
96.94999999999999
 20
-35.2
 30
0.0
 40
0.3
 50
-90.0
 51
-0.0
  0
ARC
  8
Group017
 62
0
 10
83.55
 20
-35.199999999999996
 30
0.0
 40
0.3
 50
-180.0
 51
-89.99999999999729
  0
POLYLINE
  8
Group017
 62
0
 70
0
 66
1
 10
0.0
 20
0.0
 30
0.0
  0
VERTEX
  8
Group017
 10
83.55
 20
-21.5
 30
0.0
  0
VERTEX
  8
Group017
 10
96.95
 20
-21.5
 30
0.0
  0
SEQEND
  8
Group017
  0
POLYLINE
  8
Group017
 62
0
 70
0
 66
1
 10
0.0
 20
0.0
 30
0.0
  0
VERTEX
  8
Group017
 10
97.25
 20
-21.799999999999997
 30
0.0
  0
VERTEX
  8
Group017
 10
97.25
 20
-35.2
 30
0.0
  0
SEQEND
  8
Group017
  0
POLYLINE
  8
Group017
 62
0
 70
0
 66
1
 10
0.0
 20
0.0
 30
0.0
  0
VERTEX
  8
Group017
 10
96.95
 20
-35.5
 30
0.0
  0
VERTEX
  8
Group017
 10
83.55
 20
-35.5
 30
0.0
  0
SEQEND
  8
Group017
  0
POLYLINE
  8
Group017
 62
0
 70
0
 66
1
 10
0.0
 20
0.0
 30
0.0
  0
VERTEX
  8
Group017
 10
83.25
 20
-35.2
 30
0.0
  0
VERTEX
  8
Group017
 10
83.25
 20
-21.799999999999997
 30
0.0
  0
SEQEND
  8
Group017
  0
ARC
  8
Group018
 62
0
 10
121.55
 20
-21.799999999999997
 30
0.0
 40
0.3
 50
90.0
 51
-180.0
  0
ARC
  8
Group018
 62
0
 10
134.95
 20
-21.799999999999997
 30
0.0
 40
0.3
 50
-0.0
 51
90.0
  0
ARC
  8
Group018
 62
0
 10
134.95
 20
-35.2
 30
0.0
 40
0.3
 50
-90.0
 51
-0.0
  0
ARC
  8
Group018
 62
0
 10
121.55
 20
-35.199999999999996
 30
0.0
 40
0.3
 50
-180.0
 51
-89.99999999999729
  0
POLYLINE
  8
Group018
 62
0
 70
0
 66
1
 10
0.0
 20
0.0
 30
0.0
  0
VERTEX
  8
Group018
 10
121.55
 20
-21.5
 30
0.0
  0
VERTEX
  8
Group018
 10
134.95
 20
-21.5
 30
0.0
  0
SEQEND
  8
Group018
  0
POLYLINE
  8
Group018
 62
0
 70
0
 66
1
 10
0.0
 20
0.0
 30
0.0
  0
VERTEX
  8
Group018
 10
135.25
 20
-21.799999999999997
 30
0.0
  0
VERTEX
  8
Group018
 10
135.25
 20
-35.2
 30
0.0
  0
SEQEND
  8
Group018
  0
POLYLINE
  8
Group018
 62
0
 70
0
 66
1
 10
0.0
 20
0.0
 30
0.0
  0
VERTEX
  8
Group018
 10
134.95
 20
-35.5
 30
0.0
  0
VERTEX
  8
Group018
 10
121.55
 20
-35.5
 30
0.0
  0
SEQEND
  8
Group018
  0
POLYLINE
  8
Group018
 62
0
 70
0
 66
1
 10
0.0
 20
0.0
 30
0.0
  0
VERTEX
  8
Group018
 10
121.25
 20
-35.2
 30
0.0
  0
VERTEX
  8
Group018
 10
121.25
 20
-21.799999999999997
 30
0.0
  0
SEQEND
  8
Group018
  0
ARC
  8
Group019
 62
0
 10
140.55
 20
-21.799999999999997
 30
0.0
 40
0.3
 50
90.0
 51
-180.0
  0
ARC
  8
Group019
 62
0
 10
153.95
 20
-21.799999999999997
 30
0.0
 40
0.3
 50
-0.0
 51
90.0
  0
ARC
  8
Group019
 62
0
 10
153.95
 20
-35.2
 30
0.0
 40
0.3
 50
-90.0
 51
-0.0
  0
ARC
  8
Group019
 62
0
 10
140.55
 20
-35.199999999999996
 30
0.0
 40
0.3
 50
-180.0
 51
-90.0
  0
POLYLINE
  8
Group019
 62
0
 70
0
 66
1
 10
0.0
 20
0.0
 30
0.0
  0
VERTEX
  8
Group019
 10
140.55
 20
-21.5
 30
0.0
  0
VERTEX
  8
Group019
 10
153.95
 20
-21.5
 30
0.0
  0
SEQEND
  8
Group019
  0
POLYLINE
  8
Group019
 62
0
 70
0
 66
1
 10
0.0
 20
0.0
 30
0.0
  0
VERTEX
  8
Group019
 10
154.25
 20
-21.799999999999997
 30
0.0
  0
VERTEX
  8
Group019
 10
154.25
 20
-35.2
 30
0.0
  0
SEQEND
  8
Group019
  0
POLYLINE
  8
Group019
 62
0
 70
0
 66
1
 10
0.0
 20
0.0
 30
0.0
  0
VERTEX
  8
Group019
 10
153.95
 20
-35.5
 30
0.0
  0
VERTEX
  8
Group019
 10
140.55
 20
-35.5
 30
0.0
  0
SEQEND
  8
Group019
  0
POLYLINE
  8
Group019
 62
0
 70
0
 66
1
 10
0.0
 20
0.0
 30
0.0
  0
VERTEX
  8
Group019
 10
140.25
 20
-35.2
 30
0.0
  0
VERTEX
  8
Group019
 10
140.25
 20
-21.799999999999997
 30
0.0
  0
SEQEND
  8
Group019
  0
ARC
  8
Group020
 62
0
 10
159.55
 20
-21.799999999999997
 30
0.0
 40
0.3
 50
90.0
 51
-180.0
  0
ARC
  8
Group020
 62
0
 10
172.95
 20
-21.799999999999997
 30
0.0
 40
0.3
 50
-0.0
 51
90.0
  0
ARC
  8
Group020
 62
0
 10
172.95
 20
-35.2
 30
0.0
 40
0.3
 50
-90.0
 51
-0.0
  0
ARC
  8
Group020
 62
0
 10
159.54999999999998
 20
-35.199999999999996
 30
0.0
 40
0.3
 50
-180.0
 51
-90.0
  0
POLYLINE
  8
Group020
 62
0
 70
0
 66
1
 10
0.0
 20
0.0
 30
0.0
  0
VERTEX
  8
Group020
 10
159.55
 20
-21.5
 30
0.0
  0
VERTEX
  8
Group020
 10
172.95
 20
-21.5
 30
0.0
  0
SEQEND
  8
Group020
  0
POLYLINE
  8
Group020
 62
0
 70
0
 66
1
 10
0.0
 20
0.0
 30
0.0
  0
VERTEX
  8
Group020
 10
173.25
 20
-21.799999999999997
 30
0.0
  0
VERTEX
  8
Group020
 10
173.25
 20
-35.2
 30
0.0
  0
SEQEND
  8
Group020
  0
POLYLINE
  8
Group020
 62
0
 70
0
 66
1
 10
0.0
 20
0.0
 30
0.0
  0
VERTEX
  8
Group020
 10
172.95
 20
-35.5
 30
0.0
  0
VERTEX
  8
Group020
 10
159.55
 20
-35.5
 30
0.0
  0
SEQEND
  8
Group020
  0
POLYLINE
  8
Group020
 62
0
 70
0
 66
1
 10
0.0
 20
0.0
 30
0.0
  0
VERTEX
  8
Group020
 10
159.25
 20
-35.2
 30
0.0
  0
VERTEX
  8
Group020
 10
159.25
 20
-21.799999999999997
 30
0.0
  0
SEQEND
  8
Group020
  0
ARC
  8
Group024
 62
0
 10
26.55
 20
-21.799999999999997
 30
0.0
 40
0.3
 50
90.0
 51
-180.0
  0
ARC
  8
Group024
 62
0
 10
39.95
 20
-21.799999999999997
 30
0.0
 40
0.3
 50
0.0
 51
90.0
  0
ARC
  8
Group024
 62
0
 10
39.949999999999996
 20
-35.2
 30
0.0
 40
0.3
 50
-90.0
 51
-0.0
  0
ARC
  8
Group024
 62
0
 10
26.549999999999994
 20
-35.199999999999996
 30
0.0
 40
0.3
 50
-180.0
 51
-90.0
  0
POLYLINE
  8
Group024
 62
0
 70
0
 66
1
 10
0.0
 20
0.0
 30
0.0
  0
VERTEX
  8
Group024
 10
26.55
 20
-21.5
 30
0.0
  0
VERTEX
  8
Group024
 10
39.95
 20
-21.5
 30
0.0
  0
SEQEND
  8
Group024
  0
POLYLINE
  8
Group024
 62
0
 70
0
 66
1
 10
0.0
 20
0.0
 30
0.0
  0
VERTEX
  8
Group024
 10
40.25
 20
-21.799999999999997
 30
0.0
  0
VERTEX
  8
Group024
 10
40.25
 20
-35.2
 30
0.0
  0
SEQEND
  8
Group024
  0
POLYLINE
  8
Group024
 62
0
 70
0
 66
1
 10
0.0
 20
0.0
 30
0.0
  0
VERTEX
  8
Group024
 10
39.95
 20
-35.5
 30
0.0
  0
VERTEX
  8
Group024
 10
26.55
 20
-35.5
 30
0.0
  0
SEQEND
  8
Group024
  0
POLYLINE
  8
Group024
 62
0
 70
0
 66
1
 10
0.0
 20
0.0
 30
0.0
  0
VERTEX
  8
Group024
 10
26.25
 20
-35.2
 30
0.0
  0
VERTEX
  8
Group024
 10
26.25
 20
-21.799999999999997
 30
0.0
  0
SEQEND
  8
Group024
  0
ARC
  8
Group026
 62
0
 10
64.55
 20
-21.799999999999997
 30
0.0
 40
0.3
 50
90.0
 51
-180.0
  0
ARC
  8
Group026
 62
0
 10
77.95
 20
-21.799999999999997
 30
0.0
 40
0.3
 50
-0.0
 51
90.0
  0
ARC
  8
Group026
 62
0
 10
77.94999999999999
 20
-35.2
 30
0.0
 40
0.3
 50
-90.0
 51
-0.0
  0
ARC
  8
Group026
 62
0
 10
64.55
 20
-35.199999999999996
 30
0.0
 40
0.3
 50
-180.0
 51
-89.99999999999729
  0
POLYLINE
  8
Group026
 62
0
 70
0
 66
1
 10
0.0
 20
0.0
 30
0.0
  0
VERTEX
  8
Group026
 10
64.55
 20
-21.5
 30
0.0
  0
VERTEX
  8
Group026
 10
77.95
 20
-21.5
 30
0.0
  0
SEQEND
  8
Group026
  0
POLYLINE
  8
Group026
 62
0
 70
0
 66
1
 10
0.0
 20
0.0
 30
0.0
  0
VERTEX
  8
Group026
 10
78.25
 20
-21.799999999999997
 30
0.0
  0
VERTEX
  8
Group026
 10
78.25
 20
-35.2
 30
0.0
  0
SEQEND
  8
Group026
  0
POLYLINE
  8
Group026
 62
0
 70
0
 66
1
 10
0.0
 20
0.0
 30
0.0
  0
VERTEX
  8
Group026
 10
77.95
 20
-35.5
 30
0.0
  0
VERTEX
  8
Group026
 10
64.55
 20
-35.5
 30
0.0
  0
SEQEND
  8
Group026
  0
POLYLINE
  8
Group026
 62
0
 70
0
 66
1
 10
0.0
 20
0.0
 30
0.0
  0
VERTEX
  8
Group026
 10
64.25
 20
-35.2
 30
0.0
  0
VERTEX
  8
Group026
 10
64.25
 20
-21.799999999999997
 30
0.0
  0
SEQEND
  8
Group026
  0
ARC
  8
Group027
 62
0
 10
102.55
 20
-21.799999999999997
 30
0.0
 40
0.3
 50
90.0
 51
-180.0
  0
ARC
  8
Group027
 62
0
 10
115.95
 20
-21.799999999999997
 30
0.0
 40
0.3
 50
-0.0
 51
90.0
  0
ARC
  8
Group027
 62
0
 10
115.94999999999999
 20
-35.2
 30
0.0
 40
0.3
 50
-90.0
 51
-0.0
  0
ARC
  8
Group027
 62
0
 10
102.55
 20
-35.199999999999996
 30
0.0
 40
0.3
 50
-180.0
 51
-89.99999999999729
  0
POLYLINE
  8
Group027
 62
0
 70
0
 66
1
 10
0.0
 20
0.0
 30
0.0
  0
VERTEX
  8
Group027
 10
102.55
 20
-21.5
 30
0.0
  0
VERTEX
  8
Group027
 10
115.95
 20
-21.5
 30
0.0
  0
SEQEND
  8
Group027
  0
POLYLINE
  8
Group027
 62
0
 70
0
 66
1
 10
0.0
 20
0.0
 30
0.0
  0
VERTEX
  8
Group027
 10
116.25
 20
-21.799999999999997
 30
0.0
  0
VERTEX
  8
Group027
 10
116.25
 20
-35.2
 30
0.0
  0
SEQEND
  8
Group027
  0
POLYLINE
  8
Group027
 62
0
 70
0
 66
1
 10
0.0
 20
0.0
 30
0.0
  0
VERTEX
  8
Group027
 10
115.95
 20
-35.5
 30
0.0
  0
VERTEX
  8
Group027
 10
102.55
 20
-35.5
 30
0.0
  0
SEQEND
  8
Group027
  0
POLYLINE
  8
Group027
 62
0
 70
0
 66
1
 10
0.0
 20
0.0
 30
0.0
  0
VERTEX
  8
Group027
 10
102.25
 20
-35.2
 30
0.0
  0
VERTEX
  8
Group027
 10
102.25
 20
-21.799999999999997
 30
0.0
  0
SEQEND
  8
Group027
  0
ARC
  8
Group028
 62
0
 10
223.675
 20
-21.799999999999997
 30
0.0
 40
0.3
 50
90.0
 51
-180.0
  0
ARC
  8
Group028
 62
0
 10
237.075
 20
-21.799999999999997
 30
0.0
 40
0.3
 50
-0.0
 51
90.0
  0
ARC
  8
Group028
 62
0
 10
237.075
 20
-35.2
 30
0.0
 40
0.3
 50
-90.0
 51
-0.0
  0
ARC
  8
Group028
 62
0
 10
223.67499999999998
 20
-35.199999999999996
 30
0.0
 40
0.3
 50
-180.0
 51
-90.0
  0
POLYLINE
  8
Group028
 62
0
 70
0
 66
1
 10
0.0
 20
0.0
 30
0.0
  0
VERTEX
  8
Group028
 10
223.675
 20
-21.5
 30
0.0
  0
VERTEX
  8
Group028
 10
237.075
 20
-21.5
 30
0.0
  0
SEQEND
  8
Group028
  0
POLYLINE
  8
Group028
 62
0
 70
0
 66
1
 10
0.0
 20
0.0
 30
0.0
  0
VERTEX
  8
Group028
 10
237.375
 20
-21.799999999999997
 30
0.0
  0
VERTEX
  8
Group028
 10
237.375
 20
-35.2
 30
0.0
  0
SEQEND
  8
Group028
  0
POLYLINE
  8
Group028
 62
0
 70
0
 66
1
 10
0.0
 20
0.0
 30
0.0
  0
VERTEX
  8
Group028
 10
237.075
 20
-35.5
 30
0.0
  0
VERTEX
  8
Group028
 10
223.675
 20
-35.5
 30
0.0
  0
SEQEND
  8
Group028
  0
POLYLINE
  8
Group028
 62
0
 70
0
 66
1
 10
0.0
 20
0.0
 30
0.0
  0
VERTEX
  8
Group028
 10
223.375
 20
-35.2
 30
0.0
  0
VERTEX
  8
Group028
 10
223.375
 20
-21.799999999999997
 30
0.0
  0
SEQEND
  8
Group028
  0
POLYLINE
  8
Group040
 62
0
 70
0
 66
1
 10
0.0
 20
0.0
 30
0.0
  0
VERTEX
  8
Group040
 10
144.45000000000002
 20
-54.50000000000001
 30
0.0
  0
VERTEX
  8
Group040
 10
131.05
 20
-54.50000000000001
 30
0.0
  0
SEQEND
  8
Group040
  0
ARC
  8
Group040
 62
0
 10
131.05
 20
-54.2
 30
0.0
 40
0.3
 50
-180.0
 51
-90.0
  0
ARC
  8
Group040
 62
0
 10
144.45
 20
-54.2
 30
0.0
 40
0.3
 50
-90.0
 51
-0.0
  0
POLYLINE
  8
Group033
 62
0
 70
0
 66
1
 10
0.0
 20
0.0
 30
0.0
  0
VERTEX
  8
Group033
 10
163.45000000000002
 20
-54.50000000000001
 30
0.0
  0
VERTEX
  8
Group033
 10
150.05
 20
-54.500000000000014
 30
0.0
  0
SEQEND
  8
Group033
  0
POLYLINE
  8
Group029
 62
0
 70
0
 66
1
 10
0.0
 20
0.0
 30
0.0
  0
VERTEX
  8
Group029
 10
68.74999999999999
 20
-40.799999999999976
 30
0.0
  0
VERTEX
  8
Group029
 10
68.74999999999999
 20
-54.199999999999996
 30
0.0
  0
SEQEND
  8
Group029
  0
ARC
  8
Group029
 62
0
 10
68.45000000000002
 20
-40.8
 30
0.0
 40
0.3
 50
-0.0
 51
90.0
  0
POLYLINE
  8
Group030
 62
0
 70
0
 66
1
 10
0.0
 20
0.0
 30
0.0
  0
VERTEX
  8
Group030
 10
36.050000000000004
 20
-40.499999999999986
 30
0.0
  0
VERTEX
  8
Group030
 10
49.44999999999997
 20
-40.50000000000001
 30
0.0
  0
SEQEND
  8
Group030
  0
ARC
  8
Group029
 62
0
 10
68.44999999999999
 20
-54.199999999999996
 30
0.0
 40
0.3
 50
-90.0
 51
-0.0
  0
ARC
  8
Group029
 62
0
 10
55.05000000000001
 20
-54.199999999999996
 30
0.0
 40
0.3
 50
-180.0
 51
-90.0
  0
ARC
  8
Group029
 62
0
 10
55.05000000000001
 20
-40.79999999999998
 30
0.0
 40
0.3
 50
90.0
 51
-180.0
  0
POLYLINE
  8
Group029
 62
0
 70
0
 66
1
 10
0.0
 20
0.0
 30
0.0
  0
VERTEX
  8
Group029
 10
68.44999999999997
 20
-54.49999999999999
 30
0.0
  0
VERTEX
  8
Group029
 10
55.050000000000004
 20
-54.49999999999999
 30
0.0
  0
SEQEND
  8
Group029
  0
POLYLINE
  8
Group029
 62
0
 70
0
 66
1
 10
0.0
 20
0.0
 30
0.0
  0
VERTEX
  8
Group029
 10
54.74999999999999
 20
-54.19999999999999
 30
0.0
  0
VERTEX
  8
Group029
 10
54.74999999999999
 20
-40.79999999999998
 30
0.0
  0
SEQEND
  8
Group029
  0
POLYLINE
  8
Group029
 62
0
 70
0
 66
1
 10
0.0
 20
0.0
 30
0.0
  0
VERTEX
  8
Group029
 10
55.050000000000004
 20
-40.499999999999986
 30
0.0
  0
VERTEX
  8
Group029
 10
68.44999999999997
 20
-40.49999999999999
 30
0.0
  0
SEQEND
  8
Group029
  0
ARC
  8
Group030
 62
0
 10
49.44999999999999
 20
-54.199999999999996
 30
0.0
 40
0.3
 50
-90.0
 51
-0.0
  0
ARC
  8
Group030
 62
0
 10
36.05000000000001
 20
-54.19999999999999
 30
0.0
 40
0.3
 50
-180.0
 51
-90.0
  0
ARC
  8
Group030
 62
0
 10
36.05000000000001
 20
-40.79999999999998
 30
0.0
 40
0.3
 50
90.0
 51
-180.0
  0
ARC
  8
Group030
 62
0
 10
49.45000000000002
 20
-40.8
 30
0.0
 40
0.3
 50
-0.0
 51
90.00000000000136
  0
POLYLINE
  8
Group030
 62
0
 70
0
 66
1
 10
0.0
 20
0.0
 30
0.0
  0
VERTEX
  8
Group030
 10
49.44999999999999
 20
-54.49999999999999
 30
0.0
  0
VERTEX
  8
Group030
 10
36.05000000000001
 20
-54.5
 30
0.0
  0
SEQEND
  8
Group030
  0
POLYLINE
  8
Group030
 62
0
 70
0
 66
1
 10
0.0
 20
0.0
 30
0.0
  0
VERTEX
  8
Group030
 10
35.75
 20
-54.199999999999996
 30
0.0
  0
VERTEX
  8
Group030
 10
35.74999999999999
 20
-40.79999999999998
 30
0.0
  0
SEQEND
  8
Group030
  0
POLYLINE
  8
Group030
 62
0
 70
0
 66
1
 10
0.0
 20
0.0
 30
0.0
  0
VERTEX
  8
Group030
 10
49.74999999999998
 20
-40.79999999999999
 30
0.0
  0
VERTEX
  8
Group030
 10
49.75
 20
-54.199999999999996
 30
0.0
  0
SEQEND
  8
Group030
  0
ARC
  8
Group031
 62
0
 10
201.45
 20
-54.20000000000001
 30
0.0
 40
0.3
 50
-90.0
 51
-0.0
  0
ARC
  8
Group031
 62
0
 10
188.04999999999998
 20
-54.20000000000001
 30
0.0
 40
0.3
 50
-180.0
 51
-90.0
  0
ARC
  8
Group031
 62
0
 10
188.05
 20
-40.80000000000001
 30
0.0
 40
0.3
 50
90.0
 51
-180.0
  0
ARC
  8
Group031
 62
0
 10
201.45
 20
-40.80000000000001
 30
0.0
 40
0.3
 50
-0.0
 51
89.99999999999459
  0
POLYLINE
  8
Group031
 62
0
 70
0
 66
1
 10
0.0
 20
0.0
 30
0.0
  0
VERTEX
  8
Group031
 10
201.45000000000002
 20
-54.500000000000014
 30
0.0
  0
VERTEX
  8
Group031
 10
188.05
 20
-54.500000000000014
 30
0.0
  0
SEQEND
  8
Group031
  0
POLYLINE
  8
Group031
 62
0
 70
0
 66
1
 10
0.0
 20
0.0
 30
0.0
  0
VERTEX
  8
Group031
 10
187.75
 20
-54.20000000000002
 30
0.0
  0
VERTEX
  8
Group031
 10
187.75
 20
-40.8
 30
0.0
  0
SEQEND
  8
Group031
  0
POLYLINE
  8
Group031
 62
0
 70
0
 66
1
 10
0.0
 20
0.0
 30
0.0
  0
VERTEX
  8
Group031
 10
188.05
 20
-40.5
 30
0.0
  0
VERTEX
  8
Group031
 10
201.45000000000002
 20
-40.5
 30
0.0
  0
SEQEND
  8
Group031
  0
POLYLINE
  8
Group031
 62
0
 70
0
 66
1
 10
0.0
 20
0.0
 30
0.0
  0
VERTEX
  8
Group031
 10
201.75
 20
-40.80000000000001
 30
0.0
  0
VERTEX
  8
Group031
 10
201.75
 20
-54.20000000000002
 30
0.0
  0
SEQEND
  8
Group031
  0
POLYLINE
  8
Group037
 62
0
 70
0
 66
1
 10
0.0
 20
0.0
 30
0.0
  0
VERTEX
  8
Group037
 10
87.44999999999997
 20
-54.49999999999999
 30
0.0
  0
VERTEX
  8
Group037
 10
74.05
 20
-54.5
 30
0.0
  0
SEQEND
  8
Group037
  0
ARC
  8
Group037
 62
0
 10
87.44999999999999
 20
-54.199999999999996
 30
0.0
 40
0.3
 50
-90.0
 51
-0.0
  0
ARC
  8
Group037
 62
0
 10
74.05000000000001
 20
-54.199999999999996
 30
0.0
 40
0.3
 50
-180.0
 51
-90.0
  0
POLYLINE
  8
Group037
 62
0
 70
0
 66
1
 10
0.0
 20
0.0
 30
0.0
  0
VERTEX
  8
Group037
 10
87.74999999999999
 20
-40.79999999999998
 30
0.0
  0
VERTEX
  8
Group037
 10
87.74999999999999
 20
-54.199999999999996
 30
0.0
  0
SEQEND
  8
Group037
  0
ARC
  8
Group033
 62
0
 10
150.05
 20
-54.2
 30
0.0
 40
0.3
 50
-180.0
 51
-90.0
  0
POLYLINE
  8
Group040
 62
0
 70
0
 66
1
 10
0.0
 20
0.0
 30
0.0
  0
VERTEX
  8
Group040
 10
130.75
 20
-54.2
 30
0.0
  0
VERTEX
  8
Group040
 10
130.75
 20
-40.8
 30
0.0
  0
SEQEND
  8
Group040
  0
ARC
  8
Group040
 62
0
 10
131.05
 20
-40.8
 30
0.0
 40
0.3
 50
90.0
 51
-180.0
  0
POLYLINE
  8
Group040
 62
0
 70
0
 66
1
 10
0.0
 20
0.0
 30
0.0
  0
VERTEX
  8
Group040
 10
144.75
 20
-40.80000000000001
 30
0.0
  0
VERTEX
  8
Group040
 10
144.75
 20
-54.20000000000001
 30
0.0
  0
SEQEND
  8
Group040
  0
ARC
  8
Group040
 62
0
 10
144.45
 20
-40.80000000000001
 30
0.0
 40
0.3
 50
0.0
 51
89.99999999999459
  0
POLYLINE
  8
Group034
 62
0
 70
0
 66
1
 10
0.0
 20
0.0
 30
0.0
  0
VERTEX
  8
Group034
 10
125.44999999999999
 20
-54.5
 30
0.0
  0
VERTEX
  8
Group034
 10
112.05
 20
-54.5
 30
0.0
  0
SEQEND
  8
Group034
  0
ARC
  8
Group035
 62
0
 10
228.42499999999998
 20
-54.20000000000002
 30
0.0
 40
0.3
 50
-180.0
 51
-90.0
  0
ARC
  8
Group035
 62
0
 10
228.425
 20
-40.80000000000001
 30
0.0
 40
0.3
 50
90.0
 51
-180.0
  0
POLYLINE
  8
Group035
 62
0
 70
0
 66
1
 10
0.0
 20
0.0
 30
0.0
  0
VERTEX
  8
Group035
 10
228.125
 20
-54.2
 30
0.0
  0
VERTEX
  8
Group035
 10
228.125
 20
-40.80000000000001
 30
0.0
  0
SEQEND
  8
Group035
  0
POLYLINE
  8
Group035
 62
0
 70
0
 66
1
 10
0.0
 20
0.0
 30
0.0
  0
VERTEX
  8
Group035
 10
244.2
 20
-54.500000000000014
 30
0.0
  0
VERTEX
  8
Group035
 10
228.42499999999998
 20
-54.500000000000014
 30
0.0
  0
SEQEND
  8
Group035
  0
POLYLINE
  8
Group035
 62
0
 70
0
 66
1
 10
0.0
 20
0.0
 30
0.0
  0
VERTEX
  8
Group035
 10
228.425
 20
-40.500000000000014
 30
0.0
  0
VERTEX
  8
Group035
 10
244.2
 20
-40.500000000000014
 30
0.0
  0
SEQEND
  8
Group035
  0
ARC
  8
Group035
 62
0
 10
244.2
 20
-40.80000000000001
 30
0.0
 40
0.3
 50
-0.0
 51
90.0
  0
POLYLINE
  8
Group035
 62
0
 70
0
 66
1
 10
0.0
 20
0.0
 30
0.0
  0
VERTEX
  8
Group035
 10
244.5
 20
-40.80000000000001
 30
0.0
  0
VERTEX
  8
Group035
 10
244.5
 20
-54.20000000000002
 30
0.0
  0
SEQEND
  8
Group035
  0
ARC
  8
Group035
 62
0
 10
244.2
 20
-54.20000000000002
 30
0.0
 40
0.3
 50
-90.0
 51
-0.0
  0
ARC
  8
Group033
 62
0
 10
163.45
 20
-54.20000000000001
 30
0.0
 40
0.3
 50
-90.0
 51
-0.0
  0
ARC
  8
Group033
 62
0
 10
150.05
 20
-40.8
 30
0.0
 40
0.3
 50
90.0
 51
-180.0
  0
ARC
  8
Group033
 62
0
 10
163.45
 20
-40.80000000000001
 30
0.0
 40
0.3
 50
-0.0
 51
89.99999999999459
  0
POLYLINE
  8
Group033
 62
0
 70
0
 66
1
 10
0.0
 20
0.0
 30
0.0
  0
VERTEX
  8
Group033
 10
149.75
 20
-54.20000000000001
 30
0.0
  0
VERTEX
  8
Group033
 10
149.75
 20
-40.8
 30
0.0
  0
SEQEND
  8
Group033
  0
POLYLINE
  8
Group033
 62
0
 70
0
 66
1
 10
0.0
 20
0.0
 30
0.0
  0
VERTEX
  8
Group033
 10
150.05
 20
-40.5
 30
0.0
  0
VERTEX
  8
Group033
 10
163.45000000000002
 20
-40.50000000000001
 30
0.0
  0
SEQEND
  8
Group033
  0
POLYLINE
  8
Group033
 62
0
 70
0
 66
1
 10
0.0
 20
0.0
 30
0.0
  0
VERTEX
  8
Group033
 10
163.75
 20
-40.80000000000002
 30
0.0
  0
VERTEX
  8
Group033
 10
163.75
 20
-54.20000000000001
 30
0.0
  0
SEQEND
  8
Group033
  0
ARC
  8
Group034
 62
0
 10
125.45
 20
-54.2
 30
0.0
 40
0.3
 50
-90.0
 51
-0.0
  0
ARC
  8
Group034
 62
0
 10
112.05000000000001
 20
-54.2
 30
0.0
 40
0.3
 50
180.0
 51
-90.0
  0
ARC
  8
Group034
 62
0
 10
112.05000000000001
 20
-40.8
 30
0.0
 40
0.3
 50
90.0
 51
-180.0
  0
ARC
  8
Group034
 62
0
 10
125.45
 20
-40.80000000000001
 30
0.0
 40
0.3
 50
-0.0
 51
90.0
  0
POLYLINE
  8
Group034
 62
0
 70
0
 66
1
 10
0.0
 20
0.0
 30
0.0
  0
VERTEX
  8
Group034
 10
111.74999999999999
 20
-54.19999999999999
 30
0.0
  0
VERTEX
  8
Group034
 10
111.74999999999999
 20
-40.8
 30
0.0
  0
SEQEND
  8
Group034
  0
POLYLINE
  8
Group034
 62
0
 70
0
 66
1
 10
0.0
 20
0.0
 30
0.0
  0
VERTEX
  8
Group034
 10
112.05
 20
-40.5
 30
0.0
  0
VERTEX
  8
Group034
 10
125.44999999999999
 20
-40.5
 30
0.0
  0
SEQEND
  8
Group034
  0
POLYLINE
  8
Group034
 62
0
 70
0
 66
1
 10
0.0
 20
0.0
 30
0.0
  0
VERTEX
  8
Group034
 10
125.74999999999999
 20
-40.8
 30
0.0
  0
VERTEX
  8
Group034
 10
125.74999999999999
 20
-54.2
 30
0.0
  0
SEQEND
  8
Group034
  0
ARC
  8
Group036
 62
0
 10
106.44999999999999
 20
-54.2
 30
0.0
 40
0.3
 50
-90.0
 51
-0.0
  0
ARC
  8
Group036
 62
0
 10
93.05000000000001
 20
-54.199999999999996
 30
0.0
 40
0.3
 50
-180.0
 51
-90.0
  0
ARC
  8
Group036
 62
0
 10
93.05000000000001
 20
-40.79999999999998
 30
0.0
 40
0.3
 50
90.0
 51
-180.0
  0
ARC
  8
Group036
 62
0
 10
106.44999999999999
 20
-40.80000000000001
 30
0.0
 40
0.3
 50
-0.0
 51
90.0
  0
POLYLINE
  8
Group036
 62
0
 70
0
 66
1
 10
0.0
 20
0.0
 30
0.0
  0
VERTEX
  8
Group036
 10
106.44999999999997
 20
-54.5
 30
0.0
  0
VERTEX
  8
Group036
 10
93.05
 20
-54.5
 30
0.0
  0
SEQEND
  8
Group036
  0
POLYLINE
  8
Group036
 62
0
 70
0
 66
1
 10
0.0
 20
0.0
 30
0.0
  0
VERTEX
  8
Group036
 10
92.74999999999999
 20
-54.2
 30
0.0
  0
VERTEX
  8
Group036
 10
92.74999999999999
 20
-40.8
 30
0.0
  0
SEQEND
  8
Group036
  0
POLYLINE
  8
Group036
 62
0
 70
0
 66
1
 10
0.0
 20
0.0
 30
0.0
  0
VERTEX
  8
Group036
 10
93.05
 20
-40.5
 30
0.0
  0
VERTEX
  8
Group036
 10
106.44999999999997
 20
-40.5
 30
0.0
  0
SEQEND
  8
Group036
  0
POLYLINE
  8
Group036
 62
0
 70
0
 66
1
 10
0.0
 20
0.0
 30
0.0
  0
VERTEX
  8
Group036
 10
106.74999999999999
 20
-40.8
 30
0.0
  0
VERTEX
  8
Group036
 10
106.74999999999999
 20
-54.2
 30
0.0
  0
SEQEND
  8
Group036
  0
ARC
  8
Group037
 62
0
 10
74.05000000000001
 20
-40.79999999999998
 30
0.0
 40
0.3
 50
90.0
 51
-180.0
  0
ARC
  8
Group037
 62
0
 10
87.45000000000002
 20
-40.8
 30
0.0
 40
0.3
 50
0.0
 51
90.0
  0
POLYLINE
  8
Group037
 62
0
 70
0
 66
1
 10
0.0
 20
0.0
 30
0.0
  0
VERTEX
  8
Group037
 10
73.74999999999999
 20
-54.19999999999999
 30
0.0
  0
VERTEX
  8
Group037
 10
73.74999999999999
 20
-40.79999999999998
 30
0.0
  0
SEQEND
  8
Group037
  0
POLYLINE
  8
Group037
 62
0
 70
0
 66
1
 10
0.0
 20
0.0
 30
0.0
  0
VERTEX
  8
Group037
 10
74.05
 20
-40.499999999999986
 30
0.0
  0
VERTEX
  8
Group037
 10
87.44999999999997
 20
-40.5
 30
0.0
  0
SEQEND
  8
Group037
  0
ARC
  8
Group038
 62
0
 10
207.04999999999998
 20
-54.20000000000001
 30
0.0
 40
0.3
 50
-180.0
 51
-90.0
  0
ARC
  8
Group038
 62
0
 10
207.05
 20
-40.80000000000001
 30
0.0
 40
0.3
 50
90.0
 51
-180.0
  0
POLYLINE
  8
Group038
 62
0
 70
0
 66
1
 10
0.0
 20
0.0
 30
0.0
  0
VERTEX
  8
Group038
 10
206.75
 20
-54.20000000000002
 30
0.0
  0
VERTEX
  8
Group038
 10
206.75
 20
-40.80000000000001
 30
0.0
  0
SEQEND
  8
Group038
  0
POLYLINE
  8
Group038
 62
0
 70
0
 66
1
 10
0.0
 20
0.0
 30
0.0
  0
VERTEX
  8
Group038
 10
222.825
 20
-40.500000000000014
 30
0.0
  0
VERTEX
  8
Group038
 10
207.05
 20
-40.500000000000014
 30
0.0
  0
SEQEND
  8
Group038
  0
POLYLINE
  8
Group038
 62
0
 70
0
 66
1
 10
0.0
 20
0.0
 30
0.0
  0
VERTEX
  8
Group038
 10
207.04999999999998
 20
-54.50000000000001
 30
0.0
  0
VERTEX
  8
Group038
 10
222.825
 20
-54.500000000000014
 30
0.0
  0
SEQEND
  8
Group038
  0
ARC
  8
Group038
 62
0
 10
222.825
 20
-54.20000000000002
 30
0.0
 40
0.3
 50
-90.0
 51
-0.0
  0
POLYLINE
  8
Group038
 62
0
 70
0
 66
1
 10
0.0
 20
0.0
 30
0.0
  0
VERTEX
  8
Group038
 10
223.125
 20
-40.80000000000001
 30
0.0
  0
VERTEX
  8
Group038
 10
223.125
 20
-54.20000000000002
 30
0.0
  0
SEQEND
  8
Group038
  0
ARC
  8
Group038
 62
0
 10
222.825
 20
-40.80000000000001
 30
0.0
 40
0.3
 50
-0.0
 51
90.0
  0
ARC
  8
Group039
 62
0
 10
182.45
 20
-54.20000000000001
 30
0.0
 40
0.3
 50
-90.0
 51
-0.0
  0
ARC
  8
Group039
 62
0
 10
169.05
 20
-54.20000000000001
 30
0.0
 40
0.3
 50
-180.0
 51
-90.0
  0
ARC
  8
Group039
 62
0
 10
169.05
 20
-40.80000000000001
 30
0.0
 40
0.3
 50
90.0
 51
-180.0
  0
ARC
  8
Group039
 62
0
 10
182.45
 20
-40.80000000000001
 30
0.0
 40
0.3
 50
-0.0
 51
89.99999999999459
  0
POLYLINE
  8
Group039
 62
0
 70
0
 66
1
 10
0.0
 20
0.0
 30
0.0
  0
VERTEX
  8
Group039
 10
182.45000000000002
 20
-54.50000000000001
 30
0.0
  0
VERTEX
  8
Group039
 10
169.05
 20
-54.50000000000001
 30
0.0
  0
SEQEND
  8
Group039
  0
POLYLINE
  8
Group039
 62
0
 70
0
 66
1
 10
0.0
 20
0.0
 30
0.0
  0
VERTEX
  8
Group039
 10
168.75
 20
-54.2
 30
0.0
  0
VERTEX
  8
Group039
 10
168.75
 20
-40.8
 30
0.0
  0
SEQEND
  8
Group039
  0
POLYLINE
  8
Group039
 62
0
 70
0
 66
1
 10
0.0
 20
0.0
 30
0.0
  0
VERTEX
  8
Group039
 10
169.05
 20
-40.5
 30
0.0
  0
VERTEX
  8
Group039
 10
182.45000000000002
 20
-40.49999999999999
 30
0.0
  0
SEQEND
  8
Group039
  0
POLYLINE
  8
Group039
 62
0
 70
0
 66
1
 10
0.0
 20
0.0
 30
0.0
  0
VERTEX
  8
Group039
 10
182.75
 20
-40.800000000000004
 30
0.0
  0
VERTEX
  8
Group039
 10
182.75
 20
-54.20000000000001
 30
0.0
  0
SEQEND
  8
Group039
  0
POLYLINE
  8
Group040
 62
0
 70
0
 66
1
 10
0.0
 20
0.0
 30
0.0
  0
VERTEX
  8
Group040
 10
131.05
 20
-40.5
 30
0.0
  0
VERTEX
  8
Group040
 10
144.45000000000002
 20
-40.500000000000014
 30
0.0
  0
SEQEND
  8
Group040
  0
ARC
  8
Group041
 62
0
 10
23.32499999999999
 20
-54.19999999999999
 30
0.0
 40
0.3
 50
-90.0
 51
-0.0
  0
ARC
  8
Group041
 62
0
 10
9.925000000000011
 20
-54.19999999999999
 30
0.0
 40
0.3
 50
-180.0
 51
-90.0
  0
ARC
  8
Group041
 62
0
 10
9.925000000000011
 20
-40.79999999999998
 30
0.0
 40
0.3
 50
90.0
 51
-180.0
  0
ARC
  8
Group041
 62
0
 10
23.325000000000017
 20
-40.79999999999998
 30
0.0
 40
0.3
 50
0.0
 51
89.99999999999933
  0
POLYLINE
  8
Group041
 62
0
 70
0
 66
1
 10
0.0
 20
0.0
 30
0.0
  0
VERTEX
  8
Group041
 10
23.32499999999999
 20
-54.499999999999986
 30
0.0
  0
VERTEX
  8
Group041
 10
9.925000000000011
 20
-54.499999999999986
 30
0.0
  0
SEQEND
  8
Group041
  0
POLYLINE
  8
Group041
 62
0
 70
0
 66
1
 10
0.0
 20
0.0
 30
0.0
  0
VERTEX
  8
Group041
 10
9.625
 20
-54.19999999999999
 30
0.0
  0
VERTEX
  8
Group041
 10
9.62500000000001
 20
-40.79999999999998
 30
0.0
  0
SEQEND
  8
Group041
  0
POLYLINE
  8
Group041
 62
0
 70
0
 66
1
 10
0.0
 20
0.0
 30
0.0
  0
VERTEX
  8
Group041
 10
9.925000000000022
 20
-40.499999999999986
 30
0.0
  0
VERTEX
  8
Group041
 10
23.325
 20
-40.499999999999986
 30
0.0
  0
SEQEND
  8
Group041
  0
POLYLINE
  8
Group041
 62
0
 70
0
 66
1
 10
0.0
 20
0.0
 30
0.0
  0
VERTEX
  8
Group041
 10
23.625
 20
-40.79999999999998
 30
0.0
  0
VERTEX
  8
Group041
 10
23.625
 20
-54.19999999999999
 30
0.0
  0
SEQEND
  8
Group041
  0
ARC
  8
Group043
 62
0
 10
18.57499999999999
 20
-73.20000000000002
 30
0.0
 40
0.3
 50
-90.0
 51
-0.0
  0
ARC
  8
Group043
 62
0
 10
5.174999999999983
 20
-73.20000000000002
 30
0.0
 40
0.3
 50
-180.0
 51
-90.0
  0
ARC
  8
Group043
 62
0
 10
5.175000000000011
 20
-59.80000000000001
 30
0.0
 40
0.3
 50
90.0
 51
-180.0
  0
ARC
  8
Group043
 62
0
 10
18.57499999999999
 20
-59.80000000000001
 30
0.0
 40
0.3
 50
-0.0
 51
90.0
  0
POLYLINE
  8
Group043
 62
0
 70
0
 66
1
 10
0.0
 20
0.0
 30
0.0
  0
VERTEX
  8
Group043
 10
18.57499999999999
 20
-73.50000000000001
 30
0.0
  0
VERTEX
  8
Group043
 10
5.175000000000011
 20
-73.50000000000001
 30
0.0
  0
SEQEND
  8
Group043
  0
POLYLINE
  8
Group043
 62
0
 70
0
 66
1
 10
0.0
 20
0.0
 30
0.0
  0
VERTEX
  8
Group043
 10
4.875
 20
-73.2
 30
0.0
  0
VERTEX
  8
Group043
 10
4.875
 20
-59.80000000000001
 30
0.0
  0
SEQEND
  8
Group043
  0
POLYLINE
  8
Group043
 62
0
 70
0
 66
1
 10
0.0
 20
0.0
 30
0.0
  0
VERTEX
  8
Group043
 10
5.175000000000011
 20
-59.500000000000014
 30
0.0
  0
VERTEX
  8
Group043
 10
18.57499999999999
 20
-59.500000000000014
 30
0.0
  0
SEQEND
  8
Group043
  0
POLYLINE
  8
Group043
 62
0
 70
0
 66
1
 10
0.0
 20
0.0
 30
0.0
  0
VERTEX
  8
Group043
 10
18.875
 20
-59.80000000000001
 30
0.0
  0
VERTEX
  8
Group043
 10
18.875
 20
-73.20000000000002
 30
0.0
  0
SEQEND
  8
Group043
  0
ARC
  8
Group044
 62
0
 10
42.32499999999999
 20
-73.20000000000002
 30
0.0
 40
0.3
 50
-90.0
 51
-0.0
  0
ARC
  8
Group044
 62
0
 10
42.32499999999999
 20
-59.80000000000001
 30
0.0
 40
0.3
 50
-0.0
 51
90.0
  0
POLYLINE
  8
Group044
 62
0
 70
0
 66
1
 10
0.0
 20
0.0
 30
0.0
  0
VERTEX
  8
Group044
 10
42.625
 20
-59.80000000000001
 30
0.0
  0
VERTEX
  8
Group044
 10
42.625
 20
-73.20000000000002
 30
0.0
  0
SEQEND
  8
Group044
  0
ARC
  8
Group044
 62
0
 10
26.55000000000001
 20
-73.2
 30
0.0
 40
0.3
 50
-180.0
 51
-90.0
  0
ARC
  8
Group044
 62
0
 10
26.55000000000001
 20
-59.79999999999998
 30
0.0
 40
0.3
 50
90.0
 51
-180.0
  0
POLYLINE
  8
Group044
 62
0
 70
0
 66
1
 10
0.0
 20
0.0
 30
0.0
  0
VERTEX
  8
Group044
 10
26.55
 20
-59.5
 30
0.0
  0
VERTEX
  8
Group044
 10
42.325
 20
-59.5
 30
0.0
  0
SEQEND
  8
Group044
  0
POLYLINE
  8
Group044
 62
0
 70
0
 66
1
 10
0.0
 20
0.0
 30
0.0
  0
VERTEX
  8
Group044
 10
26.55
 20
-73.5
 30
0.0
  0
VERTEX
  8
Group044
 10
42.325
 20
-73.5
 30
0.0
  0
SEQEND
  8
Group044
  0
ARC
  8
Group046
 62
0
 10
67.92500000000001
 20
-73.19999999999999
 30
0.0
 40
0.3
 50
-180.0
 51
-90.0
  0
ARC
  8
Group075
 62
0
 10
68.62500000000001
 20
-59.0
 30
0.0
 40
1.0
 50
90.0
 51
-180.0
  0
POLYLINE
  8
Group075
 62
0
 70
0
 66
1
 10
0.0
 20
0.0
 30
0.0
  0
VERTEX
  8
Group075
 10
67.625
 20
-59.0
 30
0.0
  0
VERTEX
  8
Group075
 10
67.625
 20
-73.2
 30
0.0
  0
SEQEND
  8
Group075
  0
ARC
  8
Group046
 62
0
 10
83.22500000000001
 20
-72.5
 30
0.0
 40
1.0
 50
-90.0
 51
-0.0
  0
POLYLINE
  8
Group046
 62
0
 70
0
 66
1
 10
0.0
 20
0.0
 30
0.0
  0
VERTEX
  8
Group046
 10
67.925
 20
-73.5
 30
0.0
  0
VERTEX
  8
Group046
 10
83.225
 20
-73.5
 30
0.0
  0
SEQEND
  8
Group046
  0
POLYLINE
  8
Group046
 62
0
 70
0
 66
1
 10
0.0
 20
0.0
 30
0.0
  0
VERTEX
  8
Group046
 10
84.225
 20
-72.5
 30
0.0
  0
VERTEX
  8
Group046
 10
84.225
 20
-59.0
 30
0.0
  0
SEQEND
  8
Group046
  0
POLYLINE
  8
Group046
 62
0
 70
0
 66
1
 10
0.0
 20
0.0
 30
0.0
  0
VERTEX
  8
Group046
 10
68.625
 20
-58.0
 30
0.0
  0
VERTEX
  8
Group046
 10
83.225
 20
-58.0
 30
0.0
  0
SEQEND
  8
Group046
  0
ARC
  8
Group046
 62
0
 10
83.225
 20
-59.0
 30
0.0
 40
1.0
 50
-0.0
 51
90.0
  0
ARC
  8
Group045
 62
0
 10
45.55000000000001
 20
-73.2
 30
0.0
 40
0.3
 50
-180.0
 51
-90.0
  0
ARC
  8
Group045
 62
0
 10
45.55000000000001
 20
-59.79999999999998
 30
0.0
 40
0.3
 50
90.0
 51
-180.0
  0
POLYLINE
  8
Group045
 62
0
 70
0
 66
1
 10
0.0
 20
0.0
 30
0.0
  0
VERTEX
  8
Group045
 10
45.25
 20
-73.19999999999999
 30
0.0
  0
VERTEX
  8
Group045
 10
45.25
 20
-59.79999999999999
 30
0.0
  0
SEQEND
  8
Group045
  0
ARC
  8
Group045
 62
0
 10
66.07499999999999
 20
-73.20000000000002
 30
0.0
 40
0.3
 50
-90.0
 51
-0.0
  0
POLYLINE
  8
Group045
 62
0
 70
0
 66
1
 10
0.0
 20
0.0
 30
0.0
  0
VERTEX
  8
Group045
 10
66.375
 20
-59.80000000000001
 30
0.0
  0
VERTEX
  8
Group045
 10
66.375
 20
-73.20000000000002
 30
0.0
  0
SEQEND
  8
Group045
  0
ARC
  8
Group045
 62
0
 10
66.07499999999999
 20
-59.80000000000001
 30
0.0
 40
0.3
 50
-0.0
 51
89.99999999999729
  0
POLYLINE
  8
Group045
 62
0
 70
0
 66
1
 10
0.0
 20
0.0
 30
0.0
  0
VERTEX
  8
Group045
 10
45.55
 20
-59.5
 30
0.0
  0
VERTEX
  8
Group045
 10
66.075
 20
-59.5
 30
0.0
  0
SEQEND
  8
Group045
  0
POLYLINE
  8
Group045
 62
0
 70
0
 66
1
 10
0.0
 20
0.0
 30
0.0
  0
VERTEX
  8
Group045
 10
66.075
 20
-73.5
 30
0.0
  0
VERTEX
  8
Group045
 10
45.55
 20
-73.5
 30
0.0
  0
SEQEND
  8
Group045
  0
ARC
  8
Group047
 62
0
 10
108.82499999999999
 20
-73.19999999999999
 30
0.0
 40
0.3
 50
-90.0
 51
-0.0
  0
ARC
  8
Group047
 62
0
 10
108.82500000000002
 20
-59.79999999999998
 30
0.0
 40
0.3
 50
-0.0
 51
89.99999999999729
  0
POLYLINE
  8
Group047
 62
0
 70
0
 66
1
 10
0.0
 20
0.0
 30
0.0
  0
VERTEX
  8
Group047
 10
108.025
 20
-59.5
 30
0.0
  0
VERTEX
  8
Group047
 10
108.825
 20
-59.5
 30
0.0
  0
SEQEND
  8
Group047
  0
POLYLINE
  8
Group047
 62
0
 70
0
 66
1
 10
0.0
 20
0.0
 30
0.0
  0
VERTEX
  8
Group047
 10
85.9249999999
 20
-59.5
 30
0.0
  0
VERTEX
  8
Group047
 10
101.025
 20
-59.5
 30
0.0
  0
SEQEND
  8
Group047
  0
POLYLINE
  8
Group047
 62
0
 70
0
 66
1
 10
0.0
 20
0.0
 30
0.0
  0
VERTEX
  8
Group047
 10
108.825
 20
-73.5
 30
0.0
  0
VERTEX
  8
Group047
 10
85.9249999999
 20
-73.49999999997
 30
0.0
  0
SEQEND
  8
Group047
  0
ARC
  8
Group047
 62
0
 10
85.92499999989998
 20
-73.19999999997002
 30
0.0
 40
0.3
 50
-180.0
 51
-90.0
  0
ARC
  8
Group047
 62
0
 10
85.92499999990001
 20
-59.79999999997001
 30
0.0
 40
0.3
 50
90.0
 51
-180.0
  0
POLYLINE
  8
Group047
 62
0
 70
0
 66
1
 10
0.0
 20
0.0
 30
0.0
  0
VERTEX
  8
Group047
 10
85.6249999999
 20
-73.19999999997
 30
0.0
  0
VERTEX
  8
Group047
 10
85.6249999999
 20
-59.79999999997001
 30
0.0
  0
SEQEND
  8
Group047
  0
POLYLINE
  8
Group047
 62
0
 70
0
 66
1
 10
0.0
 20
0.0
 30
0.0
  0
VERTEX
  8
Group047
 10
101.025
 20
-59.00000000000003
 30
0.0
  0
VERTEX
  8
Group047
 10
101.025
 20
-59.50000000000003
 30
0.0
  0
SEQEND
  8
Group047
  0
ARC
  8
Group047
 62
0
 10
102.025
 20
-59.0
 30
0.0
 40
1.0
 50
90.0
 51
-180.0
  0
POLYLINE
  8
Group047
 62
0
 70
0
 66
1
 10
0.0
 20
0.0
 30
0.0
  0
VERTEX
  8
Group047
 10
107.025
 20
-58.00000000000003
 30
0.0
  0
VERTEX
  8
Group047
 10
102.025
 20
-58.00000000000003
 30
0.0
  0
SEQEND
  8
Group047
  0
ARC
  8
Group047
 62
0
 10
107.025
 20
-59.0
 30
0.0
 40
1.0
 50
-0.0
 51
90.0
  0
POLYLINE
  8
Group047
 62
0
 70
0
 66
1
 10
0.0
 20
0.0
 30
0.0
  0
VERTEX
  8
Group047
 10
108.025
 20
-59.00000000000003
 30
0.0
  0
VERTEX
  8
Group047
 10
108.025
 20
-59.50000000000003
 30
0.0
  0
SEQEND
  8
Group047
  0
ARC
  8
Group048
 62
0
 10
241.825
 20
-73.20000000000002
 30
0.0
 40
0.3
 50
-90.0
 51
-0.0
  0
ARC
  8
Group048
 62
0
 10
228.42499999999998
 20
-73.20000000000002
 30
0.0
 40
0.3
 50
-180.0
 51
-90.0
  0
ARC
  8
Group048
 62
0
 10
228.425
 20
-59.80000000000001
 30
0.0
 40
0.3
 50
90.0
 51
-180.0
  0
ARC
  8
Group048
 62
0
 10
241.825
 20
-59.80000000000001
 30
0.0
 40
0.3
 50
-0.0
 51
90.0
  0
POLYLINE
  8
Group048
 62
0
 70
0
 66
1
 10
0.0
 20
0.0
 30
0.0
  0
VERTEX
  8
Group048
 10
241.825
 20
-73.50000000000001
 30
0.0
  0
VERTEX
  8
Group048
 10
228.425
 20
-73.50000000000001
 30
0.0
  0
SEQEND
  8
Group048
  0
POLYLINE
  8
Group048
 62
0
 70
0
 66
1
 10
0.0
 20
0.0
 30
0.0
  0
VERTEX
  8
Group048
 10
228.125
 20
-73.2
 30
0.0
  0
VERTEX
  8
Group048
 10
228.125
 20
-59.80000000000001
 30
0.0
  0
SEQEND
  8
Group048
  0
POLYLINE
  8
Group048
 62
0
 70
0
 66
1
 10
0.0
 20
0.0
 30
0.0
  0
VERTEX
  8
Group048
 10
228.425
 20
-59.500000000000014
 30
0.0
  0
VERTEX
  8
Group048
 10
241.825
 20
-59.500000000000014
 30
0.0
  0
SEQEND
  8
Group048
  0
POLYLINE
  8
Group048
 62
0
 70
0
 66
1
 10
0.0
 20
0.0
 30
0.0
  0
VERTEX
  8
Group048
 10
242.125
 20
-59.80000000000001
 30
0.0
  0
VERTEX
  8
Group048
 10
242.125
 20
-73.20000000000002
 30
0.0
  0
SEQEND
  8
Group048
  0
ARC
  8
Group049
 62
0
 10
204.67499999999998
 20
-73.20000000000002
 30
0.0
 40
0.3
 50
-180.0
 51
-90.0
  0
ARC
  8
Group049
 62
0
 10
204.675
 20
-59.80000000000001
 30
0.0
 40
0.3
 50
90.0
 51
-180.0
  0
POLYLINE
  8
Group049
 62
0
 70
0
 66
1
 10
0.0
 20
0.0
 30
0.0
  0
VERTEX
  8
Group049
 10
204.375
 20
-73.2
 30
0.0
  0
VERTEX
  8
Group049
 10
204.375
 20
-59.80000000000001
 30
0.0
  0
SEQEND
  8
Group049
  0
ARC
  8
Group049
 62
0
 10
220.44999999979999
 20
-59.799999999960015
 30
0.0
 40
0.3
 50
-0.0
 51
90.0
  0
ARC
  8
Group049
 62
0
 10
220.44999999979999
 20
-73.19999999996001
 30
0.0
 40
0.3
 50
-90.0
 51
-0.0
  0
POLYLINE
  8
Group049
 62
0
 70
0
 66
1
 10
0.0
 20
0.0
 30
0.0
  0
VERTEX
  8
Group049
 10
204.675
 20
-59.5
 30
0.0
  0
VERTEX
  8
Group049
 10
220.45
 20
-59.5
 30
0.0
  0
SEQEND
  8
Group049
  0
POLYLINE
  8
Group049
 62
0
 70
0
 66
1
 10
0.0
 20
0.0
 30
0.0
  0
VERTEX
  8
Group049
 10
204.675
 20
-73.5
 30
0.0
  0
VERTEX
  8
Group049
 10
220.45
 20
-73.49999999996
 30
0.0
  0
SEQEND
  8
Group049
  0
POLYLINE
  8
Group071
 62
0
 70
0
 66
1
 10
0.0
 20
0.0
 30
0.0
  0
VERTEX
  8
Group071
 10
192.65
 20
-58.00000000000003
 30
0.0
  0
VERTEX
  8
Group071
 10
187.65
 20
-58.00000000000005
 30
0.0
  0
SEQEND
  8
Group071
  0
ARC
  8
Group071
 62
0
 10
192.65
 20
-59.0
 30
0.0
 40
1.0
 50
-0.0
 51
90.0
  0
ARC
  8
Group071
 62
0
 10
187.65
 20
-59.0
 30
0.0
 40
1.0
 50
90.0
 51
-180.0
  0
POLYLINE
  8
Group071
 62
0
 70
0
 66
1
 10
0.0
 20
0.0
 30
0.0
  0
VERTEX
  8
Group071
 10
193.65
 20
-59.50000000000003
 30
0.0
  0
VERTEX
  8
Group071
 10
193.65
 20
-59.00000000000003
 30
0.0
  0
SEQEND
  8
Group071
  0
POLYLINE
  8
Group071
 62
0
 70
0
 66
1
 10
0.0
 20
0.0
 30
0.0
  0
VERTEX
  8
Group071
 10
186.65
 20
-59.00000000000005
 30
0.0
  0
VERTEX
  8
Group071
 10
186.65
 20
-59.50000000000005
 30
0.0
  0
SEQEND
  8
Group071
  0
ARC
  8
Group050
 62
0
 10
159.55
 20
-73.2
 30
0.0
 40
0.3
 50
-180.0
 51
-90.0
  0
ARC
  8
Group050
 62
0
 10
159.55
 20
-59.79999999999999
 30
0.0
 40
0.3
 50
90.0
 51
-180.0
  0
POLYLINE
  8
Group050
 62
0
 70
0
 66
1
 10
0.0
 20
0.0
 30
0.0
  0
VERTEX
  8
Group050
 10
159.25
 20
-73.19999999999999
 30
0.0
  0
VERTEX
  8
Group050
 10
159.25
 20
-59.79999999999999
 30
0.0
  0
SEQEND
  8
Group050
  0
POLYLINE
  8
Group050
 62
0
 70
0
 66
1
 10
0.0
 20
0.0
 30
0.0
  0
VERTEX
  8
Group050
 10
159.55
 20
-59.5
 30
0.0
  0
VERTEX
  8
Group050
 10
167.625
 20
-59.5
 30
0.0
  0
SEQEND
  8
Group050
  0
POLYLINE
  8
Group072
 62
0
 70
0
 66
1
 10
0.0
 20
0.0
 30
0.0
  0
VERTEX
  8
Group072
 10
173.62500000000003
 20
-58.00000000000003
 30
0.0
  0
VERTEX
  8
Group072
 10
168.62500000000003
 20
-58.00000000000005
 30
0.0
  0
SEQEND
  8
Group072
  0
ARC
  8
Group072
 62
0
 10
173.625
 20
-59.0
 30
0.0
 40
1.0
 50
-0.0
 51
90.0
  0
ARC
  8
Group072
 62
0
 10
168.625
 20
-59.0
 30
0.0
 40
1.0
 50
90.0
 51
-180.0
  0
POLYLINE
  8
Group072
 62
0
 70
0
 66
1
 10
0.0
 20
0.0
 30
0.0
  0
VERTEX
  8
Group072
 10
167.62500000000003
 20
-59.00000000000005
 30
0.0
  0
VERTEX
  8
Group072
 10
167.62500000000003
 20
-59.50000000000005
 30
0.0
  0
SEQEND
  8
Group072
  0
POLYLINE
  8
Group050
 62
0
 70
0
 66
1
 10
0.0
 20
0.0
 30
0.0
  0
VERTEX
  8
Group050
 10
186.65
 20
-59.5
 30
0.0
  0
VERTEX
  8
Group050
 10
174.625
 20
-59.5
 30
0.0
  0
SEQEND
  8
Group050
  0
POLYLINE
  8
Group050
 62
0
 70
0
 66
1
 10
0.0
 20
0.0
 30
0.0
  0
VERTEX
  8
Group050
 10
174.625
 20
-59.5
 30
0.0
  0
VERTEX
  8
Group050
 10
174.625
 20
-59.0
 30
0.0
  0
SEQEND
  8
Group050
  0
POLYLINE
  8
Group050
 62
0
 70
0
 66
1
 10
0.0
 20
0.0
 30
0.0
  0
VERTEX
  8
Group050
 10
193.65
 20
-59.5
 30
0.0
  0
VERTEX
  8
Group050
 10
201.45
 20
-59.5
 30
0.0
  0
SEQEND
  8
Group050
  0
POLYLINE
  8
Group050
 62
0
 70
0
 66
1
 10
0.0
 20
0.0
 30
0.0
  0
VERTEX
  8
Group050
 10
159.55
 20
-73.5
 30
0.0
  0
VERTEX
  8
Group050
 10
201.45
 20
-73.49999999996
 30
0.0
  0
SEQEND
  8
Group050
  0
POLYLINE
  8
Group050
 62
0
 70
0
 66
1
 10
0.0
 20
0.0
 30
0.0
  0
VERTEX
  8
Group050
 10
201.7499999998
 20
-59.79999999996001
 30
0.0
  0
VERTEX
  8
Group050
 10
201.7499999998
 20
-73.19999999996001
 30
0.0
  0
SEQEND
  8
Group050
  0
ARC
  8
Group050
 62
0
 10
201.44999999979999
 20
-59.799999999960015
 30
0.0
 40
0.3
 50
-0.0
 51
90.0
  0
ARC
  8
Group050
 62
0
 10
201.44999999979999
 20
-73.19999999996001
 30
0.0
 40
0.3
 50
-90.0
 51
-0.0
  0
ARC
  8
Group052
 62
0
 10
114.42500000000001
 20
-73.2
 30
0.0
 40
0.3
 50
-180.0
 51
-90.0
  0
ARC
  8
Group052
 62
0
 10
114.42500000000001
 20
-59.79999999999999
 30
0.0
 40
0.3
 50
90.0
 51
-180.0
  0
POLYLINE
  8
Group052
 62
0
 70
0
 66
1
 10
0.0
 20
0.0
 30
0.0
  0
VERTEX
  8
Group052
 10
122.35
 20
-59.5
 30
0.0
  0
VERTEX
  8
Group052
 10
114.425
 20
-59.5
 30
0.0
  0
SEQEND
  8
Group052
  0
ARC
  8
Group073
 62
0
 10
123.35000000000001
 20
-59.0
 30
0.0
 40
1.0
 50
90.0
 51
-180.0
  0
POLYLINE
  8
Group073
 62
0
 70
0
 66
1
 10
0.0
 20
0.0
 30
0.0
  0
VERTEX
  8
Group073
 10
122.35
 20
-59.00000000000005
 30
0.0
  0
VERTEX
  8
Group073
 10
122.35
 20
-59.50000000000005
 30
0.0
  0
SEQEND
  8
Group073
  0
ARC
  8
Group052
 62
0
 10
154.5249999999
 20
-59.0
 30
0.0
 40
1.0
 50
-0.0
 51
90.0
  0
POLYLINE
  8
Group052
 62
0
 70
0
 66
1
 10
0.0
 20
0.0
 30
0.0
  0
VERTEX
  8
Group052
 10
131.7249999999
 20
-59.50000000000003
 30
0.0
  0
VERTEX
  8
Group052
 10
131.7249999999
 20
-59.00000000000003
 30
0.0
  0
SEQEND
  8
Group052
  0
ARC
  8
Group052
 62
0
 10
130.72499999989998
 20
-59.0
 30
0.0
 40
1.0
 50
-0.0
 51
90.0
  0
POLYLINE
  8
Group052
 62
0
 70
0
 66
1
 10
0.0
 20
0.0
 30
0.0
  0
VERTEX
  8
Group052
 10
146.15
 20
-59.5
 30
0.0
  0
VERTEX
  8
Group052
 10
146.15
 20
-59.0
 30
0.0
  0
SEQEND
  8
Group052
  0
POLYLINE
  8
Group052
 62
0
 70
0
 66
1
 10
0.0
 20
0.0
 30
0.0
  0
VERTEX
  8
Group052
 10
131.725
 20
-59.5
 30
0.0
  0
VERTEX
  8
Group052
 10
146.15
 20
-59.5
 30
0.0
  0
SEQEND
  8
Group052
  0
POLYLINE
  8
Group052
 62
0
 70
0
 66
1
 10
0.0
 20
0.0
 30
0.0
  0
VERTEX
  8
Group052
 10
123.35
 20
-58.0
 30
0.0
  0
VERTEX
  8
Group052
 10
130.725
 20
-58.0
 30
0.0
  0
SEQEND
  8
Group052
  0
ARC
  8
Group052
 62
0
 10
147.15
 20
-59.0
 30
0.0
 40
1.0
 50
90.0
 51
-180.0
  0
ARC
  8
Group052
 62
0
 10
154.52499999990005
 20
-72.5
 30
0.0
 40
1.0
 50
-90.0
 51
-0.0
  0
POLYLINE
  8
Group052
 62
0
 70
0
 66
1
 10
0.0
 20
0.0
 30
0.0
  0
VERTEX
  8
Group052
 10
155.52499999990002
 20
-72.5
 30
0.0
  0
VERTEX
  8
Group052
 10
155.52499999990002
 20
-59.0
 30
0.0
  0
SEQEND
  8
Group052
  0
POLYLINE
  8
Group052
 62
0
 70
0
 66
1
 10
0.0
 20
0.0
 30
0.0
  0
VERTEX
  8
Group052
 10
114.425
 20
-73.5
 30
0.0
  0
VERTEX
  8
Group052
 10
154.525
 20
-73.5
 30
0.0
  0
SEQEND
  8
Group052
  0
POLYLINE
  8
Group052
 62
0
 70
0
 66
1
 10
0.0
 20
0.0
 30
0.0
  0
VERTEX
  8
Group052
 10
147.15
 20
-58.0
 30
0.0
  0
VERTEX
  8
Group052
 10
154.525
 20
-58.0
 30
0.0
  0
SEQEND
  8
Group052
  0
ARC
  8
Group058
 62
0
 10
3.5
 20
-38.0
 30
0.0
 40
2.25
 50
-90.0
 51
89.99999999999997
  0
ARC
  8
Group058
 62
0
 10
0.999999999999997
 20
-35.25
 30
0.0
 40
0.5
 50
-180.0
 51
-90.0
  0
POLYLINE
  8
Group058
 62
0
 70
0
 66
1
 10
0.0
 20
0.0
 30
0.0
  0
VERTEX
  8
Group058
 10
1.0
 20
-35.75
 30
0.0
  0
VERTEX
  8
Group058
 10
3.5
 20
-35.75
 30
0.0
  0
SEQEND
  8
Group058
  0
ARC
  8
Group058
 62
0
 10
1.0
 20
-40.75
 30
0.0
 40
0.5
 50
90.00000000000003
 51
-180.0
  0
POLYLINE
  8
Group058
 62
0
 70
0
 66
1
 10
0.0
 20
0.0
 30
0.0
  0
VERTEX
  8
Group058
 10
3.5
 20
-40.25
 30
0.0
  0
VERTEX
  8
Group058
 10
1.0
 20
-40.25
 30
0.0
  0
SEQEND
  8
Group058
  0
ARC
  8
Group059
 62
0
 10
243.5
 20
-38.0
 30
0.0
 40
2.25
 50
90.0
 51
-90.0
  0
POLYLINE
  8
Group059
 62
0
 70
0
 66
1
 10
0.0
 20
0.0
 30
0.0
  0
VERTEX
  8
Group059
 10
246.0
 20
-40.25
 30
0.0
  0
VERTEX
  8
Group059
 10
243.5
 20
-40.25
 30
0.0
  0
SEQEND
  8
Group059
  0
POLYLINE
  8
Group059
 62
0
 70
0
 66
1
 10
0.0
 20
0.0
 30
0.0
  0
VERTEX
  8
Group059
 10
243.5
 20
-35.75
 30
0.0
  0
VERTEX
  8
Group059
 10
246.0
 20
-35.75
 30
0.0
  0
SEQEND
  8
Group059
  0
ARC
  8
Group059
 62
0
 10
246.0
 20
-35.25
 30
0.0
 40
0.5
 50
-90.0
 51
-0.0
  0
ARC
  8
Group059
 62
0
 10
246.0
 20
-40.75
 30
0.0
 40
0.5
 50
-0.0
 51
90.0
  0
ARC
  8
Group060
 62
0
 10
40.199999999999996
 20
-12.049999999999997
 30
0.0
 40
0.3
 50
-0.0
 51
90.0
  0
ARC
  8
Group060
 62
0
 10
35.8
 20
-6.950000000000003
 30
0.0
 40
0.3
 50
-180.0
 51
-90.0
  0
ARC
  8
Group060
 62
0
 10
40.2
 20
-6.950000000000003
 30
0.0
 40
0.3
 50
-90.0
 51
-0.0
  0
ARC
  8
Group060
 62
0
 10
35.79999999999999
 20
-12.049999999999997
 30
0.0
 40
0.3
 50
90.0
 51
-180.0
  0
POLYLINE
  8
Group060
 62
0
 70
0
 66
1
 10
0.0
 20
0.0
 30
0.0
  0
VERTEX
  8
Group060
 10
35.8
 20
-7.25
 30
0.0
  0
VERTEX
  8
Group060
 10
40.2
 20
-7.25
 30
0.0
  0
SEQEND
  8
Group060
  0
POLYLINE
  8
Group060
 62
0
 70
0
 66
1
 10
0.0
 20
0.0
 30
0.0
  0
VERTEX
  8
Group060
 10
35.8
 20
-11.75
 30
0.0
  0
VERTEX
  8
Group060
 10
40.2
 20
-11.75
 30
0.0
  0
SEQEND
  8
Group060
  0
POLYLINE
  8
Group060
 62
0
 70
0
 66
1
 10
0.0
 20
0.0
 30
0.0
  0
VERTEX
  8
Group060
 10
35.5
 20
-2.799999999999997
 30
0.0
  0
VERTEX
  8
Group060
 10
35.5
 20
-6.950000000000003
 30
0.0
  0
SEQEND
  8
Group060
  0
POLYLINE
  8
Group060
 62
0
 70
0
 66
1
 10
0.0
 20
0.0
 30
0.0
  0
VERTEX
  8
Group060
 10
40.5
 20
-2.799999999999997
 30
0.0
  0
VERTEX
  8
Group060
 10
40.5
 20
-6.950000000000003
 30
0.0
  0
SEQEND
  8
Group060
  0
POLYLINE
  8
Group060
 62
0
 70
0
 66
1
 10
0.0
 20
0.0
 30
0.0
  0
VERTEX
  8
Group060
 10
35.5
 20
-12.049999999999997
 30
0.0
  0
VERTEX
  8
Group060
 10
35.5
 20
-16.200000000000003
 30
0.0
  0
SEQEND
  8
Group060
  0
POLYLINE
  8
Group060
 62
0
 70
0
 66
1
 10
0.0
 20
0.0
 30
0.0
  0
VERTEX
  8
Group060
 10
40.5
 20
-16.200000000000003
 30
0.0
  0
VERTEX
  8
Group060
 10
40.5
 20
-12.049999999999997
 30
0.0
  0
SEQEND
  8
Group060
  0
ARC
  8
Group062
 62
0
 10
211.2
 20
-12.049999999999997
 30
0.0
 40
0.3
 50
-0.0
 51
90.0
  0
ARC
  8
Group062
 62
0
 10
206.8
 20
-6.950000000000003
 30
0.0
 40
0.3
 50
-180.0
 51
-90.0
  0
ARC
  8
Group062
 62
0
 10
211.2
 20
-6.950000000000003
 30
0.0
 40
0.3
 50
-90.0
 51
-0.0
  0
ARC
  8
Group062
 62
0
 10
206.79999999999998
 20
-12.049999999999997
 30
0.0
 40
0.3
 50
90.0
 51
-180.0
  0
POLYLINE
  8
Group062
 62
0
 70
0
 66
1
 10
0.0
 20
0.0
 30
0.0
  0
VERTEX
  8
Group062
 10
206.8
 20
-7.25
 30
0.0
  0
VERTEX
  8
Group062
 10
211.2
 20
-7.25
 30
0.0
  0
SEQEND
  8
Group062
  0
POLYLINE
  8
Group062
 62
0
 70
0
 66
1
 10
0.0
 20
0.0
 30
0.0
  0
VERTEX
  8
Group062
 10
206.8
 20
-11.75
 30
0.0
  0
VERTEX
  8
Group062
 10
211.2
 20
-11.75
 30
0.0
  0
SEQEND
  8
Group062
  0
POLYLINE
  8
Group062
 62
0
 70
0
 66
1
 10
0.0
 20
0.0
 30
0.0
  0
VERTEX
  8
Group062
 10
206.5
 20
-2.799999999999997
 30
0.0
  0
VERTEX
  8
Group062
 10
206.5
 20
-6.950000000000003
 30
0.0
  0
SEQEND
  8
Group062
  0
POLYLINE
  8
Group062
 62
0
 70
0
 66
1
 10
0.0
 20
0.0
 30
0.0
  0
VERTEX
  8
Group062
 10
211.5
 20
-2.799999999999997
 30
0.0
  0
VERTEX
  8
Group062
 10
211.5
 20
-6.950000000000003
 30
0.0
  0
SEQEND
  8
Group062
  0
POLYLINE
  8
Group062
 62
0
 70
0
 66
1
 10
0.0
 20
0.0
 30
0.0
  0
VERTEX
  8
Group062
 10
206.5
 20
-12.049999999999997
 30
0.0
  0
VERTEX
  8
Group062
 10
206.5
 20
-16.200000000000003
 30
0.0
  0
SEQEND
  8
Group062
  0
POLYLINE
  8
Group062
 62
0
 70
0
 66
1
 10
0.0
 20
0.0
 30
0.0
  0
VERTEX
  8
Group062
 10
211.5
 20
-16.200000000000003
 30
0.0
  0
VERTEX
  8
Group062
 10
211.5
 20
-12.049999999999997
 30
0.0
  0
SEQEND
  8
Group062
  0
ARC
  8
Group063
 62
0
 10
113.82499999999999
 20
-69.05
 30
0.0
 40
0.3
 50
-0.0
 51
90.0
  0
ARC
  8
Group063
 62
0
 10
109.42500000000001
 20
-63.95
 30
0.0
 40
0.3
 50
-180.0
 51
-90.0
  0
ARC
  8
Group063
 62
0
 10
113.82499999999999
 20
-63.95
 30
0.0
 40
0.3
 50
-90.0
 51
-0.0
  0
ARC
  8
Group063
 62
0
 10
109.42499999999998
 20
-69.05
 30
0.0
 40
0.3
 50
90.0
 51
-180.0
  0
POLYLINE
  8
Group063
 62
0
 70
0
 66
1
 10
0.0
 20
0.0
 30
0.0
  0
VERTEX
  8
Group063
 10
109.42500000000001
 20
-64.25
 30
0.0
  0
VERTEX
  8
Group063
 10
113.82499999999999
 20
-64.25
 30
0.0
  0
SEQEND
  8
Group063
  0
POLYLINE
  8
Group063
 62
0
 70
0
 66
1
 10
0.0
 20
0.0
 30
0.0
  0
VERTEX
  8
Group063
 10
109.42500000000001
 20
-68.75
 30
0.0
  0
VERTEX
  8
Group063
 10
113.82499999999999
 20
-68.75
 30
0.0
  0
SEQEND
  8
Group063
  0
POLYLINE
  8
Group063
 62
0
 70
0
 66
1
 10
0.0
 20
0.0
 30
0.0
  0
VERTEX
  8
Group063
 10
109.125
 20
-59.8
 30
0.0
  0
VERTEX
  8
Group063
 10
109.125
 20
-63.95
 30
0.0
  0
SEQEND
  8
Group063
  0
POLYLINE
  8
Group063
 62
0
 70
0
 66
1
 10
0.0
 20
0.0
 30
0.0
  0
VERTEX
  8
Group063
 10
114.125
 20
-59.8
 30
0.0
  0
VERTEX
  8
Group063
 10
114.125
 20
-63.95
 30
0.0
  0
SEQEND
  8
Group063
  0
POLYLINE
  8
Group063
 62
0
 70
0
 66
1
 10
0.0
 20
0.0
 30
0.0
  0
VERTEX
  8
Group063
 10
109.125
 20
-69.05
 30
0.0
  0
VERTEX
  8
Group063
 10
109.125
 20
-73.2
 30
0.0
  0
SEQEND
  8
Group063
  0
POLYLINE
  8
Group063
 62
0
 70
0
 66
1
 10
0.0
 20
0.0
 30
0.0
  0
VERTEX
  8
Group063
 10
114.125
 20
-73.2
 30
0.0
  0
VERTEX
  8
Group063
 10
114.125
 20
-69.05
 30
0.0
  0
SEQEND
  8
Group063
  0
ARC
  8
Group064
 62
0
 10
23.5
 20
-66.5
 30
0.0
 40
2.25
 50
90.0
 51
-90.0
  0
ARC
  8
Group064
 62
0
 10
25.75
 20
-63.75
 30
0.0
 40
0.5
 50
-90.0
 51
-0.0
  0
ARC
  8
Group064
 62
0
 10
25.750000000000004
 20
-69.25
 30
0.0
 40
0.5
 50
-0.0
 51
90.0
  0
POLYLINE
  8
Group064
 62
0
 70
0
 66
1
 10
0.0
 20
0.0
 30
0.0
  0
VERTEX
  8
Group064
 10
26.25
 20
-59.8
 30
0.0
  0
VERTEX
  8
Group064
 10
26.25
 20
-63.75
 30
0.0
  0
SEQEND
  8
Group064
  0
POLYLINE
  8
Group064
 62
0
 70
0
 66
1
 10
0.0
 20
0.0
 30
0.0
  0
VERTEX
  8
Group064
 10
23.5
 20
-64.25
 30
0.0
  0
VERTEX
  8
Group064
 10
25.75
 20
-64.25
 30
0.0
  0
SEQEND
  8
Group064
  0
POLYLINE
  8
Group064
 62
0
 70
0
 66
1
 10
0.0
 20
0.0
 30
0.0
  0
VERTEX
  8
Group064
 10
23.5
 20
-68.75
 30
0.0
  0
VERTEX
  8
Group064
 10
25.75
 20
-68.75
 30
0.0
  0
SEQEND
  8
Group064
  0
POLYLINE
  8
Group064
 62
0
 70
0
 66
1
 10
0.0
 20
0.0
 30
0.0
  0
VERTEX
  8
Group064
 10
26.25
 20
-69.25
 30
0.0
  0
VERTEX
  8
Group064
 10
26.25
 20
-73.2
 30
0.0
  0
SEQEND
  8
Group064
  0
ARC
  8
Group068
 62
0
 10
116.19999999999999
 20
-12.049999999999997
 30
0.0
 40
0.3
 50
-0.0
 51
90.0
  0
ARC
  8
Group068
 62
0
 10
111.8
 20
-6.950000000000003
 30
0.0
 40
0.3
 50
-180.0
 51
-90.0
  0
ARC
  8
Group068
 62
0
 10
116.2
 20
-6.950000000000003
 30
0.0
 40
0.3
 50
-90.0
 51
-0.0
  0
ARC
  8
Group068
 62
0
 10
111.79999999999998
 20
-12.049999999999997
 30
0.0
 40
0.3
 50
90.0
 51
-180.0
  0
POLYLINE
  8
Group068
 62
0
 70
0
 66
1
 10
0.0
 20
0.0
 30
0.0
  0
VERTEX
  8
Group068
 10
111.8
 20
-7.25
 30
0.0
  0
VERTEX
  8
Group068
 10
116.2
 20
-7.25
 30
0.0
  0
SEQEND
  8
Group068
  0
POLYLINE
  8
Group068
 62
0
 70
0
 66
1
 10
0.0
 20
0.0
 30
0.0
  0
VERTEX
  8
Group068
 10
111.8
 20
-11.75
 30
0.0
  0
VERTEX
  8
Group068
 10
116.2
 20
-11.75
 30
0.0
  0
SEQEND
  8
Group068
  0
POLYLINE
  8
Group068
 62
0
 70
0
 66
1
 10
0.0
 20
0.0
 30
0.0
  0
VERTEX
  8
Group068
 10
111.5
 20
-2.799999999999997
 30
0.0
  0
VERTEX
  8
Group068
 10
111.5
 20
-6.950000000000003
 30
0.0
  0
SEQEND
  8
Group068
  0
POLYLINE
  8
Group068
 62
0
 70
0
 66
1
 10
0.0
 20
0.0
 30
0.0
  0
VERTEX
  8
Group068
 10
116.5
 20
-2.799999999999997
 30
0.0
  0
VERTEX
  8
Group068
 10
116.5
 20
-6.950000000000003
 30
0.0
  0
SEQEND
  8
Group068
  0
POLYLINE
  8
Group068
 62
0
 70
0
 66
1
 10
0.0
 20
0.0
 30
0.0
  0
VERTEX
  8
Group068
 10
111.5
 20
-12.049999999999997
 30
0.0
  0
VERTEX
  8
Group068
 10
111.5
 20
-16.200000000000003
 30
0.0
  0
SEQEND
  8
Group068
  0
POLYLINE
  8
Group068
 62
0
 70
0
 66
1
 10
0.0
 20
0.0
 30
0.0
  0
VERTEX
  8
Group068
 10
116.5
 20
-16.200000000000003
 30
0.0
  0
VERTEX
  8
Group068
 10
116.5
 20
-12.049999999999997
 30
0.0
  0
SEQEND
  8
Group068
  0
ARC
  8
Group076
 62
0
 10
223.25
 20
-66.5
 30
0.0
 40
2.25
 50
-90.0
 51
90.0
  0
POLYLINE
  8
Group076
 62
0
 70
0
 66
1
 10
0.0
 20
0.0
 30
0.0
  0
VERTEX
  8
Group076
 10
223.25
 20
-64.25
 30
0.0
  0
VERTEX
  8
Group076
 10
220.75
 20
-64.25
 30
0.0
  0
SEQEND
  8
Group076
  0
POLYLINE
  8
Group076
 62
0
 70
0
 66
1
 10
0.0
 20
0.0
 30
0.0
  0
VERTEX
  8
Group076
 10
223.25
 20
-68.75
 30
0.0
  0
VERTEX
  8
Group076
 10
220.75
 20
-68.75
 30
0.0
  0
SEQEND
  8
Group076
  0
POLYLINE
  8
Group076
 62
0
 70
0
 66
1
 10
0.0
 20
0.0
 30
0.0
  0
VERTEX
  8
Group076
 10
220.75
 20
-59.8
 30
0.0
  0
VERTEX
  8
Group076
 10
220.75
 20
-64.25
 30
0.0
  0
SEQEND
  8
Group076
  0
POLYLINE
  8
Group076
 62
0
 70
0
 66
1
 10
0.0
 20
0.0
 30
0.0
  0
VERTEX
  8
Group076
 10
220.75
 20
-68.75
 30
0.0
  0
VERTEX
  8
Group076
 10
220.75
 20
-73.19999999996
 30
0.0
  0
SEQEND
  8
Group076
  0
POLYLINE
  8
Border
 62
0
 70
0
 66
1
 10
0.0
 20
0.0
 30
0.0
  0
VERTEX
  8
Border
 10
2.5
 20
-0.5
 30
0.0
  0
VERTEX
  8
Border
 10
244.5
 20
-0.5
 30
0.0
  0
SEQEND
  8
Border
  0
POLYLINE
  8
Border
 62
0
 70
0
 66
1
 10
0.0
 20
0.0
 30
0.0
  0
VERTEX
  8
Border
 10
246.5
 20
-2.5
 30
0.0
  0
VERTEX
  8
Border
 10
246.5
 20
-35.25
 30
0.0
  0
SEQEND
  8
Border
  0
POLYLINE
  8
Border
 62
0
 70
0
 66
1
 10
0.0
 20
0.0
 30
0.0
  0
VERTEX
  8
Border
 10
246.5
 20
-40.75
 30
0.0
  0
VERTEX
  8
Border
 10
246.5
 20
-73.5
 30
0.0
  0
SEQEND
  8
Border
  0
POLYLINE
  8
Border
 62
0
 70
0
 66
1
 10
0.0
 20
0.0
 30
0.0
  0
VERTEX
  8
Border
 10
244.5
 20
-75.5
 30
0.0
  0
VERTEX
  8
Border
 10
2.5
 20
-75.5
 30
0.0
  0
SEQEND
  8
Border
  0
POLYLINE
  8
Border
 62
0
 70
0
 66
1
 10
0.0
 20
0.0
 30
0.0
  0
VERTEX
  8
Border
 10
0.5
 20
-73.5
 30
0.0
  0
VERTEX
  8
Border
 10
0.5
 20
-40.75
 30
0.0
  0
SEQEND
  8
Border
  0
POLYLINE
  8
Border
 62
0
 70
0
 66
1
 10
0.0
 20
0.0
 30
0.0
  0
VERTEX
  8
Border
 10
0.5
 20
-35.25
 30
0.0
  0
VERTEX
  8
Border
 10
0.5
 20
-2.5
 30
0.0
  0
SEQEND
  8
Border
  0
CIRCLE
  8
0
 62
0
 10
28.0
 20
-47.5
 30
0.0
 40
2.0
  0
CIRCLE
  8
0
 62
0
 10
22.0
 20
-28.5
 30
0.0
 40
1.5
  0
ENDSEC
  0
EOF
