  0
SECTION
  2
HEADER
  9
$ACADVER
  1
AC1009
  9
$INSBASE
 10
0.0
 20
0.0
 30
0.0
  9
$EXTMIN
 10
0.0
 20
0.0
 30
0.0
  9
$EXTMAX
 10
0.0
 20
0.0
 30
0.0
  0
ENDSEC
  0
SECTION
  2
TABLES
  0
TABLE
  2
VPORT
 70
0
  0
ENDTAB
  0
TABLE
  2
LTYPE
 70
1
  0
LTYPE
  2
CONTINUOUS
 70
0
  3
Solid line
 72
65
 73
0
 40
0.0
  0
ENDTAB
  0
TABLE
  2
LAYER
 70
1
  0
LAYER
  2
0
 70
64
 62
7
  6
continuous
  0
ENDTAB
  0
TABLE
  2
STYLE
 70
1
  0
STYLE
  2
STANDARD
 70
0
 40
0
 41
1.0
 50
0.0
 71
0
 42
1
 3
ARIAL.TTF
 4

  0
ENDTAB
  0
TABLE
  2
VIEW
 70
0
  0
ENDTAB
  0
ENDSEC
  0
SECTION
  2
BLOCKS
  0
ENDSEC
  0
SECTION
  2
ENTITIES
  0
POLYLINE
  8
LED
 62
0
 70
0
 66
1
 10
0.0
 20
0.0
 30
0.0
  0
VERTEX
  8
LED
 10
20.5
 20
-27.5
 30
0.0
  0
VERTEX
  8
LED
 10
23.5
 20
-27.5
 30
0.0
  0
SEQEND
  8
LED
  0
POLYLINE
  8
LED
 62
0
 70
0
 66
1
 10
0.0
 20
0.0
 30
0.0
  0
VERTEX
  8
LED
 10
24.0
 20
-29.0
 30
0.0
  0
VERTEX
  8
LED
 10
24.0
 20
-28.0
 30
0.0
  0
SEQEND
  8
LED
  0
ARC
  8
LED
 62
0
 10
23.5
 20
-28.0
 30
0.0
 40
0.5
 50
-0.0
 51
90.0
  0
ARC
  8
LED
 62
0
 10
20.5
 20
-28.0
 30
0.0
 40
0.5
 50
90.0
 51
-180.0
  0
POLYLINE
  8
LED
 62
0
 70
0
 66
1
 10
0.0
 20
0.0
 30
0.0
  0
VERTEX
  8
LED
 10
20.0
 20
-28.0
 30
0.0
  0
VERTEX
  8
LED
 10
20.0
 20
-29.0
 30
0.0
  0
SEQEND
  8
LED
  0
ARC
  8
LED
 62
0
 10
20.500000000000007
 20
-29.0
 30
0.0
 40
0.5
 50
-180.0
 51
-90.0
  0
POLYLINE
  8
LED
 62
0
 70
0
 66
1
 10
0.0
 20
0.0
 30
0.0
  0
VERTEX
  8
LED
 10
23.500000000000007
 20
-29.5
 30
0.0
  0
VERTEX
  8
LED
 10
20.500000000000007
 20
-29.5
 30
0.0
  0
SEQEND
  8
LED
  0
ARC
  8
LED
 62
0
 10
23.500000000000007
 20
-29.0
 30
0.0
 40
0.5
 50
-90.0
 51
-0.0
  0
POLYLINE
  8
Reset
 62
0
 70
0
 66
1
 10
0.0
 20
0.0
 30
0.0
  0
VERTEX
  8
Reset
 10
25.5
 20
-43.0
 30
0.0
  0
VERTEX
  8
Reset
 10
30.5
 20
-43.0
 30
0.0
  0
SEQEND
  8
Reset
  0
POLYLINE
  8
Reset
 62
0
 70
0
 66
1
 10
0.0
 20
0.0
 30
0.0
  0
VERTEX
  8
Reset
 10
31.0
 20
-51.5
 30
0.0
  0
VERTEX
  8
Reset
 10
31.0
 20
-43.5
 30
0.0
  0
SEQEND
  8
Reset
  0
ARC
  8
Reset
 62
0
 10
25.5
 20
-43.5
 30
0.0
 40
0.5
 50
90.0
 51
-180.0
  0
ARC
  8
Reset
 62
0
 10
30.5
 20
-43.5
 30
0.0
 40
0.5
 50
-0.0
 51
90.0
  0
ARC
  8
Reset
 62
0
 10
30.5
 20
-51.50000000000001
 30
0.0
 40
0.5
 50
-90.0
 51
-0.0
  0
POLYLINE
  8
Reset
 62
0
 70
0
 66
1
 10
0.0
 20
0.0
 30
0.0
  0
VERTEX
  8
Reset
 10
30.5
 20
-52.00000000000001
 30
0.0
  0
VERTEX
  8
Reset
 10
25.5
 20
-52.000000000000014
 30
0.0
  0
SEQEND
  8
Reset
  0
ARC
  8
Reset
 62
0
 10
25.5
 20
-51.50000000000001
 30
0.0
 40
0.5
 50
-180.0
 51
-90.0
  0
POLYLINE
  8
Reset
 62
0
 70
0
 66
1
 10
0.0
 20
0.0
 30
0.0
  0
VERTEX
  8
Reset
 10
25.0
 20
-51.50000000000001
 30
0.0
  0
VERTEX
  8
Reset
 10
25.0
 20
-43.5
 30
0.0
  0
SEQEND
  8
Reset
  0
POLYLINE
  8
Group072
 62
0
 70
0
 66
1
 10
0.0
 20
0.0
 30
0.0
  0
VERTEX
  8
Group072
 10
18.875
 20
-73.0
 30
0.0
  0
VERTEX
  8
Group072
 10
18.875
 20
-60.0
 30
0.0
  0
SEQEND
  8
Group072
  0
ARC
  8
Group072
 62
0
 10
18.375
 20
-60.0
 30
0.0
 40
0.5
 50
-0.0
 51
90.0
  0
ARC
  8
Group072
 62
0
 10
5.375
 20
-60.0
 30
0.0
 40
0.5
 50
90.0
 51
-180.0
  0
POLYLINE
  8
Group072
 62
0
 70
0
 66
1
 10
0.0
 20
0.0
 30
0.0
  0
VERTEX
  8
Group072
 10
4.875
 20
-60.0
 30
0.0
  0
VERTEX
  8
Group072
 10
4.875
 20
-73.0
 30
0.0
  0
SEQEND
  8
Group072
  0
ARC
  8
Group072
 62
0
 10
5.375
 20
-73.0
 30
0.0
 40
0.5
 50
-180.0
 51
-90.0
  0
POLYLINE
  8
Group072
 62
0
 70
0
 66
1
 10
0.0
 20
0.0
 30
0.0
  0
VERTEX
  8
Group072
 10
5.375
 20
-59.5
 30
0.0
  0
VERTEX
  8
Group072
 10
18.375
 20
-59.5
 30
0.0
  0
SEQEND
  8
Group072
  0
POLYLINE
  8
Group072
 62
0
 70
0
 66
1
 10
0.0
 20
0.0
 30
0.0
  0
VERTEX
  8
Group072
 10
5.375
 20
-73.5
 30
0.0
  0
VERTEX
  8
Group072
 10
18.375
 20
-73.5
 30
0.0
  0
SEQEND
  8
Group072
  0
ARC
  8
Group072
 62
0
 10
18.375
 20
-73.0
 30
0.0
 40
0.5
 50
-90.0
 51
-0.0
  0
POLYLINE
  8
Group073
 62
0
 70
0
 66
1
 10
0.0
 20
0.0
 30
0.0
  0
VERTEX
  8
Group073
 10
26.75
 20
-59.5
 30
0.0
  0
VERTEX
  8
Group073
 10
39.75
 20
-59.5
 30
0.0
  0
SEQEND
  8
Group073
  0
ARC
  8
Group073
 62
0
 10
39.75
 20
-60.0
 30
0.0
 40
0.5
 50
-0.0
 51
90.0
  0
ARC
  8
Group073
 62
0
 10
26.75
 20
-60.0
 30
0.0
 40
0.5
 50
90.0
 51
-180.0
  0
POLYLINE
  8
Group073
 62
0
 70
0
 66
1
 10
0.0
 20
0.0
 30
0.0
  0
VERTEX
  8
Group073
 10
26.25
 20
-60.0
 30
0.0
  0
VERTEX
  8
Group073
 10
26.25
 20
-73.0
 30
0.0
  0
SEQEND
  8
Group073
  0
ARC
  8
Group073
 62
0
 10
26.75
 20
-73.0
 30
0.0
 40
0.5
 50
-180.0
 51
-90.0
  0
POLYLINE
  8
Group073
 62
0
 70
0
 66
1
 10
0.0
 20
0.0
 30
0.0
  0
VERTEX
  8
Group073
 10
26.75
 20
-73.5
 30
0.0
  0
VERTEX
  8
Group073
 10
39.75
 20
-73.5
 30
0.0
  0
SEQEND
  8
Group073
  0
ARC
  8
Group073
 62
0
 10
39.75
 20
-73.0
 30
0.0
 40
0.5
 50
-90.0
 51
-0.0
  0
POLYLINE
  8
Group073
 62
0
 70
0
 66
1
 10
0.0
 20
0.0
 30
0.0
  0
VERTEX
  8
Group073
 10
40.25
 20
-73.0
 30
0.0
  0
VERTEX
  8
Group073
 10
40.25
 20
-60.0
 30
0.0
  0
SEQEND
  8
Group073
  0
POLYLINE
  8
Group074
 62
0
 70
0
 66
1
 10
0.0
 20
0.0
 30
0.0
  0
VERTEX
  8
Group074
 10
61.625
 20
-73.0
 30
0.0
  0
VERTEX
  8
Group074
 10
61.625
 20
-60.0
 30
0.0
  0
SEQEND
  8
Group074
  0
ARC
  8
Group074
 62
0
 10
61.125
 20
-60.0
 30
0.0
 40
0.5
 50
-0.0
 51
90.0
  0
ARC
  8
Group074
 62
0
 10
61.125
 20
-73.0
 30
0.0
 40
0.5
 50
-90.0
 51
-0.0
  0
POLYLINE
  8
7u space
 62
0
 70
0
 66
1
 10
0.0
 20
0.0
 30
0.0
  0
VERTEX
  8
7u space
 10
140.0
 20
-73.0
 30
0.0
  0
VERTEX
  8
7u space
 10
140.0
 20
-60.0
 30
0.0
  0
SEQEND
  8
7u space
  0
ARC
  8
7u space
 62
0
 10
140.5
 20
-60.0
 30
0.0
 40
0.5
 50
90.0
 51
-180.0
  0
ARC
  8
7u space
 62
0
 10
139.5
 20
-73.0
 30
0.0
 40
0.5
 50
-90.0
 51
-0.0
  0
POLYLINE
  8
7u space
 62
0
 70
0
 66
1
 10
0.0
 20
0.0
 30
0.0
  0
VERTEX
  8
7u space
 10
126.5
 20
-73.5
 30
0.0
  0
VERTEX
  8
7u space
 10
139.5
 20
-73.5
 30
0.0
  0
SEQEND
  8
7u space
  0
ARC
  8
7u space
 62
0
 10
193.4
 20
-56.5
 30
0.0
 40
0.5
 50
-0.0
 51
90.0
  0
ARC
  8
7u space
 62
0
 10
79.1
 20
-75.7
 30
0.0
 40
0.5
 50
-90.0
 51
-0.0
  0
ARC
  8
7u space
 62
0
 10
80.1
 20
-60.0
 30
0.0
 40
0.5
 50
90.0
 51
-180.0
  0
POLYLINE
  8
7u space
 62
0
 70
0
 66
1
 10
0.0
 20
0.0
 30
0.0
  0
VERTEX
  8
7u space
 10
79.6
 20
-60.0
 30
0.0
  0
VERTEX
  8
7u space
 10
79.6
 20
-75.7
 30
0.0
  0
SEQEND
  8
7u space
  0
ARC
  8
7u space
 62
0
 10
186.9
 20
-75.7
 30
0.0
 40
0.5
 50
-180.0
 51
-90.0
  0
POLYLINE
  8
7u space
 62
0
 70
0
 66
1
 10
0.0
 20
0.0
 30
0.0
  0
VERTEX
  8
7u space
 10
186.9
 20
-76.2
 30
0.0
  0
VERTEX
  8
7u space
 10
193.4
 20
-76.2
 30
0.0
  0
SEQEND
  8
7u space
  0
ARC
  8
7u space
 62
0
 10
193.4
 20
-75.7
 30
0.0
 40
0.5
 50
-90.0
 51
-0.0
  0
ARC
  8
7u space
 62
0
 10
182.5
 20
-60.0
 30
0.0
 40
0.5
 50
-0.0
 51
90.0
  0
POLYLINE
  8
Group076
 62
0
 70
0
 66
1
 10
0.0
 20
0.0
 30
0.0
  0
VERTEX
  8
Group076
 10
218.375
 20
-73.0
 30
0.0
  0
VERTEX
  8
Group076
 10
218.375
 20
-60.0
 30
0.0
  0
SEQEND
  8
Group076
  0
ARC
  8
Group076
 62
0
 10
217.875
 20
-60.0
 30
0.0
 40
0.5
 50
-0.0
 51
90.0
  0
ARC
  8
Group076
 62
0
 10
204.875
 20
-60.0
 30
0.0
 40
0.5
 50
90.0
 51
-180.0
  0
POLYLINE
  8
Group076
 62
0
 70
0
 66
1
 10
0.0
 20
0.0
 30
0.0
  0
VERTEX
  8
Group076
 10
204.375
 20
-60.0
 30
0.0
  0
VERTEX
  8
Group076
 10
204.375
 20
-73.0
 30
0.0
  0
SEQEND
  8
Group076
  0
ARC
  8
Group076
 62
0
 10
204.875
 20
-73.0
 30
0.0
 40
0.5
 50
-180.0
 51
-90.0
  0
POLYLINE
  8
Group076
 62
0
 70
0
 66
1
 10
0.0
 20
0.0
 30
0.0
  0
VERTEX
  8
Group076
 10
204.875
 20
-59.5
 30
0.0
  0
VERTEX
  8
Group076
 10
217.875
 20
-59.5
 30
0.0
  0
SEQEND
  8
Group076
  0
POLYLINE
  8
Group076
 62
0
 70
0
 66
1
 10
0.0
 20
0.0
 30
0.0
  0
VERTEX
  8
Group076
 10
204.875
 20
-73.5
 30
0.0
  0
VERTEX
  8
Group076
 10
217.875
 20
-73.5
 30
0.0
  0
SEQEND
  8
Group076
  0
ARC
  8
Group076
 62
0
 10
217.875
 20
-73.0
 30
0.0
 40
0.5
 50
-90.0
 51
-0.0
  0
POLYLINE
  8
Group077
 62
0
 70
0
 66
1
 10
0.0
 20
0.0
 30
0.0
  0
VERTEX
  8
Group077
 10
242.125
 20
-73.0
 30
0.0
  0
VERTEX
  8
Group077
 10
242.125
 20
-60.0
 30
0.0
  0
SEQEND
  8
Group077
  0
ARC
  8
Group077
 62
0
 10
241.625
 20
-60.0
 30
0.0
 40
0.5
 50
-0.0
 51
90.0
  0
ARC
  8
Group077
 62
0
 10
228.625
 20
-60.0
 30
0.0
 40
0.5
 50
90.0
 51
-180.0
  0
POLYLINE
  8
Group077
 62
0
 70
0
 66
1
 10
0.0
 20
0.0
 30
0.0
  0
VERTEX
  8
Group077
 10
228.125
 20
-60.0
 30
0.0
  0
VERTEX
  8
Group077
 10
228.125
 20
-73.0
 30
0.0
  0
SEQEND
  8
Group077
  0
ARC
  8
Group077
 62
0
 10
228.625
 20
-73.0
 30
0.0
 40
0.5
 50
-180.0
 51
-90.0
  0
POLYLINE
  8
Group077
 62
0
 70
0
 66
1
 10
0.0
 20
0.0
 30
0.0
  0
VERTEX
  8
Group077
 10
228.625
 20
-59.5
 30
0.0
  0
VERTEX
  8
Group077
 10
241.625
 20
-59.5
 30
0.0
  0
SEQEND
  8
Group077
  0
POLYLINE
  8
Group077
 62
0
 70
0
 66
1
 10
0.0
 20
0.0
 30
0.0
  0
VERTEX
  8
Group077
 10
228.625
 20
-73.5
 30
0.0
  0
VERTEX
  8
Group077
 10
241.625
 20
-73.5
 30
0.0
  0
SEQEND
  8
Group077
  0
ARC
  8
Group077
 62
0
 10
241.625
 20
-73.0
 30
0.0
 40
0.5
 50
-90.0
 51
-0.0
  0
ARC
  8
Group080
 62
0
 10
45.75
 20
-60.0
 30
0.0
 40
0.5
 50
90.0
 51
-180.0
  0
POLYLINE
  8
Group080
 62
0
 70
0
 66
1
 10
0.0
 20
0.0
 30
0.0
  0
VERTEX
  8
Group080
 10
45.25
 20
-60.0
 30
0.0
  0
VERTEX
  8
Group080
 10
45.25
 20
-73.0
 30
0.0
  0
SEQEND
  8
Group080
  0
ARC
  8
Group080
 62
0
 10
45.75
 20
-73.0
 30
0.0
 40
0.5
 50
-180.0
 51
-90.0
  0
ARC
  8
6.25u space
 62
0
 10
113.625
 20
-60.0
 30
0.0
 40
0.5
 50
-0.0
 51
90.0
  0
POLYLINE
  8
6.25u space
 62
0
 70
0
 66
1
 10
0.0
 20
0.0
 30
0.0
  0
VERTEX
  8
6.25u space
 10
114.125
 20
-60.0
 30
0.0
  0
VERTEX
  8
6.25u space
 10
114.125
 20
-73.0
 30
0.0
  0
SEQEND
  8
6.25u space
  0
ARC
  8
6.25u space
 62
0
 10
114.625
 20
-73.0
 30
0.0
 40
0.5
 50
-180.0
 51
-90.0
  0
POLYLINE
  8
6.25u space
 62
0
 70
0
 66
1
 10
0.0
 20
0.0
 30
0.0
  0
VERTEX
  8
6.25u space
 10
114.625
 20
-73.5
 30
0.0
  0
VERTEX
  8
6.25u space
 10
127.625
 20
-73.5
 30
0.0
  0
SEQEND
  8
6.25u space
  0
ARC
  8
6.25u space
 62
0
 10
67.83699999999999
 20
-56.5
 30
0.0
 40
0.5
 50
90.0
 51
-180.0
  0
ARC
  8
6.25u space
 62
0
 10
67.83699999999999
 20
-75.7
 30
0.0
 40
0.5
 50
-180.0
 51
-90.0
  0
POLYLINE
  8
6.25u space
 62
0
 70
0
 66
1
 10
0.0
 20
0.0
 30
0.0
  0
VERTEX
  8
6.25u space
 10
67.33699999999999
 20
-56.5
 30
0.0
  0
VERTEX
  8
6.25u space
 10
67.33699999999999
 20
-75.7
 30
0.0
  0
SEQEND
  8
6.25u space
  0
ARC
  8
6.25u space
 62
0
 10
167.91299999999998
 20
-75.7
 30
0.0
 40
0.5
 50
-180.0
 51
-90.0
  0
POLYLINE
  8
6.25u space
 62
0
 70
0
 66
1
 10
0.0
 20
0.0
 30
0.0
  0
VERTEX
  8
6.25u space
 10
167.91299999999998
 20
-76.2
 30
0.0
  0
VERTEX
  8
6.25u space
 10
174.41299999999998
 20
-76.2
 30
0.0
  0
SEQEND
  8
6.25u space
  0
ARC
  8
6.25u space
 62
0
 10
174.41299999999998
 20
-75.7
 30
0.0
 40
0.5
 50
-90.0
 51
-0.0
  0
ARC
  8
6.25u space
 62
0
 10
166.91299999999998
 20
-60.0
 30
0.0
 40
0.5
 50
-0.0
 51
90.0
  0
POLYLINE
  8
6.25u space
 62
0
 70
0
 66
1
 10
0.0
 20
0.0
 30
0.0
  0
VERTEX
  8
6.25u space
 10
167.41299999999998
 20
-60.0
 30
0.0
  0
VERTEX
  8
6.25u space
 10
167.41299999999998
 20
-75.7
 30
0.0
  0
SEQEND
  8
6.25u space
  0
ARC
  8
Group083
 62
0
 10
196.5
 20
-60.0
 30
0.0
 40
0.5
 50
-0.0
 51
90.0
  0
POLYLINE
  8
Group083
 62
0
 70
0
 66
1
 10
0.0
 20
0.0
 30
0.0
  0
VERTEX
  8
Group083
 10
183.0
 20
-60.0
 30
0.0
  0
VERTEX
  8
Group083
 10
183.0
 20
-73.0
 30
0.0
  0
SEQEND
  8
Group083
  0
ARC
  8
Group083
 62
0
 10
183.5
 20
-73.0
 30
0.0
 40
0.5
 50
-180.0
 51
-90.0
  0
ARC
  8
Group083
 62
0
 10
196.5
 20
-73.0
 30
0.0
 40
0.5
 50
-90.0
 51
-0.0
  0
POLYLINE
  8
Group083
 62
0
 70
0
 66
1
 10
0.0
 20
0.0
 30
0.0
  0
VERTEX
  8
Group083
 10
197.0
 20
-73.0
 30
0.0
  0
VERTEX
  8
Group083
 10
197.0
 20
-60.0
 30
0.0
  0
SEQEND
  8
Group083
  0
POLYLINE
  8
Row 4 full
 62
0
 70
0
 66
1
 10
0.0
 20
0.0
 30
0.0
  0
VERTEX
  8
Row 4 full
 10
45.75
 20
-59.5
 30
0.0
  0
VERTEX
  8
Row 4 full
 10
61.125
 20
-59.5
 30
0.0
  0
SEQEND
  8
Row 4 full
  0
POLYLINE
  8
Row 4 full
 62
0
 70
0
 66
1
 10
0.0
 20
0.0
 30
0.0
  0
VERTEX
  8
Row 4 full
 10
61.125
 20
-73.5
 30
0.0
  0
VERTEX
  8
Row 4 full
 10
45.75
 20
-73.5
 30
0.0
  0
SEQEND
  8
Row 4 full
  0
POLYLINE
  8
Row 4 full
 62
0
 70
0
 66
1
 10
0.0
 20
0.0
 30
0.0
  0
VERTEX
  8
Row 4 full
 10
80.1
 20
-59.5
 30
0.0
  0
VERTEX
  8
Row 4 full
 10
113.625
 20
-59.5
 30
0.0
  0
SEQEND
  8
Row 4 full
  0
POLYLINE
  8
Row 4 full
 62
0
 70
0
 66
1
 10
0.0
 20
0.0
 30
0.0
  0
VERTEX
  8
Row 4 full
 10
67.83699999999999
 20
-76.2
 30
0.0
  0
VERTEX
  8
Row 4 full
 10
79.1
 20
-76.2
 30
0.0
  0
SEQEND
  8
Row 4 full
  0
POLYLINE
  8
Row 4 full
 62
0
 70
0
 66
1
 10
0.0
 20
0.0
 30
0.0
  0
VERTEX
  8
Row 4 full
 10
67.83699999999999
 20
-56.0
 30
0.0
  0
VERTEX
  8
Row 4 full
 10
193.4
 20
-56.0
 30
0.0
  0
SEQEND
  8
Row 4 full
  0
POLYLINE
  8
Row 4 full
 62
0
 70
0
 66
1
 10
0.0
 20
0.0
 30
0.0
  0
VERTEX
  8
Row 4 full
 10
174.91299999999998
 20
-75.7
 30
0.0
  0
VERTEX
  8
Row 4 full
 10
174.91299999999998
 20
-60.0
 30
0.0
  0
SEQEND
  8
Row 4 full
  0
ARC
  8
Row 4 full
 62
0
 10
175.41299999999998
 20
-60.0
 30
0.0
 40
0.5
 50
90.0
 51
-180.0
  0
POLYLINE
  8
Row 4 full
 62
0
 70
0
 66
1
 10
0.0
 20
0.0
 30
0.0
  0
VERTEX
  8
Row 4 full
 10
166.91299999999998
 20
-59.5
 30
0.0
  0
VERTEX
  8
Row 4 full
 10
140.5
 20
-59.5
 30
0.0
  0
SEQEND
  8
Row 4 full
  0
POLYLINE
  8
Row 4 full
 62
0
 70
0
 66
1
 10
0.0
 20
0.0
 30
0.0
  0
VERTEX
  8
Row 4 full
 10
182.5
 20
-59.5
 30
0.0
  0
VERTEX
  8
Row 4 full
 10
175.41299999999998
 20
-59.5
 30
0.0
  0
SEQEND
  8
Row 4 full
  0
ARC
  8
Row 4 full
 62
0
 10
194.4
 20
-59.0
 30
0.0
 40
0.5
 50
-180.0
 51
-90.0
  0
POLYLINE
  8
Row 4 full
 62
0
 70
0
 66
1
 10
0.0
 20
0.0
 30
0.0
  0
VERTEX
  8
Row 4 full
 10
194.4
 20
-59.5
 30
0.0
  0
VERTEX
  8
Row 4 full
 10
196.5
 20
-59.5
 30
0.0
  0
SEQEND
  8
Row 4 full
  0
ARC
  8
Row 4 full
 62
0
 10
194.4
 20
-74.0
 30
0.0
 40
0.5
 50
90.0
 51
-180.0
  0
ARC
  8
Row 4 full
 62
0
 10
185.9
 20
-74.0
 30
0.0
 40
0.5
 50
-0.0
 51
90.0
  0
POLYLINE
  8
Row 4 full
 62
0
 70
0
 66
1
 10
0.0
 20
0.0
 30
0.0
  0
VERTEX
  8
Row 4 full
 10
193.9
 20
-59.0
 30
0.0
  0
VERTEX
  8
Row 4 full
 10
193.9
 20
-56.5
 30
0.0
  0
SEQEND
  8
Row 4 full
  0
POLYLINE
  8
Row 4 full
 62
0
 70
0
 66
1
 10
0.0
 20
0.0
 30
0.0
  0
VERTEX
  8
Row 4 full
 10
196.5
 20
-73.5
 30
0.0
  0
VERTEX
  8
Row 4 full
 10
194.4
 20
-73.5
 30
0.0
  0
SEQEND
  8
Row 4 full
  0
POLYLINE
  8
Row 4 full
 62
0
 70
0
 66
1
 10
0.0
 20
0.0
 30
0.0
  0
VERTEX
  8
Row 4 full
 10
193.9
 20
-74.0
 30
0.0
  0
VERTEX
  8
Row 4 full
 10
193.9
 20
-75.7
 30
0.0
  0
SEQEND
  8
Row 4 full
  0
POLYLINE
  8
Row 4 full
 62
0
 70
0
 66
1
 10
0.0
 20
0.0
 30
0.0
  0
VERTEX
  8
Row 4 full
 10
186.4
 20
-75.7
 30
0.0
  0
VERTEX
  8
Row 4 full
 10
186.4
 20
-74.0
 30
0.0
  0
SEQEND
  8
Row 4 full
  0
POLYLINE
  8
Row 4 full
 62
0
 70
0
 66
1
 10
0.0
 20
0.0
 30
0.0
  0
VERTEX
  8
Row 4 full
 10
185.9
 20
-73.5
 30
0.0
  0
VERTEX
  8
Row 4 full
 10
183.5
 20
-73.5
 30
0.0
  0
SEQEND
  8
Row 4 full
  0
ARC
  8
Group037
 62
0
 10
23.125
 20
-41.0
 30
0.0
 40
0.5
 50
-0.0
 51
90.0
  0
POLYLINE
  8
Group037
 62
0
 70
0
 66
1
 10
0.0
 20
0.0
 30
0.0
  0
VERTEX
  8
Group037
 10
23.625
 20
-54.0
 30
0.0
  0
VERTEX
  8
Group037
 10
23.625
 20
-41.0
 30
0.0
  0
SEQEND
  8
Group037
  0
ARC
  8
Group037
 62
0
 10
23.125
 20
-54.0
 30
0.0
 40
0.5
 50
-90.0
 51
-0.0
  0
POLYLINE
  8
Group037
 62
0
 70
0
 66
1
 10
0.0
 20
0.0
 30
0.0
  0
VERTEX
  8
Group037
 10
9.625
 20
-41.0
 30
0.0
  0
VERTEX
  8
Group037
 10
9.625
 20
-54.0
 30
0.0
  0
SEQEND
  8
Group037
  0
POLYLINE
  8
Group037
 62
0
 70
0
 66
1
 10
0.0
 20
0.0
 30
0.0
  0
VERTEX
  8
Group037
 10
10.125
 20
-40.5
 30
0.0
  0
VERTEX
  8
Group037
 10
23.125
 20
-40.5
 30
0.0
  0
SEQEND
  8
Group037
  0
ARC
  8
Group037
 62
0
 10
10.125
 20
-41.0
 30
0.0
 40
0.5
 50
90.0
 51
-180.0
  0
ARC
  8
Group037
 62
0
 10
10.125
 20
-54.0
 30
0.0
 40
0.5
 50
-180.0
 51
-90.0
  0
POLYLINE
  8
Group037
 62
0
 70
0
 66
1
 10
0.0
 20
0.0
 30
0.0
  0
VERTEX
  8
Group037
 10
10.125
 20
-54.5
 30
0.0
  0
VERTEX
  8
Group037
 10
23.125
 20
-54.5
 30
0.0
  0
SEQEND
  8
Group037
  0
POLYLINE
  8
Group038
 62
0
 70
0
 66
1
 10
0.0
 20
0.0
 30
0.0
  0
VERTEX
  8
Group038
 10
36.25
 20
-40.5
 30
0.0
  0
VERTEX
  8
Group038
 10
49.25
 20
-40.5
 30
0.0
  0
SEQEND
  8
Group038
  0
ARC
  8
Group038
 62
0
 10
49.25
 20
-41.0
 30
0.0
 40
0.5
 50
-0.0
 51
90.0
  0
ARC
  8
Group038
 62
0
 10
36.25
 20
-41.0
 30
0.0
 40
0.5
 50
90.0
 51
-180.0
  0
POLYLINE
  8
Group038
 62
0
 70
0
 66
1
 10
0.0
 20
0.0
 30
0.0
  0
VERTEX
  8
Group038
 10
35.75
 20
-41.0
 30
0.0
  0
VERTEX
  8
Group038
 10
35.75
 20
-54.0
 30
0.0
  0
SEQEND
  8
Group038
  0
ARC
  8
Group038
 62
0
 10
36.25
 20
-54.0
 30
0.0
 40
0.5
 50
-180.0
 51
-90.0
  0
POLYLINE
  8
Group038
 62
0
 70
0
 66
1
 10
0.0
 20
0.0
 30
0.0
  0
VERTEX
  8
Group038
 10
36.25
 20
-54.5
 30
0.0
  0
VERTEX
  8
Group038
 10
49.25
 20
-54.5
 30
0.0
  0
SEQEND
  8
Group038
  0
ARC
  8
Group038
 62
0
 10
49.25
 20
-54.0
 30
0.0
 40
0.5
 50
-90.0
 51
-0.0
  0
POLYLINE
  8
Group038
 62
0
 70
0
 66
1
 10
0.0
 20
0.0
 30
0.0
  0
VERTEX
  8
Group038
 10
49.75
 20
-54.0
 30
0.0
  0
VERTEX
  8
Group038
 10
49.75
 20
-41.0
 30
0.0
  0
SEQEND
  8
Group038
  0
POLYLINE
  8
Group039
 62
0
 70
0
 66
1
 10
0.0
 20
0.0
 30
0.0
  0
VERTEX
  8
Group039
 10
55.25
 20
-40.5
 30
0.0
  0
VERTEX
  8
Group039
 10
68.25
 20
-40.5
 30
0.0
  0
SEQEND
  8
Group039
  0
ARC
  8
Group039
 62
0
 10
68.25
 20
-41.0
 30
0.0
 40
0.5
 50
-0.0
 51
90.0
  0
ARC
  8
Group039
 62
0
 10
55.25
 20
-41.0
 30
0.0
 40
0.5
 50
90.0
 51
-180.0
  0
POLYLINE
  8
Group039
 62
0
 70
0
 66
1
 10
0.0
 20
0.0
 30
0.0
  0
VERTEX
  8
Group039
 10
54.75
 20
-41.0
 30
0.0
  0
VERTEX
  8
Group039
 10
54.75
 20
-54.0
 30
0.0
  0
SEQEND
  8
Group039
  0
ARC
  8
Group039
 62
0
 10
55.25
 20
-54.0
 30
0.0
 40
0.5
 50
-180.0
 51
-90.0
  0
POLYLINE
  8
Group039
 62
0
 70
0
 66
1
 10
0.0
 20
0.0
 30
0.0
  0
VERTEX
  8
Group039
 10
55.25
 20
-54.5
 30
0.0
  0
VERTEX
  8
Group039
 10
68.25
 20
-54.5
 30
0.0
  0
SEQEND
  8
Group039
  0
ARC
  8
Group039
 62
0
 10
68.25
 20
-54.0
 30
0.0
 40
0.5
 50
-90.0
 51
-0.0
  0
POLYLINE
  8
Group039
 62
0
 70
0
 66
1
 10
0.0
 20
0.0
 30
0.0
  0
VERTEX
  8
Group039
 10
68.75
 20
-54.0
 30
0.0
  0
VERTEX
  8
Group039
 10
68.75
 20
-41.0
 30
0.0
  0
SEQEND
  8
Group039
  0
POLYLINE
  8
Group040
 62
0
 70
0
 66
1
 10
0.0
 20
0.0
 30
0.0
  0
VERTEX
  8
Group040
 10
74.25
 20
-40.5
 30
0.0
  0
VERTEX
  8
Group040
 10
87.25
 20
-40.5
 30
0.0
  0
SEQEND
  8
Group040
  0
ARC
  8
Group040
 62
0
 10
87.25
 20
-41.0
 30
0.0
 40
0.5
 50
-0.0
 51
90.0
  0
ARC
  8
Group040
 62
0
 10
74.25
 20
-41.0
 30
0.0
 40
0.5
 50
90.0
 51
-180.0
  0
POLYLINE
  8
Group040
 62
0
 70
0
 66
1
 10
0.0
 20
0.0
 30
0.0
  0
VERTEX
  8
Group040
 10
73.75
 20
-41.0
 30
0.0
  0
VERTEX
  8
Group040
 10
73.75
 20
-54.0
 30
0.0
  0
SEQEND
  8
Group040
  0
ARC
  8
Group040
 62
0
 10
74.25
 20
-54.0
 30
0.0
 40
0.5
 50
-180.0
 51
-90.0
  0
POLYLINE
  8
Group040
 62
0
 70
0
 66
1
 10
0.0
 20
0.0
 30
0.0
  0
VERTEX
  8
Group040
 10
74.25
 20
-54.5
 30
0.0
  0
VERTEX
  8
Group040
 10
87.25
 20
-54.5
 30
0.0
  0
SEQEND
  8
Group040
  0
ARC
  8
Group040
 62
0
 10
87.25
 20
-54.0
 30
0.0
 40
0.5
 50
-90.0
 51
-0.0
  0
POLYLINE
  8
Group040
 62
0
 70
0
 66
1
 10
0.0
 20
0.0
 30
0.0
  0
VERTEX
  8
Group040
 10
87.75
 20
-54.0
 30
0.0
  0
VERTEX
  8
Group040
 10
87.75
 20
-41.0
 30
0.0
  0
SEQEND
  8
Group040
  0
POLYLINE
  8
Group041
 62
0
 70
0
 66
1
 10
0.0
 20
0.0
 30
0.0
  0
VERTEX
  8
Group041
 10
93.25
 20
-40.5
 30
0.0
  0
VERTEX
  8
Group041
 10
106.25
 20
-40.5
 30
0.0
  0
SEQEND
  8
Group041
  0
ARC
  8
Group041
 62
0
 10
106.25
 20
-41.0
 30
0.0
 40
0.5
 50
-0.0
 51
90.0
  0
ARC
  8
Group041
 62
0
 10
93.25
 20
-41.0
 30
0.0
 40
0.5
 50
90.0
 51
-180.0
  0
POLYLINE
  8
Group041
 62
0
 70
0
 66
1
 10
0.0
 20
0.0
 30
0.0
  0
VERTEX
  8
Group041
 10
92.75
 20
-41.0
 30
0.0
  0
VERTEX
  8
Group041
 10
92.75
 20
-54.0
 30
0.0
  0
SEQEND
  8
Group041
  0
ARC
  8
Group041
 62
0
 10
93.25
 20
-54.0
 30
0.0
 40
0.5
 50
-180.0
 51
-90.0
  0
POLYLINE
  8
Group041
 62
0
 70
0
 66
1
 10
0.0
 20
0.0
 30
0.0
  0
VERTEX
  8
Group041
 10
93.25
 20
-54.5
 30
0.0
  0
VERTEX
  8
Group041
 10
106.25
 20
-54.5
 30
0.0
  0
SEQEND
  8
Group041
  0
ARC
  8
Group041
 62
0
 10
106.25
 20
-54.0
 30
0.0
 40
0.5
 50
-90.0
 51
-0.0
  0
POLYLINE
  8
Group041
 62
0
 70
0
 66
1
 10
0.0
 20
0.0
 30
0.0
  0
VERTEX
  8
Group041
 10
106.75
 20
-54.0
 30
0.0
  0
VERTEX
  8
Group041
 10
106.75
 20
-41.0
 30
0.0
  0
SEQEND
  8
Group041
  0
POLYLINE
  8
Group042
 62
0
 70
0
 66
1
 10
0.0
 20
0.0
 30
0.0
  0
VERTEX
  8
Group042
 10
112.25
 20
-40.5
 30
0.0
  0
VERTEX
  8
Group042
 10
125.25
 20
-40.5
 30
0.0
  0
SEQEND
  8
Group042
  0
ARC
  8
Group042
 62
0
 10
125.25
 20
-41.0
 30
0.0
 40
0.5
 50
-0.0
 51
90.0
  0
ARC
  8
Group042
 62
0
 10
112.25
 20
-41.0
 30
0.0
 40
0.5
 50
90.0
 51
-180.0
  0
POLYLINE
  8
Group042
 62
0
 70
0
 66
1
 10
0.0
 20
0.0
 30
0.0
  0
VERTEX
  8
Group042
 10
111.75
 20
-41.0
 30
0.0
  0
VERTEX
  8
Group042
 10
111.75
 20
-54.0
 30
0.0
  0
SEQEND
  8
Group042
  0
ARC
  8
Group042
 62
0
 10
112.25
 20
-54.0
 30
0.0
 40
0.5
 50
-180.0
 51
-90.0
  0
POLYLINE
  8
Group042
 62
0
 70
0
 66
1
 10
0.0
 20
0.0
 30
0.0
  0
VERTEX
  8
Group042
 10
112.25
 20
-54.5
 30
0.0
  0
VERTEX
  8
Group042
 10
125.25
 20
-54.5
 30
0.0
  0
SEQEND
  8
Group042
  0
ARC
  8
Group042
 62
0
 10
125.25
 20
-54.0
 30
0.0
 40
0.5
 50
-90.0
 51
-0.0
  0
POLYLINE
  8
Group042
 62
0
 70
0
 66
1
 10
0.0
 20
0.0
 30
0.0
  0
VERTEX
  8
Group042
 10
125.75
 20
-54.0
 30
0.0
  0
VERTEX
  8
Group042
 10
125.75
 20
-41.0
 30
0.0
  0
SEQEND
  8
Group042
  0
POLYLINE
  8
Group043
 62
0
 70
0
 66
1
 10
0.0
 20
0.0
 30
0.0
  0
VERTEX
  8
Group043
 10
131.25
 20
-40.5
 30
0.0
  0
VERTEX
  8
Group043
 10
144.25
 20
-40.5
 30
0.0
  0
SEQEND
  8
Group043
  0
ARC
  8
Group043
 62
0
 10
144.25
 20
-41.0
 30
0.0
 40
0.5
 50
-0.0
 51
90.0
  0
ARC
  8
Group043
 62
0
 10
131.25
 20
-41.0
 30
0.0
 40
0.5
 50
90.0
 51
-180.0
  0
POLYLINE
  8
Group043
 62
0
 70
0
 66
1
 10
0.0
 20
0.0
 30
0.0
  0
VERTEX
  8
Group043
 10
130.75
 20
-41.0
 30
0.0
  0
VERTEX
  8
Group043
 10
130.75
 20
-54.0
 30
0.0
  0
SEQEND
  8
Group043
  0
ARC
  8
Group043
 62
0
 10
131.25
 20
-54.0
 30
0.0
 40
0.5
 50
-180.0
 51
-90.0
  0
POLYLINE
  8
Group043
 62
0
 70
0
 66
1
 10
0.0
 20
0.0
 30
0.0
  0
VERTEX
  8
Group043
 10
131.25
 20
-54.5
 30
0.0
  0
VERTEX
  8
Group043
 10
144.25
 20
-54.5
 30
0.0
  0
SEQEND
  8
Group043
  0
ARC
  8
Group043
 62
0
 10
144.25
 20
-54.0
 30
0.0
 40
0.5
 50
-90.0
 51
-0.0
  0
POLYLINE
  8
Group043
 62
0
 70
0
 66
1
 10
0.0
 20
0.0
 30
0.0
  0
VERTEX
  8
Group043
 10
144.75
 20
-54.0
 30
0.0
  0
VERTEX
  8
Group043
 10
144.75
 20
-41.0
 30
0.0
  0
SEQEND
  8
Group043
  0
POLYLINE
  8
Group044
 62
0
 70
0
 66
1
 10
0.0
 20
0.0
 30
0.0
  0
VERTEX
  8
Group044
 10
150.25
 20
-40.5
 30
0.0
  0
VERTEX
  8
Group044
 10
163.25
 20
-40.5
 30
0.0
  0
SEQEND
  8
Group044
  0
ARC
  8
Group044
 62
0
 10
163.25
 20
-41.0
 30
0.0
 40
0.5
 50
-0.0
 51
90.0
  0
ARC
  8
Group044
 62
0
 10
150.25
 20
-41.0
 30
0.0
 40
0.5
 50
90.0
 51
-180.0
  0
POLYLINE
  8
Group044
 62
0
 70
0
 66
1
 10
0.0
 20
0.0
 30
0.0
  0
VERTEX
  8
Group044
 10
149.75
 20
-41.0
 30
0.0
  0
VERTEX
  8
Group044
 10
149.75
 20
-54.0
 30
0.0
  0
SEQEND
  8
Group044
  0
ARC
  8
Group044
 62
0
 10
150.25
 20
-54.0
 30
0.0
 40
0.5
 50
-180.0
 51
-90.0
  0
POLYLINE
  8
Group044
 62
0
 70
0
 66
1
 10
0.0
 20
0.0
 30
0.0
  0
VERTEX
  8
Group044
 10
150.25
 20
-54.5
 30
0.0
  0
VERTEX
  8
Group044
 10
163.25
 20
-54.5
 30
0.0
  0
SEQEND
  8
Group044
  0
ARC
  8
Group044
 62
0
 10
163.25
 20
-54.0
 30
0.0
 40
0.5
 50
-90.0
 51
-0.0
  0
POLYLINE
  8
Group044
 62
0
 70
0
 66
1
 10
0.0
 20
0.0
 30
0.0
  0
VERTEX
  8
Group044
 10
163.75
 20
-54.0
 30
0.0
  0
VERTEX
  8
Group044
 10
163.75
 20
-41.0
 30
0.0
  0
SEQEND
  8
Group044
  0
POLYLINE
  8
Group045
 62
0
 70
0
 66
1
 10
0.0
 20
0.0
 30
0.0
  0
VERTEX
  8
Group045
 10
169.25
 20
-40.5
 30
0.0
  0
VERTEX
  8
Group045
 10
182.25
 20
-40.5
 30
0.0
  0
SEQEND
  8
Group045
  0
ARC
  8
Group045
 62
0
 10
182.25
 20
-41.0
 30
0.0
 40
0.5
 50
-0.0
 51
90.0
  0
ARC
  8
Group045
 62
0
 10
169.25
 20
-41.0
 30
0.0
 40
0.5
 50
90.0
 51
-180.0
  0
POLYLINE
  8
Group045
 62
0
 70
0
 66
1
 10
0.0
 20
0.0
 30
0.0
  0
VERTEX
  8
Group045
 10
168.75
 20
-41.0
 30
0.0
  0
VERTEX
  8
Group045
 10
168.75
 20
-54.0
 30
0.0
  0
SEQEND
  8
Group045
  0
ARC
  8
Group045
 62
0
 10
169.25
 20
-54.0
 30
0.0
 40
0.5
 50
-180.0
 51
-90.0
  0
POLYLINE
  8
Group045
 62
0
 70
0
 66
1
 10
0.0
 20
0.0
 30
0.0
  0
VERTEX
  8
Group045
 10
169.25
 20
-54.5
 30
0.0
  0
VERTEX
  8
Group045
 10
182.25
 20
-54.5
 30
0.0
  0
SEQEND
  8
Group045
  0
ARC
  8
Group045
 62
0
 10
182.25
 20
-54.0
 30
0.0
 40
0.5
 50
-90.0
 51
-0.0
  0
POLYLINE
  8
Group045
 62
0
 70
0
 66
1
 10
0.0
 20
0.0
 30
0.0
  0
VERTEX
  8
Group045
 10
182.75
 20
-54.0
 30
0.0
  0
VERTEX
  8
Group045
 10
182.75
 20
-41.0
 30
0.0
  0
SEQEND
  8
Group045
  0
POLYLINE
  8
Group046
 62
0
 70
0
 66
1
 10
0.0
 20
0.0
 30
0.0
  0
VERTEX
  8
Group046
 10
188.25
 20
-40.5
 30
0.0
  0
VERTEX
  8
Group046
 10
201.25
 20
-40.5
 30
0.0
  0
SEQEND
  8
Group046
  0
ARC
  8
Group046
 62
0
 10
201.25
 20
-41.0
 30
0.0
 40
0.5
 50
-0.0
 51
90.0
  0
ARC
  8
Group046
 62
0
 10
188.25
 20
-41.0
 30
0.0
 40
0.5
 50
90.0
 51
-180.0
  0
POLYLINE
  8
Group046
 62
0
 70
0
 66
1
 10
0.0
 20
0.0
 30
0.0
  0
VERTEX
  8
Group046
 10
187.75
 20
-41.0
 30
0.0
  0
VERTEX
  8
Group046
 10
187.75
 20
-54.0
 30
0.0
  0
SEQEND
  8
Group046
  0
ARC
  8
Group046
 62
0
 10
188.25
 20
-54.0
 30
0.0
 40
0.5
 50
-180.0
 51
-90.0
  0
POLYLINE
  8
Group046
 62
0
 70
0
 66
1
 10
0.0
 20
0.0
 30
0.0
  0
VERTEX
  8
Group046
 10
188.25
 20
-54.5
 30
0.0
  0
VERTEX
  8
Group046
 10
201.25
 20
-54.5
 30
0.0
  0
SEQEND
  8
Group046
  0
ARC
  8
Group046
 62
0
 10
201.25
 20
-54.0
 30
0.0
 40
0.5
 50
-90.0
 51
-0.0
  0
POLYLINE
  8
Group046
 62
0
 70
0
 66
1
 10
0.0
 20
0.0
 30
0.0
  0
VERTEX
  8
Group046
 10
201.75
 20
-54.0
 30
0.0
  0
VERTEX
  8
Group046
 10
201.75
 20
-41.0
 30
0.0
  0
SEQEND
  8
Group046
  0
ARC
  8
Group047
 62
0
 10
207.25
 20
-41.0
 30
0.0
 40
0.5
 50
90.0
 51
-180.0
  0
POLYLINE
  8
Group047
 62
0
 70
0
 66
1
 10
0.0
 20
0.0
 30
0.0
  0
VERTEX
  8
Group047
 10
206.75
 20
-41.0
 30
0.0
  0
VERTEX
  8
Group047
 10
206.75
 20
-54.0
 30
0.0
  0
SEQEND
  8
Group047
  0
ARC
  8
Group047
 62
0
 10
207.25
 20
-54.0
 30
0.0
 40
0.5
 50
-180.0
 51
-90.0
  0
ARC
  8
Group048
 62
0
 10
228.625
 20
-41.0
 30
0.0
 40
0.5
 50
90.0
 51
-180.0
  0
POLYLINE
  8
Group048
 62
0
 70
0
 66
1
 10
0.0
 20
0.0
 30
0.0
  0
VERTEX
  8
Group048
 10
228.125
 20
-41.0
 30
0.0
  0
VERTEX
  8
Group048
 10
228.125
 20
-54.0
 30
0.0
  0
SEQEND
  8
Group048
  0
ARC
  8
Group048
 62
0
 10
228.625
 20
-54.0
 30
0.0
 40
0.5
 50
-180.0
 51
-90.0
  0
ARC
  8
Group049
 62
0
 10
244.0
 20
-41.0
 30
0.0
 40
0.5
 50
-0.0
 51
90.0
  0
ARC
  8
Group049
 62
0
 10
244.0
 20
-54.0
 30
0.0
 40
0.5
 50
-90.0
 51
-0.0
  0
POLYLINE
  8
Group049
 62
0
 70
0
 66
1
 10
0.0
 20
0.0
 30
0.0
  0
VERTEX
  8
Group049
 10
244.5
 20
-54.0
 30
0.0
  0
VERTEX
  8
Group049
 10
244.5
 20
-41.0
 30
0.0
  0
SEQEND
  8
Group049
  0
POLYLINE
  8
Group050
 62
0
 70
0
 66
1
 10
0.0
 20
0.0
 30
0.0
  0
VERTEX
  8
Group050
 10
223.125
 20
-54.0
 30
0.0
  0
VERTEX
  8
Group050
 10
223.125
 20
-41.0
 30
0.0
  0
SEQEND
  8
Group050
  0
ARC
  8
Group050
 62
0
 10
222.625
 20
-41.0
 30
0.0
 40
0.5
 50
-0.0
 51
90.0
  0
ARC
  8
Group050
 62
0
 10
222.625
 20
-54.0
 30
0.0
 40
0.5
 50
-90.0
 51
-0.0
  0
POLYLINE
  8
Row 3
 62
0
 70
0
 66
1
 10
0.0
 20
0.0
 30
0.0
  0
VERTEX
  8
Row 3
 10
207.25
 20
-54.5
 30
0.0
  0
VERTEX
  8
Row 3
 10
222.625
 20
-54.5
 30
0.0
  0
SEQEND
  8
Row 3
  0
POLYLINE
  8
Row 3
 62
0
 70
0
 66
1
 10
0.0
 20
0.0
 30
0.0
  0
VERTEX
  8
Row 3
 10
222.625
 20
-40.5
 30
0.0
  0
VERTEX
  8
Row 3
 10
207.25
 20
-40.5
 30
0.0
  0
SEQEND
  8
Row 3
  0
POLYLINE
  8
Row 3
 62
0
 70
0
 66
1
 10
0.0
 20
0.0
 30
0.0
  0
VERTEX
  8
Row 3
 10
228.625
 20
-54.5
 30
0.0
  0
VERTEX
  8
Row 3
 10
244.0
 20
-54.5
 30
0.0
  0
SEQEND
  8
Row 3
  0
POLYLINE
  8
Row 3
 62
0
 70
0
 66
1
 10
0.0
 20
0.0
 30
0.0
  0
VERTEX
  8
Row 3
 10
244.0
 20
-40.5
 30
0.0
  0
VERTEX
  8
Row 3
 10
228.625
 20
-40.5
 30
0.0
  0
SEQEND
  8
Row 3
  0
POLYLINE
  8
Group024
 62
0
 70
0
 66
1
 10
0.0
 20
0.0
 30
0.0
  0
VERTEX
  8
Group024
 10
18.875
 20
-35.0
 30
0.0
  0
VERTEX
  8
Group024
 10
18.875
 20
-22.0
 30
0.0
  0
SEQEND
  8
Group024
  0
ARC
  8
Group024
 62
0
 10
18.375
 20
-22.0
 30
0.0
 40
0.5
 50
-0.0
 51
90.0
  0
ARC
  8
Group024
 62
0
 10
5.375
 20
-22.0
 30
0.0
 40
0.5
 50
90.0
 51
-180.0
  0
POLYLINE
  8
Group024
 62
0
 70
0
 66
1
 10
0.0
 20
0.0
 30
0.0
  0
VERTEX
  8
Group024
 10
4.875
 20
-22.0
 30
0.0
  0
VERTEX
  8
Group024
 10
4.875
 20
-35.0
 30
0.0
  0
SEQEND
  8
Group024
  0
ARC
  8
Group024
 62
0
 10
5.375
 20
-35.0
 30
0.0
 40
0.5
 50
-180.0
 51
-90.0
  0
POLYLINE
  8
Group024
 62
0
 70
0
 66
1
 10
0.0
 20
0.0
 30
0.0
  0
VERTEX
  8
Group024
 10
5.375
 20
-21.5
 30
0.0
  0
VERTEX
  8
Group024
 10
18.375
 20
-21.5
 30
0.0
  0
SEQEND
  8
Group024
  0
POLYLINE
  8
Group024
 62
0
 70
0
 66
1
 10
0.0
 20
0.0
 30
0.0
  0
VERTEX
  8
Group024
 10
5.375
 20
-35.5
 30
0.0
  0
VERTEX
  8
Group024
 10
18.375
 20
-35.5
 30
0.0
  0
SEQEND
  8
Group024
  0
ARC
  8
Group024
 62
0
 10
18.375
 20
-35.0
 30
0.0
 40
0.5
 50
-90.0
 51
-0.0
  0
POLYLINE
  8
Group025
 62
0
 70
0
 66
1
 10
0.0
 20
0.0
 30
0.0
  0
VERTEX
  8
Group025
 10
26.75
 20
-21.5
 30
0.0
  0
VERTEX
  8
Group025
 10
39.75
 20
-21.5
 30
0.0
  0
SEQEND
  8
Group025
  0
ARC
  8
Group025
 62
0
 10
39.75
 20
-22.0
 30
0.0
 40
0.5
 50
-0.0
 51
90.0
  0
ARC
  8
Group025
 62
0
 10
26.75
 20
-22.0
 30
0.0
 40
0.5
 50
90.0
 51
-180.0
  0
POLYLINE
  8
Group025
 62
0
 70
0
 66
1
 10
0.0
 20
0.0
 30
0.0
  0
VERTEX
  8
Group025
 10
26.25
 20
-22.0
 30
0.0
  0
VERTEX
  8
Group025
 10
26.25
 20
-35.0
 30
0.0
  0
SEQEND
  8
Group025
  0
ARC
  8
Group025
 62
0
 10
26.75
 20
-35.0
 30
0.0
 40
0.5
 50
-180.0
 51
-90.0
  0
POLYLINE
  8
Group025
 62
0
 70
0
 66
1
 10
0.0
 20
0.0
 30
0.0
  0
VERTEX
  8
Group025
 10
26.75
 20
-35.5
 30
0.0
  0
VERTEX
  8
Group025
 10
39.75
 20
-35.5
 30
0.0
  0
SEQEND
  8
Group025
  0
ARC
  8
Group025
 62
0
 10
39.75
 20
-35.0
 30
0.0
 40
0.5
 50
-90.0
 51
-0.0
  0
POLYLINE
  8
Group025
 62
0
 70
0
 66
1
 10
0.0
 20
0.0
 30
0.0
  0
VERTEX
  8
Group025
 10
40.25
 20
-35.0
 30
0.0
  0
VERTEX
  8
Group025
 10
40.25
 20
-22.0
 30
0.0
  0
SEQEND
  8
Group025
  0
POLYLINE
  8
Group026
 62
0
 70
0
 66
1
 10
0.0
 20
0.0
 30
0.0
  0
VERTEX
  8
Group026
 10
45.75
 20
-21.5
 30
0.0
  0
VERTEX
  8
Group026
 10
58.75
 20
-21.5
 30
0.0
  0
SEQEND
  8
Group026
  0
ARC
  8
Group026
 62
0
 10
58.75
 20
-22.0
 30
0.0
 40
0.5
 50
-0.0
 51
90.0
  0
ARC
  8
Group026
 62
0
 10
45.75
 20
-22.0
 30
0.0
 40
0.5
 50
90.0
 51
-180.0
  0
POLYLINE
  8
Group026
 62
0
 70
0
 66
1
 10
0.0
 20
0.0
 30
0.0
  0
VERTEX
  8
Group026
 10
45.25
 20
-22.0
 30
0.0
  0
VERTEX
  8
Group026
 10
45.25
 20
-35.0
 30
0.0
  0
SEQEND
  8
Group026
  0
ARC
  8
Group026
 62
0
 10
45.75
 20
-35.0
 30
0.0
 40
0.5
 50
-180.0
 51
-90.0
  0
POLYLINE
  8
Group026
 62
0
 70
0
 66
1
 10
0.0
 20
0.0
 30
0.0
  0
VERTEX
  8
Group026
 10
45.75
 20
-35.5
 30
0.0
  0
VERTEX
  8
Group026
 10
58.75
 20
-35.5
 30
0.0
  0
SEQEND
  8
Group026
  0
ARC
  8
Group026
 62
0
 10
58.75
 20
-35.0
 30
0.0
 40
0.5
 50
-90.0
 51
-0.0
  0
POLYLINE
  8
Group026
 62
0
 70
0
 66
1
 10
0.0
 20
0.0
 30
0.0
  0
VERTEX
  8
Group026
 10
59.25
 20
-35.0
 30
0.0
  0
VERTEX
  8
Group026
 10
59.25
 20
-22.0
 30
0.0
  0
SEQEND
  8
Group026
  0
POLYLINE
  8
Group027
 62
0
 70
0
 66
1
 10
0.0
 20
0.0
 30
0.0
  0
VERTEX
  8
Group027
 10
64.75
 20
-21.5
 30
0.0
  0
VERTEX
  8
Group027
 10
77.75
 20
-21.5
 30
0.0
  0
SEQEND
  8
Group027
  0
ARC
  8
Group027
 62
0
 10
77.75
 20
-22.0
 30
0.0
 40
0.5
 50
-0.0
 51
90.0
  0
ARC
  8
Group027
 62
0
 10
64.75
 20
-22.0
 30
0.0
 40
0.5
 50
90.0
 51
-180.0
  0
POLYLINE
  8
Group027
 62
0
 70
0
 66
1
 10
0.0
 20
0.0
 30
0.0
  0
VERTEX
  8
Group027
 10
64.25
 20
-22.0
 30
0.0
  0
VERTEX
  8
Group027
 10
64.25
 20
-35.0
 30
0.0
  0
SEQEND
  8
Group027
  0
ARC
  8
Group027
 62
0
 10
64.75
 20
-35.0
 30
0.0
 40
0.5
 50
-180.0
 51
-90.0
  0
POLYLINE
  8
Group027
 62
0
 70
0
 66
1
 10
0.0
 20
0.0
 30
0.0
  0
VERTEX
  8
Group027
 10
64.75
 20
-35.5
 30
0.0
  0
VERTEX
  8
Group027
 10
77.75
 20
-35.5
 30
0.0
  0
SEQEND
  8
Group027
  0
ARC
  8
Group027
 62
0
 10
77.75
 20
-35.0
 30
0.0
 40
0.5
 50
-90.0
 51
-0.0
  0
POLYLINE
  8
Group027
 62
0
 70
0
 66
1
 10
0.0
 20
0.0
 30
0.0
  0
VERTEX
  8
Group027
 10
78.25
 20
-35.0
 30
0.0
  0
VERTEX
  8
Group027
 10
78.25
 20
-22.0
 30
0.0
  0
SEQEND
  8
Group027
  0
POLYLINE
  8
Group028
 62
0
 70
0
 66
1
 10
0.0
 20
0.0
 30
0.0
  0
VERTEX
  8
Group028
 10
83.75
 20
-21.5
 30
0.0
  0
VERTEX
  8
Group028
 10
96.75
 20
-21.5
 30
0.0
  0
SEQEND
  8
Group028
  0
ARC
  8
Group028
 62
0
 10
96.75
 20
-22.0
 30
0.0
 40
0.5
 50
-0.0
 51
90.0
  0
ARC
  8
Group028
 62
0
 10
83.75
 20
-22.0
 30
0.0
 40
0.5
 50
90.0
 51
-180.0
  0
POLYLINE
  8
Group028
 62
0
 70
0
 66
1
 10
0.0
 20
0.0
 30
0.0
  0
VERTEX
  8
Group028
 10
83.25
 20
-22.0
 30
0.0
  0
VERTEX
  8
Group028
 10
83.25
 20
-35.0
 30
0.0
  0
SEQEND
  8
Group028
  0
ARC
  8
Group028
 62
0
 10
83.75
 20
-35.0
 30
0.0
 40
0.5
 50
-180.0
 51
-90.0
  0
POLYLINE
  8
Group028
 62
0
 70
0
 66
1
 10
0.0
 20
0.0
 30
0.0
  0
VERTEX
  8
Group028
 10
83.75
 20
-35.5
 30
0.0
  0
VERTEX
  8
Group028
 10
96.75
 20
-35.5
 30
0.0
  0
SEQEND
  8
Group028
  0
ARC
  8
Group028
 62
0
 10
96.75
 20
-35.0
 30
0.0
 40
0.5
 50
-90.0
 51
-0.0
  0
POLYLINE
  8
Group028
 62
0
 70
0
 66
1
 10
0.0
 20
0.0
 30
0.0
  0
VERTEX
  8
Group028
 10
97.25
 20
-35.0
 30
0.0
  0
VERTEX
  8
Group028
 10
97.25
 20
-22.0
 30
0.0
  0
SEQEND
  8
Group028
  0
POLYLINE
  8
Group029
 62
0
 70
0
 66
1
 10
0.0
 20
0.0
 30
0.0
  0
VERTEX
  8
Group029
 10
102.75
 20
-21.5
 30
0.0
  0
VERTEX
  8
Group029
 10
115.75
 20
-21.5
 30
0.0
  0
SEQEND
  8
Group029
  0
ARC
  8
Group029
 62
0
 10
115.75
 20
-22.0
 30
0.0
 40
0.5
 50
-0.0
 51
90.0
  0
ARC
  8
Group029
 62
0
 10
102.75
 20
-22.0
 30
0.0
 40
0.5
 50
90.0
 51
-180.0
  0
POLYLINE
  8
Group029
 62
0
 70
0
 66
1
 10
0.0
 20
0.0
 30
0.0
  0
VERTEX
  8
Group029
 10
102.25
 20
-22.0
 30
0.0
  0
VERTEX
  8
Group029
 10
102.25
 20
-35.0
 30
0.0
  0
SEQEND
  8
Group029
  0
ARC
  8
Group029
 62
0
 10
102.75
 20
-35.0
 30
0.0
 40
0.5
 50
-180.0
 51
-90.0
  0
POLYLINE
  8
Group029
 62
0
 70
0
 66
1
 10
0.0
 20
0.0
 30
0.0
  0
VERTEX
  8
Group029
 10
102.75
 20
-35.5
 30
0.0
  0
VERTEX
  8
Group029
 10
115.75
 20
-35.5
 30
0.0
  0
SEQEND
  8
Group029
  0
ARC
  8
Group029
 62
0
 10
115.75
 20
-35.0
 30
0.0
 40
0.5
 50
-90.0
 51
-0.0
  0
POLYLINE
  8
Group029
 62
0
 70
0
 66
1
 10
0.0
 20
0.0
 30
0.0
  0
VERTEX
  8
Group029
 10
116.25
 20
-35.0
 30
0.0
  0
VERTEX
  8
Group029
 10
116.25
 20
-22.0
 30
0.0
  0
SEQEND
  8
Group029
  0
POLYLINE
  8
Group030
 62
0
 70
0
 66
1
 10
0.0
 20
0.0
 30
0.0
  0
VERTEX
  8
Group030
 10
121.75
 20
-21.5
 30
0.0
  0
VERTEX
  8
Group030
 10
134.75
 20
-21.5
 30
0.0
  0
SEQEND
  8
Group030
  0
ARC
  8
Group030
 62
0
 10
134.75
 20
-22.0
 30
0.0
 40
0.5
 50
-0.0
 51
90.0
  0
ARC
  8
Group030
 62
0
 10
121.75
 20
-22.0
 30
0.0
 40
0.5
 50
90.0
 51
-180.0
  0
POLYLINE
  8
Group030
 62
0
 70
0
 66
1
 10
0.0
 20
0.0
 30
0.0
  0
VERTEX
  8
Group030
 10
121.25
 20
-22.0
 30
0.0
  0
VERTEX
  8
Group030
 10
121.25
 20
-35.0
 30
0.0
  0
SEQEND
  8
Group030
  0
ARC
  8
Group030
 62
0
 10
121.75
 20
-35.0
 30
0.0
 40
0.5
 50
-180.0
 51
-90.0
  0
POLYLINE
  8
Group030
 62
0
 70
0
 66
1
 10
0.0
 20
0.0
 30
0.0
  0
VERTEX
  8
Group030
 10
121.75
 20
-35.5
 30
0.0
  0
VERTEX
  8
Group030
 10
134.75
 20
-35.5
 30
0.0
  0
SEQEND
  8
Group030
  0
ARC
  8
Group030
 62
0
 10
134.75
 20
-35.0
 30
0.0
 40
0.5
 50
-90.0
 51
-0.0
  0
POLYLINE
  8
Group030
 62
0
 70
0
 66
1
 10
0.0
 20
0.0
 30
0.0
  0
VERTEX
  8
Group030
 10
135.25
 20
-35.0
 30
0.0
  0
VERTEX
  8
Group030
 10
135.25
 20
-22.0
 30
0.0
  0
SEQEND
  8
Group030
  0
POLYLINE
  8
Group031
 62
0
 70
0
 66
1
 10
0.0
 20
0.0
 30
0.0
  0
VERTEX
  8
Group031
 10
140.75
 20
-21.5
 30
0.0
  0
VERTEX
  8
Group031
 10
153.75
 20
-21.5
 30
0.0
  0
SEQEND
  8
Group031
  0
ARC
  8
Group031
 62
0
 10
153.75
 20
-22.0
 30
0.0
 40
0.5
 50
-0.0
 51
90.0
  0
ARC
  8
Group031
 62
0
 10
140.75
 20
-22.0
 30
0.0
 40
0.5
 50
90.0
 51
-180.0
  0
POLYLINE
  8
Group031
 62
0
 70
0
 66
1
 10
0.0
 20
0.0
 30
0.0
  0
VERTEX
  8
Group031
 10
140.25
 20
-22.0
 30
0.0
  0
VERTEX
  8
Group031
 10
140.25
 20
-35.0
 30
0.0
  0
SEQEND
  8
Group031
  0
ARC
  8
Group031
 62
0
 10
140.75
 20
-35.0
 30
0.0
 40
0.5
 50
-180.0
 51
-90.0
  0
POLYLINE
  8
Group031
 62
0
 70
0
 66
1
 10
0.0
 20
0.0
 30
0.0
  0
VERTEX
  8
Group031
 10
140.75
 20
-35.5
 30
0.0
  0
VERTEX
  8
Group031
 10
153.75
 20
-35.5
 30
0.0
  0
SEQEND
  8
Group031
  0
ARC
  8
Group031
 62
0
 10
153.75
 20
-35.0
 30
0.0
 40
0.5
 50
-90.0
 51
-0.0
  0
POLYLINE
  8
Group031
 62
0
 70
0
 66
1
 10
0.0
 20
0.0
 30
0.0
  0
VERTEX
  8
Group031
 10
154.25
 20
-35.0
 30
0.0
  0
VERTEX
  8
Group031
 10
154.25
 20
-22.0
 30
0.0
  0
SEQEND
  8
Group031
  0
POLYLINE
  8
Group032
 62
0
 70
0
 66
1
 10
0.0
 20
0.0
 30
0.0
  0
VERTEX
  8
Group032
 10
159.75
 20
-21.5
 30
0.0
  0
VERTEX
  8
Group032
 10
172.75
 20
-21.5
 30
0.0
  0
SEQEND
  8
Group032
  0
ARC
  8
Group032
 62
0
 10
172.75
 20
-22.0
 30
0.0
 40
0.5
 50
-0.0
 51
90.0
  0
ARC
  8
Group032
 62
0
 10
159.75
 20
-22.0
 30
0.0
 40
0.5
 50
90.0
 51
-180.0
  0
POLYLINE
  8
Group032
 62
0
 70
0
 66
1
 10
0.0
 20
0.0
 30
0.0
  0
VERTEX
  8
Group032
 10
159.25
 20
-22.0
 30
0.0
  0
VERTEX
  8
Group032
 10
159.25
 20
-35.0
 30
0.0
  0
SEQEND
  8
Group032
  0
ARC
  8
Group032
 62
0
 10
159.75
 20
-35.0
 30
0.0
 40
0.5
 50
-180.0
 51
-90.0
  0
POLYLINE
  8
Group032
 62
0
 70
0
 66
1
 10
0.0
 20
0.0
 30
0.0
  0
VERTEX
  8
Group032
 10
159.75
 20
-35.5
 30
0.0
  0
VERTEX
  8
Group032
 10
172.75
 20
-35.5
 30
0.0
  0
SEQEND
  8
Group032
  0
ARC
  8
Group032
 62
0
 10
172.75
 20
-35.0
 30
0.0
 40
0.5
 50
-90.0
 51
-0.0
  0
POLYLINE
  8
Group032
 62
0
 70
0
 66
1
 10
0.0
 20
0.0
 30
0.0
  0
VERTEX
  8
Group032
 10
173.25
 20
-35.0
 30
0.0
  0
VERTEX
  8
Group032
 10
173.25
 20
-22.0
 30
0.0
  0
SEQEND
  8
Group032
  0
POLYLINE
  8
Group033
 62
0
 70
0
 66
1
 10
0.0
 20
0.0
 30
0.0
  0
VERTEX
  8
Group033
 10
178.75
 20
-21.5
 30
0.0
  0
VERTEX
  8
Group033
 10
191.75
 20
-21.5
 30
0.0
  0
SEQEND
  8
Group033
  0
ARC
  8
Group033
 62
0
 10
191.75
 20
-22.0
 30
0.0
 40
0.5
 50
-0.0
 51
90.0
  0
ARC
  8
Group033
 62
0
 10
178.75
 20
-22.0
 30
0.0
 40
0.5
 50
90.0
 51
-180.0
  0
POLYLINE
  8
Group033
 62
0
 70
0
 66
1
 10
0.0
 20
0.0
 30
0.0
  0
VERTEX
  8
Group033
 10
178.25
 20
-22.0
 30
0.0
  0
VERTEX
  8
Group033
 10
178.25
 20
-35.0
 30
0.0
  0
SEQEND
  8
Group033
  0
ARC
  8
Group033
 62
0
 10
178.75
 20
-35.0
 30
0.0
 40
0.5
 50
-180.0
 51
-90.0
  0
POLYLINE
  8
Group033
 62
0
 70
0
 66
1
 10
0.0
 20
0.0
 30
0.0
  0
VERTEX
  8
Group033
 10
178.75
 20
-35.5
 30
0.0
  0
VERTEX
  8
Group033
 10
191.75
 20
-35.5
 30
0.0
  0
SEQEND
  8
Group033
  0
ARC
  8
Group033
 62
0
 10
191.75
 20
-35.0
 30
0.0
 40
0.5
 50
-90.0
 51
-0.0
  0
POLYLINE
  8
Group033
 62
0
 70
0
 66
1
 10
0.0
 20
0.0
 30
0.0
  0
VERTEX
  8
Group033
 10
192.25
 20
-35.0
 30
0.0
  0
VERTEX
  8
Group033
 10
192.25
 20
-22.0
 30
0.0
  0
SEQEND
  8
Group033
  0
POLYLINE
  8
Group034
 62
0
 70
0
 66
1
 10
0.0
 20
0.0
 30
0.0
  0
VERTEX
  8
Group034
 10
197.75
 20
-21.5
 30
0.0
  0
VERTEX
  8
Group034
 10
210.75
 20
-21.5
 30
0.0
  0
SEQEND
  8
Group034
  0
ARC
  8
Group034
 62
0
 10
210.75
 20
-22.0
 30
0.0
 40
0.5
 50
-0.0
 51
90.0
  0
ARC
  8
Group034
 62
0
 10
197.75
 20
-22.0
 30
0.0
 40
0.5
 50
90.0
 51
-180.0
  0
POLYLINE
  8
Group034
 62
0
 70
0
 66
1
 10
0.0
 20
0.0
 30
0.0
  0
VERTEX
  8
Group034
 10
197.25
 20
-22.0
 30
0.0
  0
VERTEX
  8
Group034
 10
197.25
 20
-35.0
 30
0.0
  0
SEQEND
  8
Group034
  0
ARC
  8
Group034
 62
0
 10
197.75
 20
-35.0
 30
0.0
 40
0.5
 50
-180.0
 51
-90.0
  0
POLYLINE
  8
Group034
 62
0
 70
0
 66
1
 10
0.0
 20
0.0
 30
0.0
  0
VERTEX
  8
Group034
 10
197.75
 20
-35.5
 30
0.0
  0
VERTEX
  8
Group034
 10
210.75
 20
-35.5
 30
0.0
  0
SEQEND
  8
Group034
  0
ARC
  8
Group034
 62
0
 10
210.75
 20
-35.0
 30
0.0
 40
0.5
 50
-90.0
 51
-0.0
  0
POLYLINE
  8
Group034
 62
0
 70
0
 66
1
 10
0.0
 20
0.0
 30
0.0
  0
VERTEX
  8
Group034
 10
211.25
 20
-35.0
 30
0.0
  0
VERTEX
  8
Group034
 10
211.25
 20
-22.0
 30
0.0
  0
SEQEND
  8
Group034
  0
ARC
  8
Group035
 62
0
 10
236.875
 20
-22.0
 30
0.0
 40
0.5
 50
-0.0
 51
90.0
  0
POLYLINE
  8
Group035
 62
0
 70
0
 66
1
 10
0.0
 20
0.0
 30
0.0
  0
VERTEX
  8
Group035
 10
237.375
 20
-35.0
 30
0.0
  0
VERTEX
  8
Group035
 10
237.375
 20
-22.0
 30
0.0
  0
SEQEND
  8
Group035
  0
ARC
  8
Group035
 62
0
 10
236.875
 20
-35.0
 30
0.0
 40
0.5
 50
-90.0
 51
-0.0
  0
POLYLINE
  8
Group035
 62
0
 70
0
 66
1
 10
0.0
 20
0.0
 30
0.0
  0
VERTEX
  8
Group035
 10
223.375
 20
-22.0
 30
0.0
  0
VERTEX
  8
Group035
 10
223.375
 20
-35.0
 30
0.0
  0
SEQEND
  8
Group035
  0
POLYLINE
  8
Group035
 62
0
 70
0
 66
1
 10
0.0
 20
0.0
 30
0.0
  0
VERTEX
  8
Group035
 10
223.875
 20
-21.5
 30
0.0
  0
VERTEX
  8
Group035
 10
236.875
 20
-21.5
 30
0.0
  0
SEQEND
  8
Group035
  0
ARC
  8
Group035
 62
0
 10
223.875
 20
-22.0
 30
0.0
 40
0.5
 50
90.0
 51
-180.0
  0
ARC
  8
Group035
 62
0
 10
223.875
 20
-35.0
 30
0.0
 40
0.5
 50
-180.0
 51
-90.0
  0
POLYLINE
  8
Group035
 62
0
 70
0
 66
1
 10
0.0
 20
0.0
 30
0.0
  0
VERTEX
  8
Group035
 10
223.875
 20
-35.5
 30
0.0
  0
VERTEX
  8
Group035
 10
236.875
 20
-35.5
 30
0.0
  0
SEQEND
  8
Group035
  0
POLYLINE
  8
Group010
 62
0
 70
0
 66
1
 10
0.0
 20
0.0
 30
0.0
  0
VERTEX
  8
Group010
 10
3.0
 20
-2.5
 30
0.0
  0
VERTEX
  8
Group010
 10
16.0
 20
-2.5
 30
0.0
  0
SEQEND
  8
Group010
  0
ARC
  8
Group010
 62
0
 10
16.0
 20
-3.0
 30
0.0
 40
0.5
 50
-0.0
 51
90.0
  0
ARC
  8
Group010
 62
0
 10
3.0
 20
-3.0
 30
0.0
 40
0.5
 50
90.0
 51
-180.0
  0
POLYLINE
  8
Group010
 62
0
 70
0
 66
1
 10
0.0
 20
0.0
 30
0.0
  0
VERTEX
  8
Group010
 10
2.5
 20
-3.0
 30
0.0
  0
VERTEX
  8
Group010
 10
2.5
 20
-16.0
 30
0.0
  0
SEQEND
  8
Group010
  0
ARC
  8
Group010
 62
0
 10
3.0
 20
-16.0
 30
0.0
 40
0.5
 50
-180.0
 51
-90.0
  0
POLYLINE
  8
Group010
 62
0
 70
0
 66
1
 10
0.0
 20
0.0
 30
0.0
  0
VERTEX
  8
Group010
 10
3.0
 20
-16.5
 30
0.0
  0
VERTEX
  8
Group010
 10
16.0
 20
-16.5
 30
0.0
  0
SEQEND
  8
Group010
  0
ARC
  8
Group010
 62
0
 10
16.0
 20
-16.0
 30
0.0
 40
0.5
 50
-90.0
 51
-0.0
  0
POLYLINE
  8
Group010
 62
0
 70
0
 66
1
 10
0.0
 20
0.0
 30
0.0
  0
VERTEX
  8
Group010
 10
16.5
 20
-16.0
 30
0.0
  0
VERTEX
  8
Group010
 10
16.5
 20
-3.0
 30
0.0
  0
SEQEND
  8
Group010
  0
POLYLINE
  8
Group011
 62
0
 70
0
 66
1
 10
0.0
 20
0.0
 30
0.0
  0
VERTEX
  8
Group011
 10
22.0
 20
-2.5
 30
0.0
  0
VERTEX
  8
Group011
 10
35.0
 20
-2.5
 30
0.0
  0
SEQEND
  8
Group011
  0
ARC
  8
Group011
 62
0
 10
35.0
 20
-3.0
 30
0.0
 40
0.5
 50
-0.0
 51
90.0
  0
ARC
  8
Group011
 62
0
 10
22.0
 20
-3.0
 30
0.0
 40
0.5
 50
90.0
 51
-180.0
  0
POLYLINE
  8
Group011
 62
0
 70
0
 66
1
 10
0.0
 20
0.0
 30
0.0
  0
VERTEX
  8
Group011
 10
21.5
 20
-3.0
 30
0.0
  0
VERTEX
  8
Group011
 10
21.5
 20
-16.0
 30
0.0
  0
SEQEND
  8
Group011
  0
ARC
  8
Group011
 62
0
 10
22.0
 20
-16.0
 30
0.0
 40
0.5
 50
-180.0
 51
-90.0
  0
POLYLINE
  8
Group011
 62
0
 70
0
 66
1
 10
0.0
 20
0.0
 30
0.0
  0
VERTEX
  8
Group011
 10
22.0
 20
-16.5
 30
0.0
  0
VERTEX
  8
Group011
 10
35.0
 20
-16.5
 30
0.0
  0
SEQEND
  8
Group011
  0
ARC
  8
Group011
 62
0
 10
35.0
 20
-16.0
 30
0.0
 40
0.5
 50
-90.0
 51
-0.0
  0
POLYLINE
  8
Group011
 62
0
 70
0
 66
1
 10
0.0
 20
0.0
 30
0.0
  0
VERTEX
  8
Group011
 10
35.5
 20
-16.0
 30
0.0
  0
VERTEX
  8
Group011
 10
35.5
 20
-3.0
 30
0.0
  0
SEQEND
  8
Group011
  0
POLYLINE
  8
Group012
 62
0
 70
0
 66
1
 10
0.0
 20
0.0
 30
0.0
  0
VERTEX
  8
Group012
 10
41.0
 20
-2.5
 30
0.0
  0
VERTEX
  8
Group012
 10
54.0
 20
-2.5
 30
0.0
  0
SEQEND
  8
Group012
  0
ARC
  8
Group012
 62
0
 10
54.0
 20
-3.0
 30
0.0
 40
0.5
 50
-0.0
 51
90.0
  0
ARC
  8
Group012
 62
0
 10
41.0
 20
-3.0
 30
0.0
 40
0.5
 50
90.0
 51
-180.0
  0
POLYLINE
  8
Group012
 62
0
 70
0
 66
1
 10
0.0
 20
0.0
 30
0.0
  0
VERTEX
  8
Group012
 10
40.5
 20
-3.0
 30
0.0
  0
VERTEX
  8
Group012
 10
40.5
 20
-16.0
 30
0.0
  0
SEQEND
  8
Group012
  0
ARC
  8
Group012
 62
0
 10
41.0
 20
-16.0
 30
0.0
 40
0.5
 50
-180.0
 51
-90.0
  0
POLYLINE
  8
Group012
 62
0
 70
0
 66
1
 10
0.0
 20
0.0
 30
0.0
  0
VERTEX
  8
Group012
 10
41.0
 20
-16.5
 30
0.0
  0
VERTEX
  8
Group012
 10
54.0
 20
-16.5
 30
0.0
  0
SEQEND
  8
Group012
  0
ARC
  8
Group012
 62
0
 10
54.0
 20
-16.0
 30
0.0
 40
0.5
 50
-90.0
 51
-0.0
  0
POLYLINE
  8
Group012
 62
0
 70
0
 66
1
 10
0.0
 20
0.0
 30
0.0
  0
VERTEX
  8
Group012
 10
54.5
 20
-16.0
 30
0.0
  0
VERTEX
  8
Group012
 10
54.5
 20
-3.0
 30
0.0
  0
SEQEND
  8
Group012
  0
POLYLINE
  8
Group013
 62
0
 70
0
 66
1
 10
0.0
 20
0.0
 30
0.0
  0
VERTEX
  8
Group013
 10
60.0
 20
-2.5
 30
0.0
  0
VERTEX
  8
Group013
 10
73.0
 20
-2.5
 30
0.0
  0
SEQEND
  8
Group013
  0
ARC
  8
Group013
 62
0
 10
73.0
 20
-3.0
 30
0.0
 40
0.5
 50
-0.0
 51
90.0
  0
ARC
  8
Group013
 62
0
 10
60.0
 20
-3.0
 30
0.0
 40
0.5
 50
90.0
 51
-180.0
  0
POLYLINE
  8
Group013
 62
0
 70
0
 66
1
 10
0.0
 20
0.0
 30
0.0
  0
VERTEX
  8
Group013
 10
59.5
 20
-3.0
 30
0.0
  0
VERTEX
  8
Group013
 10
59.5
 20
-16.0
 30
0.0
  0
SEQEND
  8
Group013
  0
ARC
  8
Group013
 62
0
 10
60.0
 20
-16.0
 30
0.0
 40
0.5
 50
-180.0
 51
-90.0
  0
POLYLINE
  8
Group013
 62
0
 70
0
 66
1
 10
0.0
 20
0.0
 30
0.0
  0
VERTEX
  8
Group013
 10
60.0
 20
-16.5
 30
0.0
  0
VERTEX
  8
Group013
 10
73.0
 20
-16.5
 30
0.0
  0
SEQEND
  8
Group013
  0
ARC
  8
Group013
 62
0
 10
73.0
 20
-16.0
 30
0.0
 40
0.5
 50
-90.0
 51
-0.0
  0
POLYLINE
  8
Group013
 62
0
 70
0
 66
1
 10
0.0
 20
0.0
 30
0.0
  0
VERTEX
  8
Group013
 10
73.5
 20
-16.0
 30
0.0
  0
VERTEX
  8
Group013
 10
73.5
 20
-3.0
 30
0.0
  0
SEQEND
  8
Group013
  0
POLYLINE
  8
Group014
 62
0
 70
0
 66
1
 10
0.0
 20
0.0
 30
0.0
  0
VERTEX
  8
Group014
 10
79.0
 20
-2.5
 30
0.0
  0
VERTEX
  8
Group014
 10
92.0
 20
-2.5
 30
0.0
  0
SEQEND
  8
Group014
  0
ARC
  8
Group014
 62
0
 10
92.0
 20
-3.0
 30
0.0
 40
0.5
 50
-0.0
 51
90.0
  0
ARC
  8
Group014
 62
0
 10
79.0
 20
-3.0
 30
0.0
 40
0.5
 50
90.0
 51
-180.0
  0
POLYLINE
  8
Group014
 62
0
 70
0
 66
1
 10
0.0
 20
0.0
 30
0.0
  0
VERTEX
  8
Group014
 10
78.5
 20
-3.0
 30
0.0
  0
VERTEX
  8
Group014
 10
78.5
 20
-16.0
 30
0.0
  0
SEQEND
  8
Group014
  0
ARC
  8
Group014
 62
0
 10
79.0
 20
-16.0
 30
0.0
 40
0.5
 50
-180.0
 51
-90.0
  0
POLYLINE
  8
Group014
 62
0
 70
0
 66
1
 10
0.0
 20
0.0
 30
0.0
  0
VERTEX
  8
Group014
 10
79.0
 20
-16.5
 30
0.0
  0
VERTEX
  8
Group014
 10
92.0
 20
-16.5
 30
0.0
  0
SEQEND
  8
Group014
  0
ARC
  8
Group014
 62
0
 10
92.0
 20
-16.0
 30
0.0
 40
0.5
 50
-90.0
 51
-0.0
  0
POLYLINE
  8
Group014
 62
0
 70
0
 66
1
 10
0.0
 20
0.0
 30
0.0
  0
VERTEX
  8
Group014
 10
92.5
 20
-16.0
 30
0.0
  0
VERTEX
  8
Group014
 10
92.5
 20
-3.0
 30
0.0
  0
SEQEND
  8
Group014
  0
POLYLINE
  8
Group015
 62
0
 70
0
 66
1
 10
0.0
 20
0.0
 30
0.0
  0
VERTEX
  8
Group015
 10
98.0
 20
-2.5
 30
0.0
  0
VERTEX
  8
Group015
 10
111.0
 20
-2.5
 30
0.0
  0
SEQEND
  8
Group015
  0
ARC
  8
Group015
 62
0
 10
111.0
 20
-3.0
 30
0.0
 40
0.5
 50
-0.0
 51
90.0
  0
ARC
  8
Group015
 62
0
 10
98.0
 20
-3.0
 30
0.0
 40
0.5
 50
90.0
 51
-180.0
  0
POLYLINE
  8
Group015
 62
0
 70
0
 66
1
 10
0.0
 20
0.0
 30
0.0
  0
VERTEX
  8
Group015
 10
97.5
 20
-3.0
 30
0.0
  0
VERTEX
  8
Group015
 10
97.5
 20
-16.0
 30
0.0
  0
SEQEND
  8
Group015
  0
ARC
  8
Group015
 62
0
 10
98.0
 20
-16.0
 30
0.0
 40
0.5
 50
-180.0
 51
-90.0
  0
POLYLINE
  8
Group015
 62
0
 70
0
 66
1
 10
0.0
 20
0.0
 30
0.0
  0
VERTEX
  8
Group015
 10
98.0
 20
-16.5
 30
0.0
  0
VERTEX
  8
Group015
 10
111.0
 20
-16.5
 30
0.0
  0
SEQEND
  8
Group015
  0
ARC
  8
Group015
 62
0
 10
111.0
 20
-16.0
 30
0.0
 40
0.5
 50
-90.0
 51
-0.0
  0
POLYLINE
  8
Group015
 62
0
 70
0
 66
1
 10
0.0
 20
0.0
 30
0.0
  0
VERTEX
  8
Group015
 10
111.5
 20
-16.0
 30
0.0
  0
VERTEX
  8
Group015
 10
111.5
 20
-3.0
 30
0.0
  0
SEQEND
  8
Group015
  0
POLYLINE
  8
Group016
 62
0
 70
0
 66
1
 10
0.0
 20
0.0
 30
0.0
  0
VERTEX
  8
Group016
 10
117.0
 20
-2.5
 30
0.0
  0
VERTEX
  8
Group016
 10
130.0
 20
-2.5
 30
0.0
  0
SEQEND
  8
Group016
  0
ARC
  8
Group016
 62
0
 10
130.0
 20
-3.0
 30
0.0
 40
0.5
 50
-0.0
 51
90.0
  0
ARC
  8
Group016
 62
0
 10
117.0
 20
-3.0
 30
0.0
 40
0.5
 50
90.0
 51
-180.0
  0
POLYLINE
  8
Group016
 62
0
 70
0
 66
1
 10
0.0
 20
0.0
 30
0.0
  0
VERTEX
  8
Group016
 10
116.5
 20
-3.0
 30
0.0
  0
VERTEX
  8
Group016
 10
116.5
 20
-16.0
 30
0.0
  0
SEQEND
  8
Group016
  0
ARC
  8
Group016
 62
0
 10
117.0
 20
-16.0
 30
0.0
 40
0.5
 50
-180.0
 51
-90.0
  0
POLYLINE
  8
Group016
 62
0
 70
0
 66
1
 10
0.0
 20
0.0
 30
0.0
  0
VERTEX
  8
Group016
 10
117.0
 20
-16.5
 30
0.0
  0
VERTEX
  8
Group016
 10
130.0
 20
-16.5
 30
0.0
  0
SEQEND
  8
Group016
  0
ARC
  8
Group016
 62
0
 10
130.0
 20
-16.0
 30
0.0
 40
0.5
 50
-90.0
 51
-0.0
  0
POLYLINE
  8
Group016
 62
0
 70
0
 66
1
 10
0.0
 20
0.0
 30
0.0
  0
VERTEX
  8
Group016
 10
130.5
 20
-16.0
 30
0.0
  0
VERTEX
  8
Group016
 10
130.5
 20
-3.0
 30
0.0
  0
SEQEND
  8
Group016
  0
POLYLINE
  8
Group017
 62
0
 70
0
 66
1
 10
0.0
 20
0.0
 30
0.0
  0
VERTEX
  8
Group017
 10
136.0
 20
-2.5
 30
0.0
  0
VERTEX
  8
Group017
 10
149.0
 20
-2.5
 30
0.0
  0
SEQEND
  8
Group017
  0
ARC
  8
Group017
 62
0
 10
149.0
 20
-3.0
 30
0.0
 40
0.5
 50
-0.0
 51
90.0
  0
ARC
  8
Group017
 62
0
 10
136.0
 20
-3.0
 30
0.0
 40
0.5
 50
90.0
 51
-180.0
  0
POLYLINE
  8
Group017
 62
0
 70
0
 66
1
 10
0.0
 20
0.0
 30
0.0
  0
VERTEX
  8
Group017
 10
135.5
 20
-3.0
 30
0.0
  0
VERTEX
  8
Group017
 10
135.5
 20
-16.0
 30
0.0
  0
SEQEND
  8
Group017
  0
ARC
  8
Group017
 62
0
 10
136.0
 20
-16.0
 30
0.0
 40
0.5
 50
-180.0
 51
-90.0
  0
POLYLINE
  8
Group017
 62
0
 70
0
 66
1
 10
0.0
 20
0.0
 30
0.0
  0
VERTEX
  8
Group017
 10
136.0
 20
-16.5
 30
0.0
  0
VERTEX
  8
Group017
 10
149.0
 20
-16.5
 30
0.0
  0
SEQEND
  8
Group017
  0
ARC
  8
Group017
 62
0
 10
149.0
 20
-16.0
 30
0.0
 40
0.5
 50
-90.0
 51
-0.0
  0
POLYLINE
  8
Group017
 62
0
 70
0
 66
1
 10
0.0
 20
0.0
 30
0.0
  0
VERTEX
  8
Group017
 10
149.5
 20
-16.0
 30
0.0
  0
VERTEX
  8
Group017
 10
149.5
 20
-3.0
 30
0.0
  0
SEQEND
  8
Group017
  0
POLYLINE
  8
Group018
 62
0
 70
0
 66
1
 10
0.0
 20
0.0
 30
0.0
  0
VERTEX
  8
Group018
 10
155.0
 20
-2.5
 30
0.0
  0
VERTEX
  8
Group018
 10
168.0
 20
-2.5
 30
0.0
  0
SEQEND
  8
Group018
  0
ARC
  8
Group018
 62
0
 10
168.0
 20
-3.0
 30
0.0
 40
0.5
 50
-0.0
 51
90.0
  0
ARC
  8
Group018
 62
0
 10
155.0
 20
-3.0
 30
0.0
 40
0.5
 50
90.0
 51
-180.0
  0
POLYLINE
  8
Group018
 62
0
 70
0
 66
1
 10
0.0
 20
0.0
 30
0.0
  0
VERTEX
  8
Group018
 10
154.5
 20
-3.0
 30
0.0
  0
VERTEX
  8
Group018
 10
154.5
 20
-16.0
 30
0.0
  0
SEQEND
  8
Group018
  0
ARC
  8
Group018
 62
0
 10
155.0
 20
-16.0
 30
0.0
 40
0.5
 50
-180.0
 51
-90.0
  0
POLYLINE
  8
Group018
 62
0
 70
0
 66
1
 10
0.0
 20
0.0
 30
0.0
  0
VERTEX
  8
Group018
 10
155.0
 20
-16.5
 30
0.0
  0
VERTEX
  8
Group018
 10
168.0
 20
-16.5
 30
0.0
  0
SEQEND
  8
Group018
  0
ARC
  8
Group018
 62
0
 10
168.0
 20
-16.0
 30
0.0
 40
0.5
 50
-90.0
 51
-0.0
  0
POLYLINE
  8
Group018
 62
0
 70
0
 66
1
 10
0.0
 20
0.0
 30
0.0
  0
VERTEX
  8
Group018
 10
168.5
 20
-16.0
 30
0.0
  0
VERTEX
  8
Group018
 10
168.5
 20
-3.0
 30
0.0
  0
SEQEND
  8
Group018
  0
POLYLINE
  8
Group019
 62
0
 70
0
 66
1
 10
0.0
 20
0.0
 30
0.0
  0
VERTEX
  8
Group019
 10
174.0
 20
-2.5
 30
0.0
  0
VERTEX
  8
Group019
 10
187.0
 20
-2.5
 30
0.0
  0
SEQEND
  8
Group019
  0
ARC
  8
Group019
 62
0
 10
187.0
 20
-3.0
 30
0.0
 40
0.5
 50
-0.0
 51
90.0
  0
ARC
  8
Group019
 62
0
 10
174.0
 20
-3.0
 30
0.0
 40
0.5
 50
90.0
 51
-180.0
  0
POLYLINE
  8
Group019
 62
0
 70
0
 66
1
 10
0.0
 20
0.0
 30
0.0
  0
VERTEX
  8
Group019
 10
173.5
 20
-3.0
 30
0.0
  0
VERTEX
  8
Group019
 10
173.5
 20
-16.0
 30
0.0
  0
SEQEND
  8
Group019
  0
ARC
  8
Group019
 62
0
 10
174.0
 20
-16.0
 30
0.0
 40
0.5
 50
-180.0
 51
-90.0
  0
POLYLINE
  8
Group019
 62
0
 70
0
 66
1
 10
0.0
 20
0.0
 30
0.0
  0
VERTEX
  8
Group019
 10
174.0
 20
-16.5
 30
0.0
  0
VERTEX
  8
Group019
 10
187.0
 20
-16.5
 30
0.0
  0
SEQEND
  8
Group019
  0
ARC
  8
Group019
 62
0
 10
187.0
 20
-16.0
 30
0.0
 40
0.5
 50
-90.0
 51
-0.0
  0
POLYLINE
  8
Group019
 62
0
 70
0
 66
1
 10
0.0
 20
0.0
 30
0.0
  0
VERTEX
  8
Group019
 10
187.5
 20
-16.0
 30
0.0
  0
VERTEX
  8
Group019
 10
187.5
 20
-3.0
 30
0.0
  0
SEQEND
  8
Group019
  0
POLYLINE
  8
Group020
 62
0
 70
0
 66
1
 10
0.0
 20
0.0
 30
0.0
  0
VERTEX
  8
Group020
 10
193.0
 20
-2.5
 30
0.0
  0
VERTEX
  8
Group020
 10
206.0
 20
-2.5
 30
0.0
  0
SEQEND
  8
Group020
  0
ARC
  8
Group020
 62
0
 10
206.0
 20
-3.0
 30
0.0
 40
0.5
 50
-0.0
 51
90.0
  0
ARC
  8
Group020
 62
0
 10
193.0
 20
-3.0
 30
0.0
 40
0.5
 50
90.0
 51
-180.0
  0
POLYLINE
  8
Group020
 62
0
 70
0
 66
1
 10
0.0
 20
0.0
 30
0.0
  0
VERTEX
  8
Group020
 10
192.5
 20
-3.0
 30
0.0
  0
VERTEX
  8
Group020
 10
192.5
 20
-16.0
 30
0.0
  0
SEQEND
  8
Group020
  0
ARC
  8
Group020
 62
0
 10
193.0
 20
-16.0
 30
0.0
 40
0.5
 50
-180.0
 51
-90.0
  0
POLYLINE
  8
Group020
 62
0
 70
0
 66
1
 10
0.0
 20
0.0
 30
0.0
  0
VERTEX
  8
Group020
 10
193.0
 20
-16.5
 30
0.0
  0
VERTEX
  8
Group020
 10
206.0
 20
-16.5
 30
0.0
  0
SEQEND
  8
Group020
  0
ARC
  8
Group020
 62
0
 10
206.0
 20
-16.0
 30
0.0
 40
0.5
 50
-90.0
 51
-0.0
  0
POLYLINE
  8
Group020
 62
0
 70
0
 66
1
 10
0.0
 20
0.0
 30
0.0
  0
VERTEX
  8
Group020
 10
206.5
 20
-16.0
 30
0.0
  0
VERTEX
  8
Group020
 10
206.5
 20
-3.0
 30
0.0
  0
SEQEND
  8
Group020
  0
ARC
  8
Group021
 62
0
 10
212.0
 20
-3.0
 30
0.0
 40
0.5
 50
90.0
 51
-180.0
  0
POLYLINE
  8
Group021
 62
0
 70
0
 66
1
 10
0.0
 20
0.0
 30
0.0
  0
VERTEX
  8
Group021
 10
211.5
 20
-3.0
 30
0.0
  0
VERTEX
  8
Group021
 10
211.5
 20
-16.0
 30
0.0
  0
SEQEND
  8
Group021
  0
ARC
  8
Group021
 62
0
 10
212.0
 20
-16.0
 30
0.0
 40
0.5
 50
-180.0
 51
-90.0
  0
ARC
  8
Group022
 62
0
 10
244.0
 20
-3.0
 30
0.0
 40
0.5
 50
-0.0
 51
90.0
  0
ARC
  8
Group022
 62
0
 10
244.0
 20
-16.0
 30
0.0
 40
0.5
 50
-90.0
 51
-0.0
  0
POLYLINE
  8
Group022
 62
0
 70
0
 66
1
 10
0.0
 20
0.0
 30
0.0
  0
VERTEX
  8
Group022
 10
244.5
 20
-16.0
 30
0.0
  0
VERTEX
  8
Group022
 10
244.5
 20
-3.0
 30
0.0
  0
SEQEND
  8
Group022
  0
ARC
  8
full backspace
 62
0
 10
243.188
 20
-19.500000000000004
 30
0.0
 40
0.5
 50
-90.0
 51
-0.0
  0
ARC
  8
full backspace
 62
0
 10
212.81199999999998
 20
-19.5
 30
0.0
 40
0.5
 50
-180.0
 51
-90.0
  0
POLYLINE
  8
full backspace
 62
0
 70
0
 66
1
 10
0.0
 20
0.0
 30
0.0
  0
VERTEX
  8
full backspace
 10
212.81199999999998
 20
-20.0
 30
0.0
  0
VERTEX
  8
full backspace
 10
243.188
 20
-20.000000000000004
 30
0.0
  0
SEQEND
  8
full backspace
  0
ARC
  8
full backspace
 62
0
 10
243.188
 20
-0.30000000000000426
 30
0.0
 40
0.5
 50
-0.0
 51
90.0
  0
ARC
  8
full backspace
 62
0
 10
236.688
 20
-0.3000000000000007
 30
0.0
 40
0.5
 50
90.0
 51
180.0
  0
POLYLINE
  8
full backspace
 62
0
 70
0
 66
1
 10
0.0
 20
0.0
 30
0.0
  0
VERTEX
  8
full backspace
 10
243.188
 20
0.19999999999999574
 30
0.0
  0
VERTEX
  8
full backspace
 10
236.688
 20
0.19999999999999654
 30
0.0
  0
SEQEND
  8
full backspace
  0
ARC
  8
full backspace
 62
0
 10
235.688
 20
-2.0
 30
0.0
 40
0.5
 50
-90.0
 51
-0.0
  0
ARC
  8
full backspace
 62
0
 10
212.81199999999998
 20
-0.3000000000000007
 30
0.0
 40
0.5
 50
90.0
 51
180.0
  0
POLYLINE
  8
full backspace
 62
0
 70
0
 66
1
 10
0.0
 20
0.0
 30
0.0
  0
VERTEX
  8
full backspace
 10
219.31199999999998
 20
0.1999999999999993
 30
0.0
  0
VERTEX
  8
full backspace
 10
212.81199999999998
 20
0.2000000000000001
 30
0.0
  0
SEQEND
  8
full backspace
  0
ARC
  8
full backspace
 62
0
 10
219.31199999999998
 20
-0.3000000000000007
 30
0.0
 40
0.5
 50
-0.0
 51
90.0
  0
ARC
  8
full backspace
 62
0
 10
220.31199999999998
 20
-2.0
 30
0.0
 40
0.5
 50
-180.0
 51
-90.0
  0
POLYLINE
  8
full backspace
 62
0
 70
0
 66
1
 10
0.0
 20
0.0
 30
0.0
  0
VERTEX
  8
full backspace
 10
236.188
 20
-0.3000000000000007
 30
0.0
  0
VERTEX
  8
full backspace
 10
236.188
 20
-2.0
 30
0.0
  0
SEQEND
  8
full backspace
  0
POLYLINE
  8
full backspace
 62
0
 70
0
 66
1
 10
0.0
 20
0.0
 30
0.0
  0
VERTEX
  8
full backspace
 10
235.688
 20
-2.5
 30
0.0
  0
VERTEX
  8
full backspace
 10
220.31199999999998
 20
-2.4999999999999982
 30
0.0
  0
SEQEND
  8
full backspace
  0
POLYLINE
  8
full backspace
 62
0
 70
0
 66
1
 10
0.0
 20
0.0
 30
0.0
  0
VERTEX
  8
full backspace
 10
219.81199999999998
 20
-2.0
 30
0.0
  0
VERTEX
  8
full backspace
 10
219.81199999999998
 20
-0.3000000000000007
 30
0.0
  0
SEQEND
  8
full backspace
  0
ARC
  8
full backspace
 62
0
 10
212.0
 20
-16.811999999999983
 30
0.0
 40
0.3119999999999834
 50
-0.0
 51
90.0
  0
POLYLINE
  8
full backspace
 62
0
 70
0
 66
1
 10
0.0
 20
0.0
 30
0.0
  0
VERTEX
  8
full backspace
 10
212.31199999999998
 20
-16.811999999999983
 30
0.0
  0
VERTEX
  8
full backspace
 10
212.31199999999998
 20
-19.5
 30
0.0
  0
SEQEND
  8
full backspace
  0
ARC
  8
full backspace
 62
0
 10
212.0
 20
-2.1880000000000166
 30
0.0
 40
0.3119999999999834
 50
-90.0
 51
-0.0
  0
POLYLINE
  8
full backspace
 62
0
 70
0
 66
1
 10
0.0
 20
0.0
 30
0.0
  0
VERTEX
  8
full backspace
 10
212.31199999999998
 20
-2.1880000000000166
 30
0.0
  0
VERTEX
  8
full backspace
 10
212.31199999999998
 20
-0.3000000000000005
 30
0.0
  0
SEQEND
  8
full backspace
  0
POLYLINE
  8
full backspace
 62
0
 70
0
 66
1
 10
0.0
 20
0.0
 30
0.0
  0
VERTEX
  8
full backspace
 10
243.688
 20
-2.187999999999988
 30
0.0
  0
VERTEX
  8
full backspace
 10
243.688
 20
-0.30000000000000426
 30
0.0
  0
SEQEND
  8
full backspace
  0
ARC
  8
full backspace
 62
0
 10
244.0
 20
-2.187999999999988
 30
0.0
 40
0.3120000000000118
 50
-180.0
 51
-90.0
  0
ARC
  8
full backspace
 62
0
 10
244.0
 20
-16.812000000000012
 30
0.0
 40
0.3120000000000118
 50
90.0
 51
-180.0
  0
POLYLINE
  8
full backspace
 62
0
 70
0
 66
1
 10
0.0
 20
0.0
 30
0.0
  0
VERTEX
  8
full backspace
 10
243.688
 20
-16.812000000000012
 30
0.0
  0
VERTEX
  8
full backspace
 10
243.688
 20
-19.500000000000004
 30
0.0
  0
SEQEND
  8
full backspace
  0
ARC
  8
Outside border
 62
0
 10
-4.0
 20
4.0
 30
0.0
 40
7.00001302936516
 50
90.0
 51
180.0
  0
ARC
  8
Outside border
 62
0
 10
251.0
 20
4.0
 30
0.0
 40
7.00001302936516
 50
-0.0
 51
90.0
  0
ARC
  8
Outside border
 62
0
 10
-4.0
 20
-79.99999999999999
 30
0.0
 40
7.00001302936516
 50
-180.0
 51
-90.00000000000001
  0
ARC
  8
Outside border
 62
0
 10
251.0
 20
-80.00000000000001
 30
0.0
 40
7.00001302936516
 50
-90.0
 51
-0.0
  0
POLYLINE
  8
Outside border
 62
0
 70
0
 66
1
 10
0.0
 20
0.0
 30
0.0
  0
VERTEX
  8
Outside border
 10
-3.9999999999999996
 20
11.00001302936516
 30
0.0
  0
VERTEX
  8
Outside border
 10
251.0
 20
11.00001302936516
 30
0.0
  0
SEQEND
  8
Outside border
  0
POLYLINE
  8
Outside border
 62
0
 70
0
 66
1
 10
0.0
 20
0.0
 30
0.0
  0
VERTEX
  8
Outside border
 10
258.00001302936516
 20
4.0
 30
0.0
  0
VERTEX
  8
Outside border
 10
258.00001302936516
 20
-80.00000000000001
 30
0.0
  0
SEQEND
  8
Outside border
  0
POLYLINE
  8
Outside border
 62
0
 70
0
 66
1
 10
0.0
 20
0.0
 30
0.0
  0
VERTEX
  8
Outside border
 10
251.0
 20
-87.00001302936518
 30
0.0
  0
VERTEX
  8
Outside border
 10
-4.0
 20
-87.00001302936515
 30
0.0
  0
SEQEND
  8
Outside border
  0
POLYLINE
  8
Outside border
 62
0
 70
0
 66
1
 10
0.0
 20
0.0
 30
0.0
  0
VERTEX
  8
Outside border
 10
-11.00001302936516
 20
-79.99999999999999
 30
0.0
  0
VERTEX
  8
Outside border
 10
-11.00001302936516
 20
4.0
 30
0.0
  0
SEQEND
  8
Outside border
  0
CIRCLE
  8
Screws
 62
0
 10
-3.487436867076458
 20
3.487436867076458
 30
0.0
 40
1.6
  0
CIRCLE
  8
Screws
 62
0
 10
-3.4874368670764575
 20
-79.48743686707644
 30
0.0
 40
1.6
  0
CIRCLE
  8
Screws
 62
0
 10
250.48743686707644
 20
-79.48743686707647
 30
0.0
 40
1.6
  0
CIRCLE
  8
Screws
 62
0
 10
250.48743686707644
 20
3.487436867076458
 30
0.0
 40
1.6
  0
CIRCLE
  8
Screws
 62
0
 10
123.5
 20
4.0
 30
0.0
 40
1.6
  0
CIRCLE
  8
Screws
 62
0
 10
123.5
 20
-80.0
 30
0.0
 40
1.6
  0
CIRCLE
  8
Screws
 62
0
 10
31.0
 20
4.0
 30
0.0
 40
1.6
  0
ENDSEC
  0
EOF
