  0
SECTION
  2
HEADER
  9
$ACADVER
  1
AC1009
  9
$INSBASE
 10
0.0
 20
0.0
 30
0.0
  9
$EXTMIN
 10
0.0
 20
0.0
 30
0.0
  9
$EXTMAX
 10
0.0
 20
0.0
 30
0.0
  0
ENDSEC
  0
SECTION
  2
TABLES
  0
TABLE
  2
VPORT
 70
0
  0
ENDTAB
  0
TABLE
  2
LTYPE
 70
1
  0
LTYPE
  2
CONTINUOUS
 70
0
  3
Solid line
 72
65
 73
0
 40
0.0
  0
ENDTAB
  0
TABLE
  2
LAYER
 70
1
  0
LAYER
  2
0
 70
64
 62
7
  6
continuous
  0
ENDTAB
  0
TABLE
  2
STYLE
 70
1
  0
STYLE
  2
STANDARD
 70
0
 40
0
 41
1.0
 50
0.0
 71
0
 42
1
 3
ARIAL.TTF
 4

  0
ENDTAB
  0
TABLE
  2
VIEW
 70
0
  0
ENDTAB
  0
ENDSEC
  0
SECTION
  2
BLOCKS
  0
ENDSEC
  0
SECTION
  2
ENTITIES
  0
ARC
  8
Switch-bottom layer 5mm
 62
0
 10
-4.0
 20
4.0
 30
0.0
 40
5.0
 50
90.0
 51
180.0
  0
ARC
  8
Switch-bottom layer 5mm
 62
0
 10
251.0
 20
4.0
 30
0.0
 40
5.0
 50
-0.0
 51
90.0
  0
ARC
  8
Switch-bottom layer 5mm
 62
0
 10
251.0
 20
-80.0
 30
0.0
 40
5.0
 50
-90.0
 51
-0.0
  0
ARC
  8
Switch-bottom layer 5mm
 62
0
 10
-4.0
 20
-80.0
 30
0.0
 40
5.0
 50
-180.0
 51
-90.00000000000001
  0
POLYLINE
  8
Switch-bottom layer 5mm
 62
0
 70
0
 66
1
 10
0.0
 20
0.0
 30
0.0
  0
VERTEX
  8
Switch-bottom layer 5mm
 10
256.0
 20
4.0
 30
0.0
  0
VERTEX
  8
Switch-bottom layer 5mm
 10
256.0
 20
-80.0
 30
0.0
  0
SEQEND
  8
Switch-bottom layer 5mm
  0
POLYLINE
  8
Switch-bottom layer 5mm
 62
0
 70
0
 66
1
 10
0.0
 20
0.0
 30
0.0
  0
VERTEX
  8
Switch-bottom layer 5mm
 10
251.0
 20
-85.0
 30
0.0
  0
VERTEX
  8
Switch-bottom layer 5mm
 10
-4.0
 20
-85.0
 30
0.0
  0
SEQEND
  8
Switch-bottom layer 5mm
  0
POLYLINE
  8
Switch-bottom layer 5mm
 62
0
 70
0
 66
1
 10
0.0
 20
0.0
 30
0.0
  0
VERTEX
  8
Switch-bottom layer 5mm
 10
-9.0
 20
-80.0
 30
0.0
  0
VERTEX
  8
Switch-bottom layer 5mm
 10
-9.0
 20
4.0
 30
0.0
  0
SEQEND
  8
Switch-bottom layer 5mm
  0
ARC
  8
Bottom inside base
 62
0
 10
-0.5
 20
0.5
 30
0.0
 40
0.5
 50
90.0
 51
-180.0
  0
ARC
  8
Bottom inside base
 62
0
 10
247.5
 20
0.5
 30
0.0
 40
0.5
 50
-0.0
 51
90.0
  0
ARC
  8
Bottom inside base
 62
0
 10
-0.5
 20
-76.49999999999999
 30
0.0
 40
0.5
 50
-180.0
 51
-90.0
  0
ARC
  8
Bottom inside base
 62
0
 10
247.5
 20
-76.50000000000001
 30
0.0
 40
0.5
 50
-90.0
 51
-0.0
  0
POLYLINE
  8
Bottom inside base
 62
0
 70
0
 66
1
 10
0.0
 20
0.0
 30
0.0
  0
VERTEX
  8
Bottom inside base
 10
248.0
 20
-76.50000000000001
 30
0.0
  0
VERTEX
  8
Bottom inside base
 10
248.0
 20
0.5
 30
0.0
  0
SEQEND
  8
Bottom inside base
  0
POLYLINE
  8
Bottom inside base
 62
0
 70
0
 66
1
 10
0.0
 20
0.0
 30
0.0
  0
VERTEX
  8
Bottom inside base
 10
-1.0
 20
0.5
 30
0.0
  0
VERTEX
  8
Bottom inside base
 10
-1.0
 20
-76.49999999999999
 30
0.0
  0
SEQEND
  8
Bottom inside base
  0
POLYLINE
  8
Bottom inside base
 62
0
 70
0
 66
1
 10
0.0
 20
0.0
 30
0.0
  0
VERTEX
  8
Bottom inside base
 10
-0.5
 20
-76.99999999999999
 30
0.0
  0
VERTEX
  8
Bottom inside base
 10
247.5
 20
-77.00000000000001
 30
0.0
  0
SEQEND
  8
Bottom inside base
  0
ARC
  8
Switch-bottom layer 5mm
 62
0
 10
26.365000000000002
 20
8.0
 30
0.0
 40
1.0
 50
90.0
 51
-180.0
  0
ARC
  8
Switch-bottom layer 5mm
 62
0
 10
26.365000000000002
 20
2.0
 30
0.0
 40
1.0
 50
-180.0
 51
-90.0
  0
ARC
  8
Switch-bottom layer 5mm
 62
0
 10
10.365000000000009
 20
2.0
 30
0.0
 40
1.0
 50
-90.0
 51
-0.0
  0
POLYLINE
  8
Switch-bottom layer 5mm
 62
0
 70
0
 66
1
 10
0.0
 20
0.0
 30
0.0
  0
VERTEX
  8
Switch-bottom layer 5mm
 10
-0.5
 20
1.0
 30
0.0
  0
VERTEX
  8
Switch-bottom layer 5mm
 10
10.365000000000009
 20
1.0
 30
0.0
  0
SEQEND
  8
Switch-bottom layer 5mm
  0
POLYLINE
  8
Switch-bottom layer 5mm
 62
0
 70
0
 66
1
 10
0.0
 20
0.0
 30
0.0
  0
VERTEX
  8
Switch-bottom layer 5mm
 10
25.365000000000002
 20
2.0
 30
0.0
  0
VERTEX
  8
Switch-bottom layer 5mm
 10
25.365000000000002
 20
8.0
 30
0.0
  0
SEQEND
  8
Switch-bottom layer 5mm
  0
POLYLINE
  8
Switch-bottom layer 5mm
 62
0
 70
0
 66
1
 10
0.0
 20
0.0
 30
0.0
  0
VERTEX
  8
Switch-bottom layer 5mm
 10
26.365000000000002
 20
9.0
 30
0.0
  0
VERTEX
  8
Switch-bottom layer 5mm
 10
251.0
 20
9.0
 30
0.0
  0
SEQEND
  8
Switch-bottom layer 5mm
  0
POLYLINE
  8
Switch-bottom layer 5mm
 62
0
 70
0
 66
1
 10
0.0
 20
0.0
 30
0.0
  0
VERTEX
  8
Switch-bottom layer 5mm
 10
247.5
 20
1.0
 30
0.0
  0
VERTEX
  8
Switch-bottom layer 5mm
 10
26.36500000000001
 20
1.0
 30
0.0
  0
SEQEND
  8
Switch-bottom layer 5mm
  0
ARC
  8
Switch-bottom layer 5mm
 62
0
 10
10.365000000000002
 20
8.0
 30
0.0
 40
1.0
 50
-0.0
 51
90.0
  0
POLYLINE
  8
Switch-bottom layer 5mm
 62
0
 70
0
 66
1
 10
0.0
 20
0.0
 30
0.0
  0
VERTEX
  8
Switch-bottom layer 5mm
 10
10.365000000000002
 20
9.0
 30
0.0
  0
VERTEX
  8
Switch-bottom layer 5mm
 10
-4.0
 20
9.0
 30
0.0
  0
SEQEND
  8
Switch-bottom layer 5mm
  0
POLYLINE
  8
Switch-bottom layer 5mm
 62
0
 70
0
 66
1
 10
0.0
 20
0.0
 30
0.0
  0
VERTEX
  8
Switch-bottom layer 5mm
 10
11.365000000000002
 20
8.0
 30
0.0
  0
VERTEX
  8
Switch-bottom layer 5mm
 10
11.365000000000009
 20
2.0
 30
0.0
  0
SEQEND
  8
Switch-bottom layer 5mm
  0
CIRCLE
  8
Screws
 62
0
 10
-3.487436867076458
 20
3.487436867076458
 30
0.0
 40
1.6
  0
CIRCLE
  8
Screws
 62
0
 10
-3.4874368670764575
 20
-79.48743686707644
 30
0.0
 40
1.6
  0
CIRCLE
  8
Screws
 62
0
 10
250.48743686707644
 20
-79.48743686707647
 30
0.0
 40
1.6
  0
CIRCLE
  8
Screws
 62
0
 10
250.48743686707644
 20
3.487436867076458
 30
0.0
 40
1.6
  0
CIRCLE
  8
Screws
 62
0
 10
123.5
 20
4.0
 30
0.0
 40
1.6
  0
CIRCLE
  8
Screws
 62
0
 10
123.5
 20
-80.0
 30
0.0
 40
1.6
  0
CIRCLE
  8
Screws
 62
0
 10
31.0
 20
4.0
 30
0.0
 40
1.6
  0
ENDSEC
  0
EOF
